<?xml version="1.0" encoding="utf-8"?>
<!-- Generator: Adobe Illustrator 19.1.1, SVG Export Plug-In . SVG Version: 6.00 Build 0)  -->
<svg version="1.1" id="Layer_1" xmlns="http://www.w3.org/2000/svg" xmlns:xlink="http://www.w3.org/1999/xlink" x="0px" y="0px"
	 viewBox="0 0 792 487" style="enable-background:new 0 0 792 487;" xml:space="preserve">
<style type="text/css">
	.st0{fill:#6CC04A;}
	.st1{fill:#ACDB90;}
	.st2{fill:#EB0029;}
	.st3{fill:#E7A2AF;}
	.st4{fill:#8547AD;}
	.st5{fill:#C7B4E2;}
	.st6{fill:#FF9E16;}
	.st7{fill:#F4D19F;}
	.st8{fill:#00956D;}
	.st9{fill:#B8DBD2;}
	.st10{fill:#3B5CAD;}
	.st11{fill:#CCD2EA;}
</style>
<rect id="XMLID_38_" x="96.8" y="53" class="st0" width="34.2" height="52.1"/>
<rect id="XMLID_21_" x="113.9" y="25.4" class="st1" width="34.2" height="52.1"/>
<rect id="XMLID_40_" x="174.7" y="131.6" class="st2" width="34.2" height="52.1"/>
<rect id="XMLID_17_" x="191.7" y="104" class="st3" width="34.2" height="52.1"/>
<rect id="XMLID_44_" x="366.8" y="75.1" class="st4" width="34.2" height="52.1"/>
<rect id="XMLID_43_" x="383.8" y="47.5" class="st5" width="34.2" height="52.1"/>
<rect id="XMLID_46_" x="280.2" y="171.4" class="st0" width="34.2" height="52.1"/>
<rect id="XMLID_45_" x="297.2" y="143.8" class="st1" width="34.2" height="52.1"/>
<rect id="XMLID_48_" x="79.8" y="238.8" class="st6" width="34.2" height="52.1"/>
<rect id="XMLID_47_" x="96.8" y="211.2" class="st7" width="34.2" height="52.1"/>
<rect id="XMLID_65_" x="191.7" y="309.6" class="st4" width="34.2" height="52.1"/>
<rect id="XMLID_50_" x="208.8" y="282.1" class="st5" width="34.2" height="52.1"/>
<rect id="XMLID_68_" x="503.2" y="35.2" class="st6" width="34.2" height="52.1"/>
<rect id="XMLID_67_" x="520.3" y="7.7" class="st7" width="34.2" height="52.1"/>
<rect id="XMLID_77_" x="428.2" y="205.7" class="st8" width="34.2" height="52.1"/>
<rect id="XMLID_69_" x="445.3" y="178.1" class="st9" width="34.2" height="52.1"/>
<rect id="XMLID_79_" x="564.1" y="145.3" class="st10" width="34.2" height="52.1"/>
<rect id="XMLID_78_" x="581.1" y="117.8" class="st11" width="34.2" height="52.1"/>
<rect id="XMLID_81_" x="662.7" y="35.2" class="st0" width="34.2" height="52.1"/>
<rect id="XMLID_80_" x="679.7" y="7.7" class="st1" width="34.2" height="52.1"/>
<rect id="XMLID_83_" x="654.2" y="245.5" class="st2" width="34.2" height="52.1"/>
<rect id="XMLID_82_" x="671.2" y="218" class="st3" width="34.2" height="52.1"/>
<rect id="XMLID_85_" x="538.5" y="309.6" class="st4" width="34.2" height="52.1"/>
<rect id="XMLID_84_" x="555.5" y="282.1" class="st5" width="34.2" height="52.1"/>
<rect id="XMLID_87_" x="327" y="278.2" class="st2" width="34.2" height="52.1"/>
<rect id="XMLID_86_" x="344" y="250.6" class="st3" width="34.2" height="52.1"/>
<rect id="XMLID_89_" x="436.8" y="365.3" class="st6" width="34.2" height="52.1"/>
<rect id="XMLID_88_" x="453.8" y="337.7" class="st7" width="34.2" height="52.1"/>
<rect id="XMLID_93_" x="88.3" y="413.7" class="st2" width="34.2" height="52.1"/>
<rect id="XMLID_92_" x="105.4" y="386.2" class="st3" width="34.2" height="52.1"/>
<rect id="XMLID_115_" x="254.6" y="413.7" class="st10" width="34.2" height="52.1"/>
<rect id="XMLID_101_" x="271.6" y="386.2" class="st11" width="34.2" height="52.1"/>
<rect id="XMLID_91_" x="628.6" y="405.1" class="st8" width="34.2" height="52.1"/>
<rect id="XMLID_90_" x="645.6" y="377.5" class="st9" width="34.2" height="52.1"/>
<rect id="XMLID_42_" x="246" y="34.9" class="st10" width="34.2" height="52.1"/>
<rect id="XMLID_41_" x="263" y="7.4" class="st11" width="34.2" height="52.1"/>
</svg>
