<?xml version="1.0" encoding="utf-8"?>
<!-- Generator: Adobe Illustrator 19.1.1, SVG Export Plug-In . SVG Version: 6.00 Build 0)  -->
<svg version="1.1" id="Layer_1" xmlns="http://www.w3.org/2000/svg" xmlns:xlink="http://www.w3.org/1999/xlink" x="0px" y="0px"
	 viewBox="-202 289.2 206 215.8" style="enable-background:new -202 289.2 206 215.8;" xml:space="preserve">
<style type="text/css">
	.st0{fill:#DDCE88;}
	.st1{fill:#E40520;}
</style>
<g>
	<path class="st0" d="M-76.7,352.1c-3.1-3-6.6-5.4-10.5-7.1c-4.1-1.8-8.4-2.6-13-2.6s-8.8,0.8-12.9,2.6c-3.9,1.7-7.5,4.1-10.6,7.1
		c-3.1,3.1-5.4,6.6-7.2,10.6c-1.7,4.1-2.5,8.5-2.5,12.9c0,4.6,0.8,8.9,2.5,12.9s4.1,7.6,7.2,10.6c3.1,3.1,6.6,5.5,10.6,7.2
		c4.1,1.8,8.4,2.6,12.9,2.6c4.6,0,8.9-0.8,13-2.6c3.9-1.7,7.5-4.1,10.5-7.2c3.1-3,5.5-6.6,7.1-10.6c1.8-4.1,2.6-8.4,2.6-12.9
		s-0.8-8.8-2.6-12.9C-71.2,358.7-73.6,355.1-76.7,352.1L-76.7,352.1z"/>
	<path class="st1" d="M-73.8,364.5c-1.5-3.4-3.5-6.4-6.2-9.2c-2.6-2.6-5.6-4.6-9.1-6.1c-3.6-1.5-7.3-2.3-11.2-2.3
		c-3.9,0-7.6,0.8-11.2,2.3c-3.5,1.5-6.5,3.5-9.1,6.1c-2.7,2.7-4.7,5.7-6.2,9.2c-1.4,3.6-2.2,7.3-2.2,11.1c0,3.9,0.8,7.6,2.2,11.2
		c1.5,3.4,3.5,6.4,6.2,9.2c2.6,2.6,5.6,4.6,9.1,6.1c3.6,1.5,7.2,2.3,11.2,2.3c3.9,0,7.6-0.8,11.2-2.3c3.5-1.5,6.4-3.5,9.1-6.1
		c2.7-2.7,4.7-5.7,6.2-9.2c1.5-3.6,2.2-7.3,2.2-11.2C-71.5,371.7-72.3,368-73.8,364.5L-73.8,364.5z"/>
	<path d="M-81.7,358.2l-1.3-1.7l-0.3-0.8l-0.2-0.5l-1.4-0.2c-0.8,0.2-2,1.3-3.4,3.3c-1.9,2.8-3.6,4.8-5,6.1c-1,0.8-2.2,1.4-3.3,1.5
		c-0.3,0-0.5-0.1-0.8-0.2c-0.4-0.2-0.6-0.9-0.6-2l2.1-2.4l0.5-1.9c0-0.4-0.4-0.5-1.1-0.5l-1.7,0.3l-1.2,0.4l-0.4-0.5l-0.9-0.9
		c-0.7-0.5-1.2-0.5-1.5,0.3l0,1.7c-2.2,1.1-3.3,1.9-3.3,2.5c0,0.5,0.2,0.8,0.6,1l2.3,0.8l-0.2,1.2l-0.9,0.1
		c-1.3-0.2-2.5-0.6-3.4-1.5c-1.3-1.1-3-3.1-5-6.1c-1-1.5-2.2-2.6-3.4-3.3l-0.5-0.1l-0.7,0.1l-0.4,0.5v0.6l-0.5,0.7l-1.1,1.5
		l-2.5,3.4l-2.2,4.1c-1,2.2-1.6,4.7-1.9,7.6c-0.2,2.8-0.1,5.4,0.5,8c0.9,4,2.6,7.5,5.1,10.5l1.2,1.3l0.4,0.4h0.5
		c0.2-0.3,0-0.5-0.4-0.9l-0.8-1c-0.9-1.3-1.7-2.7-2.3-4.2c-1.5-3.7-1.6-5.8-0.6-6.2c0.7-0.3,1.5,0.4,2.5,2l0.7,1.2
		c0.2,0.7,0.5,0.9,0.8,0.8c0.2-0.1,0.2-0.3,0.2-0.5l-0.5-0.7l-0.6-1.5l-0.8-2.9c-0.5-2.5-0.2-3.9,0.6-4.5c0.8-0.5,1.9-0.1,3.2,1.5
		l1,1.5l0.8,2c0.1,0.5,0.2,0.8,0.5,0.8c0.4-0.1,0.4-0.4,0.2-0.9l-0.5-1.8l0.2-1.5c0.2-0.5,0.5-0.9,0.9-1.1c0.8-0.2,1.6,0.2,2.3,1.2
		c0.8,1.2,1.2,2.7,1.2,4.6l-0.5,0.8c-1.1,0.5-1.6,1-1.5,1.6c0.1,0.8,0.3,1.4,0.8,1.8c2.2-1.1,3.9-1.2,5.1-0.5
		c0.9,0.5,1.9,2.3,2.8,5.1c0.9,2.9,1.5,5.8,1.8,8.9l0.1,1l0.1,1c-0.1,0.4,0.1,0.5,0.3,0.5c0.3,0,0.5-0.2,0.4-0.5l0.2-2
		c0.2-3.2,0.8-6.1,1.7-8.8c0.8-2.8,1.8-4.5,2.7-5.2c1.1-0.8,2.8-0.6,5,0.4c0.6-0.3,0.9-0.8,1-1.7c0-0.7-0.5-1.2-1.6-1.6
		c-0.3-0.2-0.5-0.5-0.5-0.8c0-1.9,0.4-3.4,1.2-4.6c0.7-1.1,1.5-1.5,2.3-1.2c0.4,0.2,0.7,0.5,0.9,1.1l0.3,1.5l-0.3,1.5
		c-0.2,0.5-0.1,0.8,0.2,0.8c0.2,0.1,0.4-0.2,0.5-0.7l0.8-2.1l1-1.5c1.2-1.5,2.2-2.1,3.1-1.5c0.8,0.5,1.1,2.1,0.7,4.6l-0.8,2.9
		l-0.7,1.5l-0.4,0.7c-0.1,0.3-0.1,0.5,0.1,0.5c0.2,0.2,0.5-0.1,0.8-0.7l0.8-1.2c1-1.7,1.9-2.4,2.5-2.1c1,0.5,0.8,2.5-0.7,6.2
		c-0.5,1.6-1.3,3-2.2,4.3l-0.8,1c-0.4,0.3-0.5,0.5-0.3,0.8l0.4,0.1l0.4-0.4l1.2-1.4c2.5-3,4.2-6.4,5.1-10.4c0.5-2.5,0.8-5.2,0.5-8
		c-0.2-2.9-0.9-5.4-1.9-7.6l-2.2-4.1L-81.7,358.2L-81.7,358.2z"/>
	<path class="st0" d="M-82.4,359l-1.5-2l-0.2-0.5l-0.1-0.3c-0.1-0.2-0.3-0.2-0.5,0l-1,0.9c-1.2,1.2-2.2,3.2-3.1,5.7l-1.1,3.1
		l-0.9,1.5c-0.3,0.4-0.7,0.6-1.2,0.7l-2.2-0.5l-2.5-0.8c-0.8-0.2-1-0.2-0.6,0.1c2.2,1.3,2.7,3.9,1.6,7.6l-1.2,3.8l-1.5,3.5
		c-1.1,2.8-1.6,5.6-1.7,8.6v0.2v-0.2c0-1.5-0.2-3.2-0.6-5.1c-0.5-2.5-1.2-4-2-4.7c-0.7-0.5-1.5-0.7-2.4-0.5
		c-0.8,0.2-1.5,0.8-1.9,1.7c0.2-1.9,0.5-3.1,1-3.4h1.2l2.1,0.9l-0.9-2.4l-0.9-2.7c-0.4-2-0.4-3.7,0.2-5.1c0.3-0.7,0.8-1.3,1.5-1.7
		l1.2-0.5l0.4-0.3l-0.2-1.1l-0.2-0.4l-0.1,1.1l-0.4,0.2l-0.6,0.1c-1.2,0.1-2.2,0.5-3.2,1c-0.7,0.5-1.5,0.6-2.2,0.5
		c-0.5-0.1-1-0.4-1.3-0.8l-0.8-1.5l-0.9-3c-0.8-2.5-2-4.6-3.3-5.9l-1.2-0.6h-0.6v0.3l-0.3,0.5l-1.4,1.8l-2.2,3.4
		c-1.6,3.1-2.4,6.2-2.5,9.2c-0.1,3.5,0.4,6.1,1.5,8l0.1-0.1c-0.7-2.3-0.9-4.9-0.7-7.7c0.2-2,0.6-4.1,1.5-6.3l2.3-4.8
		c-0.4,1.9-0.4,4.1-0.2,6.8c0.4,3.3,1.2,6,2.5,8.1h0.1c-0.8-2.5-1.4-5.3-1.5-8.5c-0.1-2.7,0.1-5,0.5-6.9l0.5-1.8l0.6-0.5l0.8,0.8
		l0.8,1.5c0.7,1.6,1.1,3.4,1.3,5.1l0.9,4.6c0.4,1.4,1,2.2,1.7,2.5s1.4,0.2,2.2-0.4c0.8-0.5,1.3-1.2,1.6-2.1
		c-0.2,1.2-0.4,2.1-0.3,2.9c0.1,0.8,0.4,1.9,0.8,2.9l1.4,2.5l-1.4-0.7l-0.7-0.2c-0.6-0.1-1,0.3-1.3,1.2c-0.4,1-0.5,2.3-0.5,3.9
		c-0.1,0.3-0.2,0.5-0.5,0.6c-1.2,0.2-1.8,0.7-1.5,1.4l2.9-0.7c-0.1-0.6,0.2-1.2,0.7-1.9c0.6-0.7,1.3-0.9,2.2-0.5
		c1.1,0.5,2,1.9,2.7,4.5c0.6,2,1,4.4,1.2,7.1l0.2,4.1l0.2-4.1c0.1-2.7,0.5-5.1,1.1-7.1c0.7-2.5,1.6-4,2.7-4.5
		c0.8-0.3,1.5-0.2,2.2,0.5c0.5,0.6,0.8,1.2,0.7,1.9l2.9,0.6c0.3-0.5-0.2-1-1.5-1.3c-0.3-0.1-0.5-0.3-0.5-0.6l-0.5-3.9
		c-0.3-0.8-0.8-1.2-1.3-1.2l-0.8,0.3l-1,0.5l0.9-1.9c0.7-1.5,1.1-3,1.1-4.5l-0.3-2.1c0.5,1.1,0.9,1.8,1.3,2.2
		c0.4,0.4,0.8,0.5,1.2,0.6c0.5,0.1,0.9-0.1,1.3-0.5c0.6-0.5,1.2-1.5,1.6-2.8l0.9-4.1c0.4-2,0.8-3.8,1.3-5.1l0.9-1.5l0.7-0.8l0.6,0.5
		l0.7,1.9c0.4,1.9,0.5,4.2,0.5,6.9c-0.1,3.2-0.6,6-1.5,8.5h0.1c1.3-2.1,2.1-4.8,2.5-8.1c0.2-2.7,0.2-4.9-0.2-6.8l2.3,4.8
		c0.8,2.2,1.3,4.3,1.5,6.3c0.2,2.9-0.1,5.4-0.8,7.7l0.1,0.1c1.1-1.9,1.6-4.6,1.5-8c-0.1-2.9-0.9-5.9-2.5-9L-82.4,359L-82.4,359z"/>
	<path class="st0" d="M-100.8,361.4l-0.5,0.7c-0.1,0.2,0.1,0.2,0.3,0.3l0.9,0.1c0.4,0,0.5-0.1,0.6-0.2l-0.2-0.6L-100.8,361.4
		L-100.8,361.4z"/>
	<polygon class="st0" points="-98.4,361.2 -98.2,361.9 -97.8,361.4 -97.6,360.9 -98.1,360.9 	"/>
	<path d="M-6.7,444c-0.4-0.4-0.9-0.6-1.5-0.6s-1.2,0.2-1.5,0.6c-0.4,0.4-0.6,0.9-0.6,1.5c0,0.5,0.2,1.1,0.6,1.5
		c0.5,0.4,1,0.6,1.5,0.6s1.1-0.2,1.5-0.6c0.4-0.4,0.6-0.9,0.6-1.5C-6.1,444.9-6.3,444.4-6.7,444L-6.7,444z M-8.2,443.7
		c0.5,0,0.8,0.2,1.2,0.5c0.4,0.4,0.5,0.8,0.5,1.3s-0.2,0.9-0.5,1.2c-0.4,0.4-0.8,0.5-1.2,0.5c-0.5,0-0.9-0.2-1.3-0.5
		c-0.4-0.4-0.5-0.8-0.5-1.2c0-0.5,0.2-0.9,0.5-1.3C-9.1,443.8-8.7,443.7-8.2,443.7L-8.2,443.7z"/>
	<path d="M-7.2,445l-0.4-0.5l-0.6-0.2H-9v2.4h0.5v-0.9h0.3l0.5,0.1l0.2,0.5v0.2v0.1h0.4v-0.1v-0.1v-0.4l-0.2-0.4l-0.4-0.2l0.3-0.2
		L-7.2,445L-7.2,445z M-8.3,444.6l0.5,0.1l0.2,0.4l-0.2,0.3l-0.4,0.1h-0.4v-0.8h0.3V444.6z"/>
	<path d="M-111.6,427.7c-0.1-4.4-0.1-7.1,0.1-8.5l-0.2-0.1l-1,0.7l-1.7-0.2c-2.8-1.1-5.6-1.5-8.5-1.2c-1.8,0.1-3.5,0.5-5.1,1.2
		s-3.1,1.7-4.4,3c-2.7,2.9-4.1,6.6-4,11.1c0.1,4.4,1.5,7.9,4.3,10.3c2.7,2.4,6.1,3.5,10.2,3.3c2.9-0.1,5.3-0.8,7.4-2.2
		c1.6-1,2.8-2.3,3.6-3.8l0.6-1.2l-0.4-0.2c-1.3,1.9-2.9,3.5-4.9,4.5c-1.8,0.9-3.8,1.3-5.9,1.1c-2.5-0.1-4.7-1.2-6.4-3.3
		c-1.8-2.2-2.7-5.2-2.8-8.7c-0.1-3.9,0.6-7,2.2-9.6c1.7-2.7,4.1-4.1,7.1-4.1c2.4-0.1,4.4,0.6,6.2,2c1.8,1.5,2.9,3.5,3.2,5.9H-111.6
		L-111.6,427.7z"/>
	<path d="M-166.2,424.9c-0.3-1.9-1.2-3.3-2.9-4.4c-1.7-1.3-4-1.8-6.8-1.7l-11,0.1v0.5l0.7,0.1l0.9,0.3l1.2,0.8
		c0.4,0.4,0.5,0.8,0.5,1.3v21.6c0,0.8-0.6,1.5-1.8,2.2l-1.7,0.5v0.5l6.9-0.1l7.2,0.2c2.8-0.1,5.1-0.8,6.8-1.9
		c1.8-1.4,2.8-3.1,2.9-5.2c0.1-2.2-0.7-4.2-2.5-5.6c-1.6-1.4-3.5-2-5.6-2.1c1.5-0.2,2.7-0.8,3.7-1.9
		C-166.4,428.6-165.9,427-166.2,424.9L-166.2,424.9z M-173.1,421.6c1.2,1,1.8,2.4,1.8,4.1c0,1.9-0.5,3.4-1.4,4.2
		c-1.2,1-3,1.3-5.7,1.1v-10.4c0.5-0.2,1-0.3,1.6-0.4C-175.4,420.2-174.1,420.7-173.1,421.6L-173.1,421.6z M-168.9,439
		c0.1,1.2-0.1,2.1-0.5,2.9c-0.9,2.1-2.8,3.2-5.8,3.3c-2.2,0-3.3-0.8-3.3-2.6v-9.8l2.4-0.2c2.9,0.2,4.9,1.3,6.2,3.3
		C-169.3,436.7-168.9,437.8-168.9,439L-168.9,439z"/>
	<path d="M-13.6,419.3v-0.4h-11.7v0.4l1.7,0.5c1.1,0.5,1.6,1.3,1.6,2.3v21.4c0,0.9-0.5,1.5-1.6,2.2l-1.7,0.5v0.4h11.7v-0.4l-1.6-0.5
		l-1.1-0.8c-0.4-0.4-0.6-0.9-0.6-1.4v-21.4c0-0.8,0.5-1.6,1.7-2.2C-14.6,419.6-14,419.4-13.6,419.3L-13.6,419.3z"/>
	<path d="M-69.5,419l-3.6-0.1l-9.3,0.1v0.3l1.6,0.5l1.1,0.8c0.4,0.4,0.6,0.8,0.6,1.3v21.7c0,0.5-0.2,0.9-0.6,1.3l-1.1,0.7l-1.6,0.6
		v0.4h11.3v-0.4l-1.5-0.5l-1-0.7c-0.3-0.4-0.5-0.8-0.5-1.3v-10.6c0-0.2,0.2-0.4,0.4-0.4c0.7,0,1.7,0.7,2.8,2l2.3,3.4l2.2,3.9
		l2.3,3.2c0.9,0.9,1.8,1.4,2.7,1.5c2,0.2,4.1,0.2,6.2,0.1v-0.6c-1.1-0.2-2-0.5-2.7-1.1l-1.5-1.9l-2.1-3.3l-2.3-3.7
		c-1.5-2.4-3.1-3.7-4.8-4.1c2.1-0.1,3.8-0.7,5.1-1.9c1.5-1.2,2.2-2.8,1.9-4.6c-0.2-1.9-1.2-3.5-2.7-4.7
		C-65.9,419.8-67.6,419.1-69.5,419L-69.5,419z M-72.3,420.2c1.5,0.1,2.7,0.5,3.7,1.5s1.5,2.3,1.6,4c0.1,1.5-0.1,2.7-0.5,3.6
		c-0.5,0.8-1.3,1.3-2.5,1.7l-2.2,0.2L-74,431v-10.5L-72.3,420.2L-72.3,420.2z"/>
	<path d="M-30.4,423c-2.8-2.5-6.5-3.9-11-4.1l-7.4,0.1l-5.9-0.1v0.4l1.6,0.5l1.1,0.7c0.4,0.4,0.5,0.8,0.5,1.4v21.7L-52,445l-1.1,0.7
		l-1.6,0.5v0.5l13.2,0.2c4.9,0.1,8.9-1.3,11.7-4.3c1.2-1.3,2.1-2.8,2.8-4.5c0.5-1.5,0.8-3.1,0.8-4.8
		C-26.3,428.9-27.7,425.5-30.4,423L-30.4,423z M-41.1,420.6c2.7,0.5,4.8,1.9,6.4,4c1.6,2.2,2.4,4.8,2.5,8s-0.5,5.9-1.6,8
		c-1.2,2.4-3.2,3.9-5.9,4.6l-2.1,0.2l-2-0.1c-0.8-0.2-1.5-0.4-1.7-0.7c-0.5-0.5-0.8-1.2-0.9-2.4v-21.5
		C-45,420.2-43.2,420.2-41.1,420.6L-41.1,420.6z"/>
	<path d="M-147.3,418.5l-4.2,0.1l-8.6,24.4c-0.4,1.2-1.1,1.9-2,2.5l-2.2,0.7v0.4h9.3v-0.4l-1.9-0.7c-0.5-0.4-0.8-0.8-0.8-1.5
		l0.5-2.3l2.4-7h7.8l2.4,6.7l0.6,2.3c0.1,0.8-0.2,1.4-0.8,1.8l-1.8,0.7v0.5h12v-0.5l-1.9-0.5c-0.9-0.4-1.5-1.1-1.9-2.2L-147.3,418.5
		L-147.3,418.5z M-147.6,432.7h-6.6l3.3-9.5L-147.6,432.7L-147.6,432.7z"/>
	<path d="M-95.8,418.6h-4.2l-8.6,24.4c-0.4,1.2-1,1.9-2,2.5l-2.1,0.6v0.5h9.2v-0.4l-1.8-0.7c-0.6-0.4-0.9-0.8-0.9-1.5l0.5-2.3l2.4-7
		h7.9l3,9c0.1,0.8-0.2,1.4-0.8,1.8c-0.4,0.3-1,0.5-1.8,0.7v0.5h12v-0.5l-1.8-0.5c-0.8-0.4-1.5-1.1-1.9-2.2L-95.8,418.6L-95.8,418.6z
		 M-96,432.7h-6.6l3.3-9.5L-96,432.7L-96,432.7z"/>
</g>
</svg>
