<?xml version="1.0" encoding="utf-8"?>
<!-- Generator: Adobe Illustrator 19.1.1, SVG Export Plug-In . SVG Version: 6.00 Build 0)  -->
<svg version="1.1" id="Layer_1" xmlns="http://www.w3.org/2000/svg" xmlns:xlink="http://www.w3.org/1999/xlink" x="0px" y="0px"
	 viewBox="-417 81 443 421" style="enable-background:new -417 81 443 421;" xml:space="preserve">
<style type="text/css">
	.st0{fill:url(#SVGID_1_);}
	.st1{fill:#528639;}
	.st2{fill:#09612D;}
	.st3{fill:#5FA82C;}
	.st4{fill:#FFFFFF;}
	.st5{fill:url(#SVGID_2_);}
</style>
<g>
	
		<linearGradient id="SVGID_1_" gradientUnits="userSpaceOnUse" x1="-103.5117" y1="453.3307" x2="-268.0481" y2="617.8671" gradientTransform="matrix(1 0 0 -1 0 796)">
		<stop  offset="0" style="stop-color:#5FA82C"/>
		<stop  offset="1" style="stop-color:#83B64E"/>
	</linearGradient>
	<rect x="-282.2" y="163.8" class="st0" width="165.3" height="165.7"/>
	<path class="st1" d="M-201.8,197.9c-13.9,31.3-22.4,68.2-26.7,116.6c-16.1,3.3-15.6-12.8-14.3-23c4.3-34.5,10-58.6,20-82.8
		C-218.3,198.1-211.2,196.8-201.8,197.9z"/>
	<path class="st1" d="M-187.7,329.3h-16.5c-0.2-2.4,0-5.2,0.4-8c2.6-21.1,4.1-43.2,9.3-63.6c4.6-17.6,8-35.6,16.3-52.3
		c5-10.2,11.9-15.2,23.2-13.3C-171.2,228.5-181.8,273.9-187.7,329.3z"/>
	<path class="st1" d="M-116.9,206.3v11.3c-26.5,18-52.6,29.3-83.4,39.3c-18.5,5.9-52.1,10.9-65.2,8.5l0.2-7.2
		c25.2-3.9,52.3-8.5,80.6-19.5c19.1-7.4,39.1-17.8,61.7-33.9L-116.9,206.3z"/>
	<g>
		<g>
			<path class="st2" d="M-362.3,352.1l-6.5,31.3c-6.1,2.2-9.6,5-8.9,9.3c3-1.5,5.4-2.4,7.6-3l-2.8,13.3c-0.7,3.3-0.4,5.9,0.9,7.6
				c1.3,1.5,3.5,2,6.7,2l5.4-25.6c6.3-2,13-3.5,20-4.6l-4.3,20.9c-0.7,3.3-0.4,5.9,0.9,7.6c1.3,1.5,3.5,2,6.7,2l12.6-60.4h-9.6
				l-4.6,22.4c-7.2,1.3-13.9,2.8-20.2,4.8l5.6-27.2h-9.6V352.1z"/>
			<path class="st2" d="M-278.1,361.2l-8.7,41.7c-0.7,3.3-0.4,5.9,0.9,7.6c1.3,1.5,3.5,2,6.7,2l10.6-51.3L-278.1,361.2L-278.1,361.2
				z"/>
			<path class="st2" d="M-260.7,374.7l-5.9,28.5c-0.7,3.3-0.4,5.9,0.9,7.6c1.3,1.5,3.5,2,6.7,2l8-37.8h-9.8V374.7z"/>
			<path class="st2" d="M-182.1,374c-2.6,0-4.8,0.2-7.2,0.9v6.7c1.1-0.7,2.2-1.1,3.5-1.3c2.4-0.4,5-0.2,5.4,0.7l-3.3,15.6
				c-0.7,3.3-1.7,5.4-3,7.2c-0.9,0.9-1.7,1.7-2.8,2.2v5.6c1.5-0.7,3-1.7,4.3-3.3c0.2,1.1,0.7,2,1.3,2.6c1.3,1.5,3,2,6.3,2l7.4-35.2
				C-173.8,375.3-177.9,374.3-182.1,374z M-189.2,374.9c-4.1,1.1-7.8,3.3-11.1,6.5c-3.5,3.7-5.9,8-7,12.6c-0.7,3.3-0.9,6.7-0.2,10.2
				c1.1,4.3,3.9,7.8,10.4,8.5c2.4,0.2,5.2-0.2,7.8-1.3v-5.6c-1.3,0.4-2.6,0.7-3.9,0.4c-2.2-0.4-4.1-2-4.8-4.6
				c-0.9-3.3-0.2-7,1.1-10.4c1.5-3.7,3.9-7.6,7.4-9.6v-6.7H-189.2z"/>
			<path class="st2" d="M-153.4,428.3c5.9-0.9,11.3-3.3,15-8.5c2-2.8,3.5-7,4.3-11.3l7.4-33.9h-9.6l-4.6,21.3
				c-1.1,3.9-2.6,6.5-4.3,8c-2.2,1.7-5.9,2.6-8.3,0.7v7.6c2-0.2,3.7-0.4,6.3-1.5c1.3-0.7,2.4-1.1,3.7-2.4l0,0
				c-0.9,3.9-2,7.8-4.1,10.6c-1.5,1.7-3.3,3.3-5.9,3.9L-153.4,428.3L-153.4,428.3z M-153.4,390.3v-15.6h3.3L-153.4,390.3z
				 M-162.7,409.4c-2.2,0.9-4.3,1.5-5.9,3c-1.7,1.5-2.8,3.5-2.8,5.6v1.1c0.2,2.6,1.5,5.2,3.9,6.7c3.3,2.4,8.3,3,13.5,2.4
				c0.2,0,0.4,0,0.7,0v-5.4c-0.2,0-0.7,0.2-0.9,0.2c-1.7,0.2-4.1,0.2-6.3-1.1c-2.8-1.5-3.3-3.9-2.4-5.9c0.7-2,3-2.6,4.8-3
				c1.1-0.2,2-0.4,2.8-0.4c0.2,0,0.2,0,0.4,0c0.4,0,1.1-0.2,1.5-0.2v-7.6c-0.2-0.2-0.2-0.2-0.4-0.4c-1.5-1.7-1.5-4.6-1.1-6.5
				l1.5-7.4v-15.6h-6.3l-5.2,23.9C-165.8,403.4-164.9,407.1-162.7,409.4z"/>
			<path class="st2" d="M-222.7,374c-2.4,0-4.8,0.2-7.2,0.9v6.7c1.1-0.7,2.4-1.1,3.5-1.3c2.4-0.4,5-0.2,5.4,0.7l-3.3,15.6
				c-0.7,3.3-1.7,5.4-3,7.2c-0.9,0.9-1.7,1.7-2.8,2.2v5.6c1.5-0.7,3-1.7,4.3-3.3c0.2,1.1,0.7,2,1.3,2.6c1.3,1.5,3,2,6.3,2l12.4-58.2
				h-9.6l-4.1,20.2C-220.5,374-221.6,374-222.7,374z M-229.8,374.7c-4.3,1.1-8.3,3.3-11.5,6.5c-3.5,3.7-5.9,7.8-7,12.6
				c-0.9,3.7-0.9,7.8,0.2,11.1c1.5,4.3,4.8,7.2,10.4,7.6c2.4,0.2,5.2-0.2,7.8-1.3v-5.6c-1.3,0.4-2.6,0.7-3.9,0.4
				c-2.2-0.4-4.1-2-4.8-4.6c-0.9-3.3-0.7-7.2,0.9-10.6c1.5-3.7,4.1-7.4,7.8-9.6V374.7z"/>
			<path class="st2" d="M-308.3,412.3c5.4-1.1,9.8-3.9,12.8-7.8c2.8-3.5,4.6-8,5.4-12.6c0.2-1.5,0.4-3,0.4-4.8
				c0-3.5-0.9-6.7-2.8-9.1c-3.7-4.1-10.2-5-15.9-3.9v6.5c0.7-0.2,1.5-0.4,2.2-0.4c2.2,0,4.8,0.9,6.1,3.9c0.9,2.2,0.7,5,0.2,7.8
				c-0.7,3.9-2.2,7.8-4.1,10.2c-1.3,1.7-2.8,3-4.3,3.7C-308.3,405.8-308.3,412.3-308.3,412.3z M-313,375.8
				c-5.6,2.4-9.8,7.2-11.9,12.8c-2.4,6.1-3.7,15.2,1.3,20.4c3.5,3.5,9.6,4.3,14.6,3.5c0.2,0,0.4,0,0.7-0.2V406
				c-0.7,0.2-1.3,0.4-2,0.4c-2.2,0.2-4.3-0.7-5.6-3c-2.8-4.8,0.2-14.1,2.8-18.5c1.3-2,3-3.5,5-4.3V374
				C-310,374.7-311.7,375.1-313,375.8z"/>
			<path class="st2" d="M-249.6,366.4c1.1-1.5,1.5-3,1.5-4.3c-0.2-3-3.3-4.1-6.1-3.3c-2.6,0.9-4.6,2.8-5,5.6c-0.2,1.5,0,2.8,0.9,3.7
				c1.1,1.3,3.3,1.7,5.2,0.9C-251.6,368.6-250.5,367.5-249.6,366.4z"/>
			<path class="st2" d="M-104.3,352.3l-10.6,50.6c-0.7,3.3-0.4,5.9,0.9,7.6c1.3,1.5,3.5,2,6.7,2l12.6-60.2H-104.3z"/>
			<path class="st2" d="M-69.3,389.2l-2.8,13.7c-0.7,3.3-0.4,5.9,0.9,7.6c1.3,1.5,3.5,2,6.7,2l5.2-24.3c0.7-3.3,0.9-7.4-0.9-10.2
				c-3.3-5.2-11.7-5-16.7-2.6c-1.7,0.9-3.5,2.2-5.2,3.9l-1.3-4.8h-7.4c0,4.1-0.7,8.5-1.7,13l-5,24.3h9.6l4.1-19.8
				c0.7-3.3,1.7-6.5,3.9-8.9c1.3-1.3,3-2.2,5-2.4c2-0.2,4.1,0.4,5,2.4C-68.9,384.5-68.9,386.4-69.3,389.2L-69.3,389.2z"/>
			<path class="st2" d="M-27.6,389.2l-2.8,13.7c-0.7,3.3-0.4,5.9,0.9,7.6c1.3,1.5,3.5,2,6.7,2l5.2-24.3c0.7-3.3,0.9-7.4-0.9-10.2
				c-3.3-5.2-11.7-5-16.7-2.6c-1.7,0.9-3.5,2.2-5.2,3.9l-1.3-4.8h-7.4c0,4.1-0.7,8.5-1.7,13l-5,24.3h9.6l4.1-19.8
				c0.7-3.3,1.7-6.5,3.9-8.9c1.3-1.3,3-2.2,5-2.4c2-0.2,4.1,0.4,5,2.4C-27.2,384.5-27,386.4-27.6,389.2L-27.6,389.2z"/>
		</g>
		<g>
			<path class="st2" d="M-362.1,351.7l-6.5,31.3c-6.1,2.2-9.6,5-8.9,9.3c3-1.5,5.4-2.4,7.6-3l-2.8,13.3c-0.7,3.3-0.4,5.9,0.9,7.6
				c1.3,1.5,3.5,2,6.7,2l5.4-25.6c6.3-2,13-3.5,20-4.6l-4.3,20.9c-0.7,3.3-0.4,5.9,0.9,7.6c1.3,1.5,3.5,2,6.7,2l12.6-60.4h-9.6
				l-4.6,22.4c-7.2,1.3-13.9,2.8-20.2,4.8l5.6-27.2h-9.6V351.7z"/>
			<path class="st2" d="M-278.1,360.8l-8.7,41.7c-0.7,3.3-0.4,5.9,0.9,7.6c1.3,1.5,3.5,2,6.7,2l10.6-51.3L-278.1,360.8L-278.1,360.8
				z"/>
			<path class="st2" d="M-260.7,374.3l-5.9,28.5c-0.7,3.3-0.4,5.9,0.9,7.6c1.3,1.5,3.5,2,6.7,2l8-37.8h-9.8V374.3z"/>
			<path class="st2" d="M-182.1,373.6c-2.6,0-4.8,0.2-7.2,0.9v6.7c1.1-0.7,2.2-1.1,3.5-1.3c2.4-0.4,5-0.2,5.4,0.7l-3.3,15.6
				c-0.7,3.3-1.7,5.4-3,7.2c-0.9,0.9-1.7,1.7-2.8,2.2v5.6c1.5-0.7,3-1.7,4.3-3.3c0.2,1.1,0.7,2,1.3,2.6c1.3,1.5,3,2,6.3,2l7.4-35.2
				C-173.8,375.1-177.7,373.8-182.1,373.6z M-189.2,374.5c-4.1,1.1-7.8,3.3-11.1,6.5c-3.5,3.7-5.9,8-7,12.6
				c-0.7,3.3-0.9,6.7-0.2,10.2c1.1,4.3,3.9,7.8,10.4,8.5c2.4,0.2,5.2-0.2,7.8-1.3v-5.6c-1.3,0.4-2.6,0.7-3.9,0.4
				c-2.2-0.4-4.1-2-4.8-4.6c-0.9-3.3-0.2-7,1.1-10.4c1.5-3.7,3.9-7.6,7.4-9.6v-6.7H-189.2z"/>
			<path class="st2" d="M-153.4,427.9c5.9-0.9,11.3-3.3,15-8.5c2-2.8,3.5-7,4.3-11.3l7.4-33.9h-9.6l-4.6,21.3
				c-1.1,3.9-2.6,6.5-4.3,8c-2.2,1.7-5.9,2.6-8.3,0.7v7.6c2-0.2,3.7-0.4,6.3-1.5c1.3-0.7,2.4-1.1,3.7-2.4l0,0
				c-0.9,3.9-2,7.8-4.1,10.6c-1.5,1.7-3.3,3.3-5.9,3.9L-153.4,427.9L-153.4,427.9z M-153.4,389.9v-15.6h3.3L-153.4,389.9z
				 M-162.5,409.2c-2.2,0.9-4.3,1.5-5.9,3c-1.7,1.5-2.8,3.5-2.8,5.6v1.1c0.2,2.6,1.5,5.2,3.9,6.7c3.3,2.4,8.3,3,13.5,2.4
				c0.2,0,0.4,0,0.7,0v-5.4c-0.2,0-0.7,0.2-0.9,0.2c-1.7,0.4-4.1,0.2-6.3-1.1c-2.8-1.5-3.3-3.9-2.4-5.9c0.7-2,3-2.6,4.8-3
				c1.1-0.2,2-0.4,2.8-0.4c0.2,0,0.2,0,0.4,0c0.4,0,1.1-0.2,1.5-0.2v-7.6c-0.2-0.2-0.2-0.2-0.4-0.4c-1.5-1.7-1.5-4.6-1.1-6.5
				l1.5-7.4v-15.6h-6.3l-5.2,23.9C-165.8,402.9-164.9,406.6-162.5,409.2z"/>
			<path class="st2" d="M-222.7,373.6c-2.4,0-4.8,0.2-7.2,0.9v6.7c1.1-0.7,2.4-1.1,3.5-1.3c2.4-0.4,5-0.2,5.4,0.7l-3.3,15.6
				c-0.7,3.3-1.7,5.4-3,7.2c-0.9,0.9-1.7,1.7-2.8,2.2v5.6c1.5-0.7,3-1.7,4.3-3.3c0.2,1.1,0.7,2,1.3,2.6c1.3,1.5,3,2,6.3,2l12.4-58.2
				h-9.6l-4.1,20.2C-220.3,373.8-221.6,373.6-222.7,373.6z M-229.8,374.3c-4.3,1.1-8.3,3.3-11.5,6.5c-3.5,3.7-5.9,7.8-7,12.6
				c-0.9,3.7-0.9,7.8,0.2,11.1c1.5,4.3,4.8,7.2,10.4,7.6c2.4,0.2,5.2-0.2,7.8-1.3v-5.6c-1.3,0.4-2.6,0.7-3.9,0.4
				c-2.2-0.4-4.1-2-4.8-4.6c-0.9-3.3-0.7-7.2,0.9-10.6c1.5-3.7,4.1-7.4,7.8-9.6V374.3z"/>
			<path class="st2" d="M-308.3,412.1c5.4-1.1,9.8-3.9,12.8-7.8c2.8-3.5,4.6-8,5.4-12.6c0.2-1.5,0.4-3,0.4-4.8
				c0-3.5-0.9-6.7-2.8-9.1c-3.7-4.1-10.2-5-15.9-3.9v6.5c0.7-0.2,1.5-0.4,2.2-0.4c2.2,0,4.8,0.9,6.1,3.9c0.9,2.2,0.7,5,0.2,7.8
				c-0.7,3.9-2.2,7.8-4.1,10.2c-1.3,1.7-2.8,3-4.3,3.7C-308.3,405.5-308.3,412.1-308.3,412.1z M-313,375.3
				c-5.6,2.4-9.8,7.2-11.9,12.8c-2.4,6.1-3.7,15.2,1.3,20.4c3.5,3.5,9.6,4.3,14.6,3.5c0.2,0,0.4,0,0.7-0.2v-6.3
				c-0.7,0.2-1.3,0.4-2,0.4c-2.2,0.2-4.3-0.7-5.6-3c-2.8-4.8,0.2-14.1,2.8-18.5c1.3-2,3-3.5,5-4.3v-6.5
				C-310,374.3-311.5,374.7-313,375.3z"/>
			<path class="st2" d="M-249.6,366.2c1.1-1.5,1.5-3,1.5-4.3c-0.2-3-3.3-4.1-6.1-3.3c-2.6,0.9-4.6,2.8-5,5.6c-0.2,1.5,0,2.8,0.9,3.7
				c1.1,1.3,3.3,1.7,5.2,0.9C-251.6,368.2-250.5,367.1-249.6,366.2z"/>
			<path class="st2" d="M-104.3,351.9l-10.6,50.6c-0.7,3.3-0.4,5.9,0.9,7.6c1.3,1.5,3.5,2,6.7,2l12.6-60.2H-104.3z"/>
			<path class="st2" d="M-69.3,389l-2.8,13.7c-0.7,3.3-0.4,5.9,0.9,7.6c1.3,1.5,3.5,2,6.7,2l5.2-24.3c0.7-3.3,0.9-7.4-0.9-10.2
				c-3.3-5.2-11.7-5-16.7-2.6c-1.7,0.9-3.5,2.2-5.2,3.9l-1.3-4.8h-7.4c0,4.1-0.7,8.5-1.7,13l-5,24.3h9.6l4.1-19.8
				c0.7-3.3,1.7-6.5,3.9-8.9c1.3-1.3,3-2.2,5-2.4c2-0.2,4.1,0.4,5,2.4C-68.9,384-68.7,386-69.3,389L-69.3,389z"/>
			<path class="st2" d="M-27.4,389l-2.8,13.7c-0.7,3.3-0.4,5.9,0.9,7.6c1.3,1.5,3.5,2,6.7,2l5.2-24.3c0.7-3.3,0.9-7.4-0.9-10.2
				c-3.3-5.2-11.7-5-16.7-2.6c-1.7,0.9-3.5,2.2-5.2,3.9l-1.3-4.8h-7.4c0,4.1-0.7,8.5-1.7,13l-5,24.3h9.6l4.1-19.8
				c0.7-3.3,1.7-6.5,3.9-8.9c1.3-1.3,3-2.2,5-2.4c2-0.2,4.1,0.4,5,2.4C-27.2,384-27,386-27.4,389L-27.4,389z"/>
		</g>
	</g>
	<g>
		<path class="st3" d="M-363,351.7l-6.5,31.3c-6.1,2.2-9.6,5-8.9,9.3c3-1.5,5.4-2.4,7.6-3l-2.8,13.3c-0.7,3.3-0.4,5.9,0.9,7.6
			c1.3,1.5,3.5,2,6.7,2l5.4-25.6c6.3-2,13-3.5,20-4.6l-4.3,20.9c-0.7,3.3-0.4,5.9,0.9,7.6c1.3,1.5,3.5,2,6.7,2l12.6-60.6h-9.6
			l-4.6,22.4c-7.2,1.3-13.9,2.8-20.2,4.8l5.6-27.2H-363z"/>
		<path class="st3" d="M-278.9,360.8l-8.7,41.7c-0.7,3.3-0.4,5.9,0.9,7.6c1.3,1.5,3.5,2,6.7,2l10.6-51.3L-278.9,360.8L-278.9,360.8z
			"/>
		<path class="st3" d="M-261.6,374.3l-5.9,28.5c-0.7,3.3-0.4,5.9,0.9,7.6c1.3,1.5,3.5,2,6.7,2l8-37.8h-9.8V374.3z"/>
		<path class="st3" d="M-182.9,373.6c-2.6,0-4.8,0.2-7.2,0.9v6.7c1.1-0.7,2.2-1.1,3.5-1.3c2.4-0.4,5-0.2,5.4,0.7l-3.3,15.6
			c-0.7,3.3-1.7,5.4-3,7.2c-0.9,0.9-1.7,1.7-2.8,2.2v5.6c1.5-0.7,3-1.7,4.3-3.3c0.2,1.1,0.7,2,1.3,2.6c1.3,1.5,3,2,6.3,2l7.4-35.2
			C-174.7,375.1-178.6,373.8-182.9,373.6z M-190.1,374.5c-4.1,1.1-7.8,3.3-11.1,6.5c-3.5,3.7-5.9,8-7,12.6
			c-0.7,3.3-0.9,6.7-0.2,10.2c1.1,4.3,3.9,7.8,10.4,8.5c2.4,0.2,5.2-0.2,7.8-1.3v-5.6c-1.3,0.4-2.6,0.7-3.9,0.4
			c-2.2-0.4-4.1-2-4.8-4.6c-0.9-3.3-0.2-7,1.1-10.4c1.5-3.7,3.9-7.6,7.4-9.6v-6.7H-190.1z"/>
		<path class="st3" d="M-154.2,427.9c5.9-0.9,11.3-3.3,15-8.5c2-2.8,3.5-7,4.3-11.3l7.4-33.9h-9.6l-4.6,21.3c-1.1,3.9-2.6,6.5-4.3,8
			c-2.2,1.7-5.9,2.6-8.3,0.7v7.6c2-0.2,3.7-0.4,6.3-1.5c1.3-0.7,2.4-1.1,3.7-2.4l0,0c-0.9,3.9-2,7.8-4.1,10.6
			c-1.5,1.7-3.3,3.3-5.9,3.9L-154.2,427.9L-154.2,427.9z M-154.2,389.9v-15.6h3.3L-154.2,389.9z M-163.4,409.2
			c-2.2,0.9-4.3,1.5-5.9,3c-1.7,1.5-2.8,3.5-2.8,5.6v1.1c0.2,2.6,1.5,5.2,3.9,6.7c3.3,2.4,8.3,3,13.5,2.4c0.2,0,0.4,0,0.7,0v-5.4
			c-0.2,0-0.7,0.2-0.9,0.2c-1.7,0.4-4.1,0.2-6.3-1.1c-2.8-1.5-3.3-3.9-2.4-5.9c0.7-2,3-2.6,4.8-3c1.1-0.2,2-0.4,2.8-0.4
			c0.2,0,0.2,0,0.4,0c0.4,0,1.1-0.2,1.5-0.2v-7.6c-0.2-0.2-0.2-0.2-0.4-0.4c-1.5-1.7-1.5-4.6-1.1-6.5l1.5-7.4v-15.6h-6.3l-5.2,23.9
			C-166.6,402.9-165.8,406.6-163.4,409.2z"/>
		<path class="st3" d="M-223.5,373.6c-2.4,0-4.8,0.2-7.2,0.9v6.7c1.1-0.7,2.4-1.1,3.5-1.3c2.4-0.4,5-0.2,5.4,0.7l-3.3,15.6
			c-0.7,3.3-1.7,5.4-3,7.2c-0.9,0.9-1.7,1.7-2.8,2.2v5.6c1.5-0.7,3-1.7,4.3-3.3c0.2,1.1,0.7,2,1.3,2.6c1.3,1.5,3,2,6.3,2l12.4-58.2
			h-9.6l-4.1,20.2C-221.2,373.8-222.5,373.6-223.5,373.6z M-230.7,374.3c-4.3,1.1-8.3,3.3-11.5,6.5c-3.5,3.7-5.9,7.8-7,12.6
			c-0.9,3.7-0.9,7.8,0.2,11.1c1.5,4.3,4.8,7.2,10.4,7.6c2.4,0.2,5.2-0.2,7.8-1.3v-5.6c-1.3,0.4-2.6,0.7-3.9,0.4
			c-2.2-0.4-4.1-2-4.8-4.6c-0.9-3.3-0.7-7.2,0.9-10.6c1.5-3.7,4.1-7.4,7.8-9.6V374.3z"/>
		<path class="st3" d="M-309.1,412.1c5.4-1.1,9.8-3.9,12.8-7.8c2.8-3.5,4.6-8,5.4-12.6c0.2-1.5,0.4-3,0.4-4.8c0-3.5-0.9-6.7-2.8-9.1
			c-3.7-4.1-10.2-5-15.9-3.9v6.5c0.7-0.2,1.5-0.4,2.2-0.4c2.2,0,4.8,0.9,6.1,3.9c0.9,2.2,0.7,5,0.2,7.8c-0.7,3.9-2.2,7.8-4.1,10.2
			c-1.3,1.7-2.8,3-4.3,3.7C-309.1,405.5-309.1,412.1-309.1,412.1z M-313.9,375.3c-5.6,2.4-9.8,7.2-11.9,12.8
			c-2.4,6.1-3.7,15.2,1.3,20.4c3.5,3.5,9.6,4.3,14.6,3.5c0.2,0,0.4,0,0.7-0.2v-6.3c-0.7,0.2-1.3,0.4-2,0.4c-2.2,0.2-4.3-0.7-5.6-3
			c-2.8-4.8,0.2-14.1,2.8-18.5c1.3-2,3-3.5,5-4.3v-6.5C-310.9,374.3-312.4,374.7-313.9,375.3z"/>
		<path class="st3" d="M-250.5,366.2c1.1-1.5,1.5-3,1.5-4.3c-0.2-3-3.3-4.1-6.1-3.3c-2.6,0.9-4.6,2.8-5,5.6c-0.2,1.5,0,2.8,0.9,3.7
			c1.1,1.3,3.3,1.7,5.2,0.9C-252.4,368.2-251.3,367.1-250.5,366.2z"/>
		<path class="st3" d="M-105.2,351.9l-10.6,50.6c-0.7,3.3-0.4,5.9,0.9,7.6c1.3,1.5,3.5,2,6.7,2l12.6-60.2H-105.2z"/>
		<path class="st3" d="M-70.2,389l-2.8,13.7c-0.7,3.3-0.4,5.9,0.9,7.6c1.3,1.5,3.5,2,6.7,2l5.2-24.3c0.7-3.3,0.9-7.4-0.9-10.2
			c-3.3-5.2-11.7-5-16.7-2.6c-1.7,0.9-3.5,2.2-5.2,3.9l-1.3-4.8h-7.4c0,4.1-0.7,8.5-1.7,13l-5,24.3h9.6l4.1-19.8
			c0.7-3.3,1.7-6.5,3.9-8.9c1.3-1.3,3-2.2,5-2.4c2-0.2,4.1,0.4,5,2.4C-69.8,384-69.5,386.2-70.2,389L-70.2,389z"/>
		<path class="st3" d="M-28.3,389l-2.8,13.7c-0.7,3.3-0.4,5.9,0.9,7.6c1.3,1.5,3.5,2,6.7,2l5.2-24.3c0.7-3.3,0.9-7.4-0.9-10.2
			c-3.3-5.2-11.7-5-16.7-2.6c-1.7,0.9-3.5,2.2-5.2,3.9l-1.3-4.8h-7.4c0,4.1-0.7,8.5-1.7,13l-5,24.3h9.6l4.1-19.8
			c0.7-3.3,1.7-6.5,3.9-8.9c1.3-1.3,3-2.2,5-2.4c2-0.2,4.1,0.4,5,2.4C-28,384-27.8,386.2-28.3,389L-28.3,389z"/>
	</g>
	<path class="st4" d="M-203.6,183.3c-6.3,13.9-11.9,29.1-16.5,45.6c2.2-0.9,4.3-2,6.5-2.8c7.4-3,14.6-5.6,21.5-7.8
		c3.5-12.4,7.6-25,12.6-35.4c5-10.2,10-11.1,21.1-8.9c-5.2,12.2-10.2,25-14.6,38.9c17.8-4.6,35.8-7.4,56-8.5v13.5
		c-23.5,1.1-43,4.3-60.4,8.9c-7.6,26.7-13.3,56.7-16.7,91c-16.3,3.3-16.7-5.9-15.4-16.1c2.6-21.1,6.5-41.7,11.7-62.3
		c0.7-2.2,1.1-4.6,1.7-7c-9.8,3.5-19.1,7.2-28,11.3c-3.9,17.2-7,36.1-8.7,56.9c-15.6,3.9-15-9.3-13.7-19.5c1.3-10,2.8-19.5,4.6-28.5
		c-8.5,4.3-16.3,8.7-24.1,13.3c-3.9-7.4,2.6-13,8.3-16.5c5-3,11.5-7,18.9-10.9c3.9-16.5,8.9-31.5,14.3-45
		C-219.8,182.7-212.9,182-203.6,183.3z"/>
	
		<linearGradient id="SVGID_2_" gradientUnits="userSpaceOnUse" x1="-187.536" y1="553.1575" x2="-174.5317" y2="525.2692" gradientTransform="matrix(1 0 0 -1 0 796)">
		<stop  offset="0" style="stop-color:#5FA82C"/>
		<stop  offset="1" style="stop-color:#FFFFFF"/>
	</linearGradient>
	<path class="st5" d="M-126.7,204.8c3.3-0.2,6.5-0.4,9.8-0.7v13.5c-23.5,1.1-43,4.3-60.4,8.9c-7.6,26.7-13.3,56.7-16.7,91
		c-16.3,3.3-16.7-5.9-15.4-16.1c2.6-21.1,6.5-41.7,11.7-62.3c0.7-2.2,1.1-4.6,1.7-7c-9.8,3.5-19.1,7.2-28,11.3
		c-3.9,17.2-7,36.1-8.7,56.9c-15.6,3.9-15-9.3-13.7-19.5c1.3-10,2.8-19.5,4.6-28.5c-8.3,4.3-16.3,8.7-23.9,13
		c15.6-18.5,77.8-49.1,137.9-60.2L-126.7,204.8z"/>
</g>
</svg>
