<?xml version="1.0" encoding="utf-8"?>
<!-- Generator: Adobe Illustrator 19.1.1, SVG Export Plug-In . SVG Version: 6.00 Build 0)  -->
<svg version="1.1" id="Capa_1" xmlns="http://www.w3.org/2000/svg" xmlns:xlink="http://www.w3.org/1999/xlink" x="0px" y="0px"
	 viewBox="-26.3 128 612 612" style="enable-background:new -26.3 128 612 612;" xml:space="preserve">
<style type="text/css">
	.st0{fill:#E4428C;}
</style>
<g>
	<g>
		<path class="st0" d="M256.6,501.5c0,2.2,1,3.3,3,3.3c1.7,0,3.6-0.8,5.7-2.3c2.1-1.6,4-3.6,5.6-6.2l1,0.5c-1.6,2.8-3.6,5.1-6.1,6.9
			s-4.9,2.7-7.2,2.7c-1.4,0-2.6-0.4-3.4-1.3c-0.8-0.9-1.3-2.1-1.3-3.6c0-2.2,0.8-4.1,2.3-5.7c1.5-1.6,3.4-2.4,5.5-2.4
			c1,0,1.9,0.2,2.5,0.7s0.9,1.2,0.9,2c0,1.4-0.9,2.6-2.6,3.6C260.9,501,258.9,501.5,256.6,501.5z M256.8,500.4
			c1.7-0.1,3.1-0.5,4.3-1.4c1.2-0.8,1.8-1.8,1.8-2.9c0-1-0.5-1.5-1.4-1.5c-1.1,0-2.1,0.5-3,1.7S256.9,498.8,256.8,500.4z"/>
		<path class="st0" d="M276.3,502.2c0.3,0.6,0.4,1.1,0.4,1.7c0,1.2-0.5,2.2-1.5,3c-1,0.9-2.2,1.3-3.6,1.3c-0.8,0-1.5-0.2-2.1-0.6
			c-0.6-0.4-0.9-0.9-0.9-1.4c0-0.6,0.4-1.2,1.2-1.8c0.8-0.6,2.1-1.3,3.9-2.2l-1-1.5c-1.2-1.8-1.8-3.2-1.8-4.2c0-1.4,0.9-2.6,2.7-3.5
			c1.1,0.4,1.6,0.9,1.6,1.5c0,0.9-0.7,1.7-2.1,2.5l1.4,2.4l1.1,1.9c1.5-0.9,2.7-1.6,3.5-2.2c0.8-0.6,1.8-1.6,3-2.9l1,0.6
			C281.3,498.9,279,500.8,276.3,502.2z M274.3,503.3c-2.4,1.2-3.5,2.1-3.5,2.8c0,0.6,0.5,0.9,1.4,0.9c0.7,0,1.3-0.2,1.7-0.7
			c0.4-0.5,0.7-1,0.7-1.8C274.5,504.1,274.4,503.7,274.3,503.3z"/>
		<path class="st0" d="M291.1,505.6l-0.9,4.2c-0.2,1-0.3,1.8-0.3,2.5c0,0.5,0.1,0.9,0.3,1.2c-0.8,0.2-1.4,0.4-1.8,0.4
			c-0.7,0-1-0.4-1-1.1c0-0.6,0.1-1.5,0.4-2.7l3.5-16.8c-0.7,0.1-1.3,0.2-1.8,0.2c-0.7,0-1.2-0.2-1.5-0.5s-0.6-0.9-0.8-1.8
			c0.6,0.4,1.5,0.6,2.7,0.6c1.5,0,2.9-0.3,4.3-0.8l-0.9,4.4c1.4-1.2,2.8-1.9,4.2-1.9c1.3,0,2.3,0.5,3.2,1.4c0.8,0.9,1.3,2.1,1.3,3.4
			c0,2.1-0.8,4-2.3,5.6c-1.6,1.6-3.4,2.3-5.6,2.3C292.8,506.3,291.9,506,291.1,505.6z M291.5,503.8c0.8,0.9,1.8,1.4,3,1.4
			c1.4,0,2.6-0.6,3.6-1.7c1-1.1,1.5-2.5,1.5-4.1c0-1.2-0.3-2.1-0.8-2.8c-0.6-0.7-1.3-1.1-2.2-1.1c-1.1,0-2.3,0.6-3.7,1.8
			L291.5,503.8z"/>
		<path class="st0" d="M314.6,499.3c-1,2-2.3,3.7-3.8,5.1c-1.5,1.4-2.8,2.1-3.9,2.1c-0.9,0-1.5-0.4-2-1.1s-0.8-1.7-0.8-2.9
			c0-2.4,0.8-4.5,2.3-6.3s3.3-2.7,5.3-2.7c1.2,0,2.5,0.4,4,1.1c0.2-0.7,1.1-1.1,2.6-1.1c0.1,0,0.2,0,0.5,0c-0.5,0.7-0.8,1.6-1.1,2.7
			l-0.2,1c-0.2,1.1-0.3,2.4-0.3,3.8c0,1.7,0.4,2.5,1.2,2.5c0.9,0,2.1-0.7,3.6-2.1c1.5-1.4,3-3.1,4.4-5.3l0.9,0.6
			c-1.5,2.5-3.2,4.6-5.1,6.3c-1.9,1.7-3.6,2.5-4.9,2.5c-1.7,0-2.6-1.4-2.6-4.1C314.6,501,314.6,500.3,314.6,499.3z M315.3,496.6
			c-1.7-1-3.1-1.6-4.2-1.6c-1.2,0-2.3,0.7-3.1,2.1c-0.9,1.4-1.3,3.1-1.3,5c0,1.5,0.5,2.3,1.6,2.3s3.4-2.4,6.6-7.2
			C314.8,497.1,314.9,496.9,315.3,496.6z"/>
		<path class="st0" d="M327.3,506.2c-0.6,0.2-1,0.4-1.3,0.4c-0.8,0-1.2-0.4-1.2-1c0-0.3,0.2-1.2,0.4-2.6l0.6-2.8
			c0.4-1.7,0.6-3,0.6-3.8c0-0.4-0.1-0.8-0.4-1.1c0.8-0.3,1.5-0.4,2.1-0.4s0.9,0.3,0.9,1c0,0.4-0.2,1.5-0.6,3.3l-0.7,3.3
			c1.5-2.8,3-5,4.6-6.5c1.5-1.5,2.9-2.3,4.2-2.3c0.4,0,0.8,0.1,1.2,0.4c0.3,0.2,0.5,0.5,0.5,0.9c0,0.5-0.6,1.2-1.8,2.1
			c-0.3-0.6-0.7-0.9-1.3-0.9c-1,0-2.3,1-3.9,3.1c-1,1.3-1.8,2.6-2.5,4c-0.7,1.4-1.1,2.3-1.1,2.9H327.3z"/>
		<path class="st0" d="M347.3,501.7c0.2,0.4,0.3,0.7,0.3,1c0,0.7-0.7,1.6-2,2.5c-1.3,0.9-2.6,1.4-3.6,1.4s-1.8-0.4-2.4-1.2
			c-0.6-0.8-0.9-1.9-0.9-3.2c0-1.4,0.4-3.5,1.2-6.1l0.6-1.9h-2c-0.9,0-1.5,0.1-2,0.4c0.5-0.8,0.9-1.3,1.2-1.5
			c0.3-0.2,0.8-0.3,1.6-0.3h1.8l0.2-0.8c0.4-1.2,0.8-2,1.3-2.4c0.5-0.4,1.3-0.7,2.3-0.7c0.1,0,0.3,0,0.6,0c-0.6,0.8-1.3,2-2,3.9h6.4
			c1.1,0,2-0.1,2.5-0.4c-0.2,0.8-0.5,1.3-0.8,1.5s-1,0.4-1.9,0.4h-6.8c-0.1,0.3-0.2,0.4-0.2,0.6c-1,3.1-1.5,5.5-1.5,7.1
			c0,1.8,0.7,2.6,2,2.6c0.7,0,1.4-0.3,2.3-0.8C346.3,503.1,346.8,502.4,347.3,501.7z"/>
		<path class="st0" d="M351.8,501.5c0,2.2,1,3.3,3,3.3c1.7,0,3.6-0.8,5.7-2.3c2.1-1.6,4-3.6,5.6-6.2l1,0.5c-1.6,2.8-3.6,5.1-6.1,6.9
			s-4.9,2.7-7.1,2.7c-1.4,0-2.6-0.4-3.4-1.3c-0.8-0.9-1.3-2.1-1.3-3.6c0-2.2,0.8-4.1,2.3-5.7c1.5-1.6,3.4-2.4,5.5-2.4
			c1,0,1.9,0.2,2.5,0.7s0.9,1.2,0.9,2c0,1.4-0.9,2.6-2.6,3.6C356,501,354,501.5,351.8,501.5z M351.8,500.4c1.7-0.1,3.1-0.5,4.3-1.4
			c1.2-0.8,1.8-1.8,1.8-2.9c0-1-0.5-1.5-1.4-1.5c-1.1,0-2.1,0.5-3,1.7C352.6,497.5,352,498.8,351.8,500.4z"/>
		<path class="st0" d="M383.1,499.6c-1.2,2.2-2.6,3.8-3.9,5.1c-1.4,1.3-2.6,1.9-3.7,1.9c-0.9,0-1.5-0.4-2-1.1s-0.8-1.7-0.8-2.9
			c0-2.4,0.8-4.5,2.3-6.3s3.3-2.7,5.3-2.7c1.2,0,2.5,0.4,3.9,1.1l1.3-6.2c-0.7,0.1-1.3,0.2-1.8,0.2c-0.7,0-1.2-0.2-1.5-0.5
			s-0.6-0.9-0.8-1.8c0.6,0.4,1.5,0.6,2.7,0.6c1.5,0,2.9-0.3,4.3-0.8l-2.6,12.5c-0.3,1.4-0.4,2.6-0.4,3.6c0,1.3,0.4,2,1.2,2
			c0.8,0,2.1-0.9,3.8-2.6c1.8-1.7,3.3-3.5,4.5-5.4l1,0.6c-1.4,2.5-3.2,4.7-5.3,6.7c-2.1,2-3.8,2.9-5.1,2.9c-1.6,0-2.4-1.2-2.4-3.7
			C382.8,501.8,382.9,500.7,383.1,499.6z M383.8,496.6c-1.7-1-3.1-1.6-4.2-1.6c-1.2,0-2.3,0.7-3.1,2.1c-0.9,1.4-1.3,3.1-1.3,5
			c0,1.5,0.5,2.3,1.6,2.3s3.3-2.4,6.6-7.2C383.3,497.1,383.5,496.9,383.8,496.6z"/>
		<path class="st0" d="M395.3,501.5c0,2.2,1,3.3,3,3.3c1.7,0,3.6-0.8,5.7-2.3c2.1-1.6,4-3.6,5.6-6.2l1,0.5c-1.6,2.8-3.6,5.1-6.1,6.9
			s-4.9,2.7-7.2,2.7c-1.4,0-2.6-0.4-3.4-1.3c-0.8-0.9-1.3-2.1-1.3-3.6c0-2.2,0.8-4.1,2.3-5.7c1.5-1.6,3.4-2.4,5.5-2.4
			c1,0,1.9,0.2,2.5,0.7s0.9,1.2,0.9,2c0,1.4-0.9,2.6-2.6,3.6C399.4,501,397.4,501.5,395.3,501.5z M395.3,500.4
			c1.7-0.1,3.1-0.5,4.3-1.4c1.2-0.8,1.8-1.8,1.8-2.9c0-1-0.4-1.5-1.4-1.5c-1.1,0-2.1,0.5-3,1.7C396.1,497.5,395.5,498.8,395.3,500.4
			z"/>
		<path class="st0" d="M420.4,502.2c2.9-5.8,5.5-8.7,7.7-8.7c1,0,1.4,0.7,1.4,2c0,0.6-0.2,1.9-0.6,3.9l-0.7,3.5
			c1.4-2.8,2.9-5.1,4.4-6.8s2.8-2.6,4-2.6s1.8,0.7,1.8,2c0,0.5-0.2,1.6-0.5,3.3l-0.4,1.8c-0.2,1.1-0.3,1.9-0.3,2.4
			c0,0.9,0.3,1.4,1,1.4c1.5,0,3.9-2.7,7.1-8.2l1,0.5c-3.5,6.4-6.5,9.7-9.1,9.7c-1.7,0-2.5-1-2.5-3.1c0-0.7,0.2-1.8,0.5-3.3l0.3-1.6
			c0.2-1.1,0.3-1.7,0.3-2s-0.2-0.5-0.5-0.5c-0.9,0-2.4,1.6-4.7,4.9c-2,3-3,4.7-3,5.1c0,0,0,0.1,0,0.2c-0.1,0-0.3,0.1-0.6,0.1
			c-0.1,0-0.3,0.1-0.5,0.1c-0.7,0-1.1-0.3-1.1-1c0-0.2,0.1-0.8,0.4-1.9c0.1-0.4,0.2-0.8,0.2-1.2l0.5-2.4c0.4-1.7,0.5-2.8,0.5-3.1
			c0-0.5-0.2-0.8-0.6-0.8c-0.9,0-2.1,1.5-3.8,4.4c-1.7,2.9-2.5,4.7-2.5,5.2c0,0.2,0.1,0.3,0.2,0.5c-0.4,0.2-0.8,0.3-1.2,0.3
			c-0.8,0-1.3-0.4-1.3-1.3c0-0.1,0.1-1.2,0.4-3.3l0.3-2.4c0.1-0.9,0.2-1.6,0.2-2.4c0-0.9-0.2-1.6-0.6-2c0.9-0.3,1.6-0.5,2-0.5
			c0.7,0,1.1,0.4,1.1,1.2c0,0.3-0.1,1.3-0.3,3.1L420.4,502.2z"/>
		<path class="st0" d="M457.6,496.9c-1.8,3-3.6,5.4-5.5,7.1c-1.8,1.7-3.5,2.6-5,2.6c-0.9,0-1.6-0.3-2.2-0.8
			c-0.5-0.6-0.8-1.3-0.8-2.2c0-0.3,0.1-0.9,0.2-1.6l0.3-1.3c0.4-1.8,0.6-3.1,0.6-3.8c0-0.4-0.2-0.8-0.4-1.1c1.1-0.2,1.7-0.3,2-0.3
			c0.6,0,0.9,0.4,0.9,1.2c0,0.6-0.1,1.4-0.4,2.5l-0.5,2.2c-0.2,1.1-0.4,1.8-0.4,2.1c0,0.9,0.4,1.4,1.3,1.4c1,0,2.3-0.8,4-2.4
			c1.7-1.6,3.3-3.6,4.8-6.1L457.6,496.9z M446.9,491.2h0.2c0.5,0,1.3-0.3,2.3-0.8s1.8-1,2.4-1.5c-0.4,1.1-1,1.9-1.9,2.6
			c-1.4,1.1-2.3,1.6-2.8,1.6c-0.3,0-0.5-0.2-0.5-0.6S446.8,491.6,446.9,491.2z"/>
		<path class="st0" d="M466.9,506.6c0.2-0.7,0.3-1.2,0.3-1.7c0-1.9-0.4-4-1.3-6.2c-0.9-2.3-1.8-4-3-5.2c0.7-0.3,1.3-0.5,1.9-0.5
			c0.9,0,1.8,1.1,2.7,3.3c0.9,2.2,1.6,4.9,1.9,8c1.4-1.7,2.6-3.4,3.5-5.2c0.9-1.8,1.4-3.3,1.6-4.7c1.2,0.5,1.8,1,1.8,1.6
			c0,0.5-0.6,1.7-1.7,3.5s-2.4,3.6-3.7,5.2c-0.7,0.8-1.2,1.3-1.7,1.5C468.8,506.3,467.9,506.5,466.9,506.6z"/>
		<path class="st0" d="M492.1,496.9c-1.8,3-3.6,5.4-5.5,7.1c-1.9,1.7-3.5,2.6-5,2.6c-0.9,0-1.6-0.3-2.2-0.8
			c-0.5-0.6-0.8-1.3-0.8-2.2c0-0.3,0.1-0.9,0.2-1.6l0.3-1.3c0.4-1.8,0.6-3.1,0.6-3.8c0-0.4-0.1-0.8-0.4-1.1c1-0.2,1.7-0.3,2-0.3
			c0.6,0,0.9,0.4,0.9,1.2c0,0.6-0.1,1.4-0.4,2.5l-0.5,2.2c-0.2,1.1-0.4,1.8-0.4,2.1c0,0.9,0.4,1.4,1.3,1.4c1,0,2.3-0.8,4-2.4
			c1.7-1.6,3.3-3.6,4.8-6.1L492.1,496.9z M481.3,491.2h0.2c0.5,0,1.3-0.3,2.3-0.8s1.8-1,2.4-1.5c-0.3,1.1-1,1.9-1.9,2.6
			c-1.4,1.1-2.3,1.6-2.8,1.6c-0.3,0-0.5-0.2-0.5-0.6C481.1,492.1,481.1,491.6,481.3,491.2z"/>
		<path class="st0" d="M499.3,499.6c-1.3,2.2-2.6,3.8-3.9,5.1c-1.4,1.3-2.6,1.9-3.7,1.9c-0.9,0-1.6-0.4-2.1-1.1s-0.8-1.7-0.8-2.9
			c0-2.4,0.8-4.5,2.3-6.3s3.3-2.7,5.3-2.7c1.2,0,2.5,0.4,3.9,1.1l1.3-6.2c-0.7,0.1-1.3,0.2-1.8,0.2c-0.7,0-1.2-0.2-1.5-0.5
			s-0.6-0.9-0.8-1.8c0.6,0.4,1.5,0.6,2.7,0.6c1.5,0,2.9-0.3,4.3-0.8l-2.6,12.5c-0.3,1.4-0.4,2.6-0.4,3.6c0,1.3,0.4,2,1.2,2
			s2.1-0.9,3.8-2.6c1.8-1.7,3.3-3.5,4.5-5.4l1,0.6c-1.4,2.5-3.2,4.7-5.4,6.7c-2.1,2-3.8,2.9-5.1,2.9c-1.6,0-2.4-1.2-2.4-3.7
			C499,501.8,499.1,500.7,499.3,499.6z M500,496.6c-1.7-1-3.1-1.6-4.2-1.6c-1.2,0-2.3,0.7-3.1,2.1c-0.9,1.4-1.3,3.1-1.3,5
			c0,1.5,0.5,2.3,1.6,2.3s3.3-2.4,6.6-7.2C499.6,497.1,499.8,496.9,500,496.6z"/>
		<path class="st0" d="M519.3,499.3c-1,2-2.3,3.7-3.8,5.1c-1.5,1.4-2.8,2.1-3.9,2.1c-0.9,0-1.5-0.4-2-1.1s-0.8-1.7-0.8-2.9
			c0-2.4,0.8-4.5,2.3-6.3s3.3-2.7,5.3-2.7c1.2,0,2.5,0.4,4,1.1c0.2-0.7,1.1-1.1,2.6-1.1c0.1,0,0.2,0,0.5,0c-0.5,0.7-0.8,1.6-1.1,2.7
			l-0.2,1c-0.2,1.1-0.3,2.4-0.3,3.8c0,1.7,0.4,2.5,1.2,2.5c0.9,0,2.1-0.7,3.6-2.1c1.5-1.4,3-3.1,4.4-5.3l0.9,0.6
			c-1.5,2.5-3.2,4.6-5.1,6.3c-1.9,1.7-3.6,2.5-4.9,2.5c-1.7,0-2.6-1.4-2.6-4.1C519.3,501,519.3,500.3,519.3,499.3z M520,496.6
			c-1.7-1-3.1-1.6-4.2-1.6c-1.2,0-2.3,0.7-3.1,2.1c-0.9,1.4-1.3,3.1-1.3,5c0,1.5,0.5,2.3,1.6,2.3s3.4-2.4,6.6-7.2
			C519.5,497.1,519.6,496.9,520,496.6z"/>
	</g>
	<g>
		<path class="st0" d="M6.3,354.2h8.8v90.1c0,0,0,6.5,5.8,6.5c5.4,0,47.3,0,47.3,0v9.8H16.8c0,0-10.5,0-10.5-11.6
			S6.3,354.2,6.3,354.2L6.3,354.2L6.3,354.2z"/>
		<path class="st0" d="M18.5,354.2h8.8v77.2c0,0-0.6,6,5.1,6c28.3,0,35.9,0,35.9,0v9.7H23.6c0,0-5.2-0.4-5.2-5.7
			C18.5,437.6,18.5,354.2,18.5,354.2L18.5,354.2L18.5,354.2z"/>
		<path class="st0" d="M30.6,354.2h8.8v65.3c0,0-0.5,4.4,3.7,4.4c7.5,0,25.2,0,25.2,0v9.7h-34c0,0-3.8-0.7-3.8-5.3
			C30.6,424.3,30.6,354.2,30.6,354.2L30.6,354.2L30.6,354.2z"/>
		<path class="st0" d="M42.7,354.2h8.8v52.7c0,0-0.6,3.7,3.3,3.7c9.9,0,13.4,0,13.4,0v9.7H47.8c-3.6,0-5.1-1.1-5.1-4.8
			C42.7,411.5,42.7,354.2,42.7,354.2L42.7,354.2L42.7,354.2z"/>
		<path class="st0" d="M116.7,460.4h-8.8v-90.1c0,0,0-6.5-5.8-6.5c-5.4,0-47.3,0-47.3,0v-9.7h51.5c0,0,10.5,0,10.5,11.6
			C116.7,377.2,116.7,460.4,116.7,460.4L116.7,460.4L116.7,460.4z"/>
		<path class="st0" d="M104.5,460.4h-8.8v-77.2c0,0,0.6-6-5.1-6c-28.3,0-35.8,0-35.8,0v-9.6h44.6c0,0,5.2,0.4,5.2,5.7
			C104.5,377,104.5,460.4,104.5,460.4L104.5,460.4L104.5,460.4z"/>
		<path class="st0" d="M92.4,460.4h-8.8v-65.3c0,0,0.5-4.4-3.7-4.4c-7.5,0-25.2,0-25.2,0V381h33.9c0,0,3.8,0.8,3.8,5.3
			C92.5,390.3,92.4,460.4,92.4,460.4L92.4,460.4L92.4,460.4z"/>
		<path class="st0" d="M80.3,460.4h-8.8v-52.7c0,0,0.5-3.7-3.3-3.7c-10,0-13.4,0-13.4,0v-9.7h20.4c3.6,0,5.1,1.1,5.1,4.8
			C80.3,403.1,80.3,460.4,80.3,460.4L80.3,460.4L80.3,460.4z"/>
		<polygon class="st0" points="206.2,376.1 215.3,376.1 215.3,386.3 206.2,386.3 		"/>
		<polygon class="st0" points="206.2,398.2 215.3,398.2 215.3,460.5 206.2,460.5 		"/>
		<polygon class="st0" points="525.6,376 534.6,376 534.6,460.5 525.6,460.5 		"/>
		<polygon class="st0" points="265.5,398.2 247.3,448.4 229.2,398.2 218.9,398.2 241.4,460.5 253.3,460.5 275.8,398.2 		"/>
		<path class="st0" d="M180.8,450.6c-3,0-5.3-2.7-5.3-6v-68.5h-9v70.1c0,7.9,5.7,14.2,12.9,14.2H203v-9.8H180.8L180.8,450.6z"/>
		<path class="st0" d="M351.8,408.3c-3,0-5.3,2.7-5.3,6v46.4h-9v-48.1c0-7.8,5.7-14.2,12.9-14.2h9.5v9.8L351.8,408.3L351.8,408.3z"
			/>
		<path class="st0" d="M332.6,430.1v-1.9c0-18-13.4-32.6-29.8-32.6s-29.8,14.6-29.8,32.6c0,17.9,13.3,32.5,29.8,32.5
			c13.9,0,25.7-10.2,28.9-24.8H323c-3,9.4-11.1,15.7-20.2,15.7c-11.1,0-20.3-9.1-21.3-21.5H332.6L332.6,430.1z M282.5,420.9
			c3-9.9,11.3-16.2,20.4-16.2s17.4,6.3,20.4,16.2H282.5L282.5,420.9z"/>
		<path class="st0" d="M491,395.3c-10.8,0-20.3,6.3-25.6,15.6c-5.3-9.4-14.8-15.6-25.6-15.6c-10.8,0-20.3,6.3-25.6,15.6
			c-5.3-9.4-14.8-15.6-25.6-15.6c-16.6,0-30.1,14.7-30.1,32.9c0,0.7,0,53.5,0,53.5h9.1v-29.9c5.4,5.8,12.8,9.3,21,9.3
			c10.8,0,20.3-6.3,25.6-15.6c5.3,9.4,14.8,15.6,25.6,15.6c10.8,0,20.3-6.3,25.6-15.6c5.3,9.4,14.8,15.6,25.6,15.6
			c16.6,0,30.1-14.7,30.1-32.9S507.8,395.3,491,395.3L491,395.3z M388.6,451.2c-11.6,0-21.1-10.3-21.1-23.1
			c0-12.7,9.5-23.1,21.1-23.1s21.1,10.3,21.1,23.1C409.8,440.9,400.3,451.2,388.6,451.2L388.6,451.2z M439.8,451.2
			c-11.6,0-21.1-10.3-21.1-23.1c0-12.7,9.5-23.1,21.1-23.1s21.1,10.3,21.1,23.1C460.9,440.9,451.5,451.2,439.8,451.2L439.8,451.2z
			 M491,451.2c-11.6,0-21.1-10.3-21.1-23.1c0-12.7,9.5-23.1,21.1-23.1c11.6,0,21.1,10.3,21.1,23.1
			C512.3,440.9,502.8,451.2,491,451.2L491,451.2z"/>
		<path class="st0" d="M545.8,390.8c-4,0-7.2-3.5-7.2-7.9c0-4.3,3.2-7.9,7.2-7.9s7.2,3.5,7.2,7.9S549.8,390.8,545.8,390.8
			L545.8,390.8z M545.8,376.4c-3.3,0-6,2.9-6,6.5s2.7,6.6,6,6.6s6-3,6-6.6S549.1,376.4,545.8,376.4L545.8,376.4z M542.6,378.8h3.4
			c1.9,0,2.6,1.3,2.6,2.2c0,1.4-0.9,2.4-2.2,2.4l0,0c0.7,0.3,1.2,1,1.8,2.1l0.9,1.6h-1.5l-0.7-1.3c-1-1.9-1.3-2.3-2.3-2.3h-0.7v3.6
			h-1.2L542.6,378.8L542.6,378.8z M545.8,382.5c1,0,1.6-0.4,1.6-1.3c0-0.8-0.6-1.2-1.4-1.2h-2v2.5H545.8L545.8,382.5z"/>
	</g>
	<path class="st0" d="M539,494.3c-1.9,0-3.5-1.7-3.5-3.9c0-2.1,1.6-3.9,3.5-3.9c2,0,3.6,1.7,3.6,3.9
		C542.6,492.6,541,494.3,539,494.3L539,494.3z M539,487.2c-1.6,0-2.9,1.4-2.9,3.2c0,1.8,1.3,3.2,2.9,3.2c1.6,0,3-1.5,3-3.2
		S540.8,487.2,539,487.2L539,487.2z M537.5,488.4h1.7c1,0,1.3,0.7,1.3,1.1c0,0.7-0.4,1.2-1.1,1.2l0,0c0.3,0.1,0.6,0.5,0.9,1l0.5,0.8
		h-0.7l-0.3-0.7c-0.5-0.9-0.7-1.1-1.1-1.1h-0.4v1.8h-0.6v-4.1H537.5z M539,490.3c0.5,0,0.8-0.2,0.8-0.6c0-0.4-0.3-0.6-0.7-0.6h-1
		v1.3L539,490.3L539,490.3z"/>
</g>
</svg>
