<?xml version="1.0" encoding="utf-8"?>
<!-- Generator: Adobe Illustrator 19.1.1, SVG Export Plug-In . SVG Version: 6.00 Build 0)  -->
<svg version="1.1" id="Layer_1" xmlns="http://www.w3.org/2000/svg" xmlns:xlink="http://www.w3.org/1999/xlink" x="0px" y="0px"
	 viewBox="0 0 72.6 73.5" style="enable-background:new 0 0 72.6 73.5;" xml:space="preserve">
<style type="text/css">
	.st0{fill:#2267AD;}
</style>
<g id="XMLID_19_">
	<path id="XMLID_23_" class="st0" d="M30.6,39c-1.3,0-2.5,0-3.7,0c0-3,0-5.9,0-8.9c1.2,0,2.3,0,3.6,0c0-0.5,0-1,0-1.4
		c0.1-1.4,0.1-2.8,0.4-4.1c0.8-3.5,3.2-5.7,6.8-6c2.8-0.2,5.6,0,8.5,0c0,2.8,0,5.8,0,8.8c-1.3,0-2.5,0-3.8,0c-2,0-1.7-0.2-1.7,1.7
		c0,0.3,0,0.6,0,0.9c1.9,0,3.8,0,5.7,0c-0.1,1.4-0.3,2.7-0.4,3.9c-0.1,1.4-0.4,2.7-0.4,4.1c0,0.9-0.4,1.1-1.1,1
		c-1.2-0.1-2.4,0-3.7,0c0,5.9,0,11.8,0,17.7c-3.4,0-6.7,0-10.2,0C30.6,50.9,30.6,45,30.6,39z"/>
	<path id="XMLID_20_" class="st0" d="M36.8,1.6c0,0-0.1,0-0.1,0c-9.6,0-18.6,3.7-25.4,10.5C4.4,18.9,0.7,27.9,0.6,37.6
		c0,9.6,3.7,18.6,10.5,25.4c6.8,6.8,15.8,10.6,25.4,10.6c0,0,0,0,0.1,0c19.8,0,35.9-16.1,35.9-35.9c0-9.5-3.7-18.6-10.5-25.4
		C55.3,5.4,46.3,1.7,36.8,1.6z M36.6,6.4L36.6,6.4c17.1,0,31.1,14,31.1,31.1c0,8.2-3.2,16-9.1,21.9c-5.9,5.9-13.6,9.2-21.9,9.2
		c0,0-0.1,0-0.1,0c-8.3,0-16.2-3.2-22.1-9.1c-5.9-5.9-9.1-13.7-9.2-22c0-8.3,3.2-16.2,9.1-22.1C20.5,9.7,28.3,6.4,36.6,6.4z"/>
</g>
</svg>
