<?xml version="1.0" encoding="utf-8"?>
<!-- Generator: Adobe Illustrator 19.1.1, SVG Export Plug-In . SVG Version: 6.00 Build 0)  -->
<svg version="1.1" id="Layer_1" xmlns="http://www.w3.org/2000/svg" xmlns:xlink="http://www.w3.org/1999/xlink" x="0px" y="0px"
	 viewBox="0 0 69.3 73.5" style="enable-background:new 0 0 69.3 73.5;" xml:space="preserve">
<style type="text/css">
	.st0{fill:#783B97;}
</style>
<g id="XMLID_25_">
	<path id="XMLID_30_" class="st0" d="M0,37.5c0-5.2,0-10.4,0-15.6C0,12.3,6.9,4.3,16.4,2.8c1-0.1,1.9-0.2,2.9-0.2
		c10.4,0,20.9,0,31.3,0c9.8,0,17.9,7.2,19.1,16.9c0.1,0.7,0.1,1.4,0.1,2.2c0,10.6,0,21.2,0,31.8c0,9.7-7.5,18-17.1,18.9
		c-0.9,0.1-1.7,0.1-2.6,0.1c-10.3,0-20.6,0-30.8,0c-9.5,0-17.5-6.8-19.1-16.2c-0.2-1-0.2-2-0.2-3C0,48.1,0,42.8,0,37.5z M35,7.8
		c-5.2,0-10.4,0-15.5,0C11.4,7.9,5.2,14,5.2,22.1c0,10.4,0,20.7,0,31.1c0,0.9,0.1,1.8,0.2,2.6c1.3,6.8,6.9,11.5,13.9,11.5
		c10.4,0,20.8,0,31.2,0c8,0,14.1-6.2,14.1-14.2c0-10.4,0-20.7,0-31.1c0-0.9-0.1-1.8-0.3-2.7c-1.4-6.9-7-11.4-14-11.4
		C45.3,7.8,40.1,7.8,35,7.8z"/>
	<path id="XMLID_27_" class="st0" d="M53.6,37.6c0,10.3-8.4,18.6-18.6,18.6c-10.3,0-18.7-8.4-18.7-18.7c0-10.3,8.5-18.6,18.7-18.6
		C45.2,19,53.6,27.4,53.6,37.6z M34.9,51c7.4,0,13.4-6,13.4-13.4c0-7.3-6-13.4-13.4-13.4c-7.4,0-13.5,6-13.5,13.4
		C21.5,44.9,27.5,51,34.9,51z"/>
	<path id="XMLID_7_" class="st0" d="M57.9,18.2c0,2-1.6,3.7-3.6,3.7c-2,0-3.6-1.7-3.6-3.7c0-2,1.6-3.6,3.6-3.6
		C56.3,14.5,57.9,16.2,57.9,18.2z"/>
</g>
</svg>
