<?xml version="1.0" encoding="utf-8"?>
<!-- Generator: Adobe Illustrator 19.1.1, SVG Export Plug-In . SVG Version: 6.00 Build 0)  -->
<svg version="1.1" id="Layer_1" xmlns="http://www.w3.org/2000/svg" xmlns:xlink="http://www.w3.org/1999/xlink" x="0px" y="0px"
	 viewBox="-91.4 209 444 440" style="enable-background:new -91.4 209 444 440;" xml:space="preserve">
<style type="text/css">
	.st0{fill:#565656;}
</style>
<path class="st0" d="M81.1,392.1c-0.6-2.5-1.1-4-1.9-4.9c-0.8-0.9-2.1-1.1-4.1-1.1h-2.3v23.8c0,4.1,0.4,4.5,4.3,4.8v1.7H62.2v-1.7
	c3.8-0.3,4.2-0.7,4.2-4.8v-23.8h-1.8c-2.8,0-3.8,0.4-4.6,1.3c-0.7,0.9-1.2,2.5-1.8,4.7h-1.7c0.2-3.3,0.5-6.8,0.6-9.3h1.2
	c0.8,1,1.3,1.3,2.7,1.3h17.4c1.2,0,1.8-0.3,2.6-1.3h1.2c0.1,2.1,0.3,6.1,0.5,9.1L81.1,392.1z"/>
<path class="st0" d="M98.7,411.7c-2.7,4.1-6.3,5.2-8.4,5.2c-6.3,0-9.9-5-9.9-10.7c0-4.2,1.8-7.4,3.5-9.2c1.9-2,4.5-3.5,7.3-3.5
	c4.5,0,7.7,4,7.7,8.1c0,1.1-0.2,1.7-1.4,1.9c-0.7,0.2-6.6,0.6-11.3,0.8c0.2,5.4,3,8.2,6.3,8.2c2.1,0,3.6-0.7,5.2-2.1L98.7,411.7z
	 M86.6,402c2,0,3.7-0.1,5.5-0.2c0.8,0,1.1-0.3,1.1-1.2c0-2.5-1-5.2-2.8-5.2C88.6,395.5,86.8,398.2,86.6,402z"/>
<path class="st0" d="M119.6,411.8c-2.1,3-5,5.2-8,5.2c-6.4,0-10-5.2-10-10.7c0-3.6,1.8-7.2,5-9.7c2.7-2.1,5.6-3,7.6-3
	c1.7,0,3.2,0.6,4,1.2c0.8,0.6,1,1.2,1,1.8c0,1.6-1.4,2.8-2.1,2.8c-0.3,0-0.6-0.2-1.1-0.6c-1.8-1.8-3.2-2.7-4.5-2.7
	c-2.2,0-3.8,2.7-3.8,7.6c0,6.8,4,8.8,6.1,8.8c2,0,3.3-0.6,5-2L119.6,411.8z"/>
<path class="st0" d="M134,416.3v-1.6c2-0.3,2.3-0.4,2.3-3.6V402c0-3.5-1.4-4.6-3.1-4.6c-1.3,0-2.2,0.5-3.4,1.5v12.5
	c0,3,0.3,3.2,2.2,3.5v1.6h-11.4v-1.6c2.8-0.3,3.1-0.4,3.1-3.6v-11c0-3-0.2-3.2-2.4-3.7v-1.3c3.1-0.4,6-1.1,8.5-1.9v3.6
	c1-0.7,1.9-1.4,2.8-2.1c1.3-0.9,2.3-1.4,3.8-1.4c3.9,0,6,3.1,6,7.7v10c0,3.2,0.3,3.3,2.6,3.6v1.6L134,416.3L134,416.3z"/>
<path class="st0" d="M168.5,404.8c0,8.1-5.2,12.2-10.7,12.2c-7.3,0-10.8-5.8-10.8-11.2c0-8.3,5.9-12.2,11-12.2
	C164.5,393.5,168.5,398.8,168.5,404.8z M153.8,404c0,6.3,1.6,11.1,4.5,11.1c1.7,0,3.5-1.4,3.5-8.8c0-6.7-1.6-10.8-4.4-10.8
	C155.5,395.5,153.8,398.2,153.8,404z"/>
<path class="st0" d="M170,416.3v-1.6c2.8-0.4,3-0.7,3-3.9v-22.6c0-3-0.1-3.2-2.8-3.6v-1.4c2.7-0.3,6.1-1,8.9-1.7v29.4
	c0,3.4,0.3,3.6,3,3.9v1.6L170,416.3L170,416.3z"/>
<path class="st0" d="M205.2,404.8c0,8.1-5.2,12.2-10.7,12.2c-7.3,0-10.8-5.8-10.8-11.2c0-8.3,5.9-12.2,11-12.2
	C201.2,393.5,205.2,398.8,205.2,404.8z M190.5,404c0,6.3,1.6,11.1,4.5,11.1c1.7,0,3.5-1.4,3.5-8.8c0-6.7-1.6-10.8-4.4-10.8
	C192.1,395.5,190.5,398.2,190.5,404z M192.7,391.2c0.8-2.3,2.3-6.9,2.6-7.9c0.7-0.4,4.1-0.8,5.2-0.6l0.3,0.5l-6.3,8.6L192.7,391.2z"
	/>
<path class="st0" d="M229.5,394.7c-0.3,1-1.1,2.3-1.8,2.9l-2.8-0.2c0.9,1.1,1.3,2.3,1.3,3.9c0,5.1-4.2,7.6-8.9,7.6
	c-0.4,0-1.1-0.1-2.1-0.2c-0.5,0.4-0.8,1-0.8,1.5c0,0.8,0.8,1.9,2.8,1.9c1.6,0,3-0.1,4.5-0.1c3.7,0,7.2,1.5,7.2,5.9
	c0,5.4-6,10-12.7,10c-6.1,0-8.9-3.2-8.9-6c0-1,0.4-1.7,1.4-2.5c1.1-0.9,2.7-1.9,3.7-2.6c-1.8-0.8-2.9-2-3.5-2.9
	c-0.4-0.8-0.7-1.7-0.6-2.5c2.6-1.1,4.2-2.4,5-3.3c-2.9-1-4.8-3.5-4.8-6.6c0-5.5,4.7-8.2,9.1-8.2c2.2,0,3.6,0.5,5.2,1.4
	c2.3-0.1,4.4-0.4,6.3-0.6L229.5,394.7z M213.6,418.3c-0.6,0.7-1,1.4-1,2.4c0,2.6,2.7,4.8,6.2,4.8c3.7,0,5.7-2.1,5.7-4.6
	c0-1.8-1.1-2.7-2.6-3.1c-1.2-0.4-2.4-0.5-4.2-0.5C215.2,417.3,214.2,417.5,213.6,418.3z M214.7,400.9c0,3.8,1.2,6.3,3.2,6.3
	c1.7-0.1,2.7-1.9,2.7-5.5s-1.1-6.3-3.2-6.3C215.9,395.4,214.7,397.2,214.7,400.9z"/>
<path class="st0" d="M230.5,416.3v-1.6c2.6-0.3,2.9-0.5,2.9-3.9v-10.3c0-3.1-0.3-3.2-2.6-3.7v-1.4c2.8-0.4,5.9-1.1,8.7-1.9v17.3
	c0,3.4,0.3,3.6,3,3.9v1.6H230.5z M232.8,387.3c0-2,1.6-3.5,3.4-3.5c1.9,0,3.4,1.5,3.4,3.5c0,1.9-1.5,3.5-3.4,3.5
	C234.3,390.7,232.8,389.2,232.8,387.3z"/>
<path class="st0" d="M262.1,411.8c-2.1,3-5,5.2-8,5.2c-6.4,0-10-5.2-10-10.7c0-3.6,1.8-7.2,5-9.7c2.7-2.1,5.6-3,7.6-3
	c1.7,0,3.2,0.6,4,1.2c0.8,0.6,1,1.2,1,1.8c0,1.6-1.4,2.8-2.1,2.8c-0.3,0-0.6-0.2-1.1-0.6c-1.8-1.8-3.2-2.7-4.5-2.7
	c-2.2,0-3.8,2.7-3.8,7.6c0,6.8,4,8.8,6.1,8.8c2,0,3.3-0.6,5-2L262.1,411.8z"/>
<path class="st0" d="M285.1,404.8c0,8.1-5.2,12.2-10.7,12.2c-7.3,0-10.8-5.8-10.8-11.2c0-8.3,5.9-12.2,11-12.2
	C281.1,393.5,285.1,398.8,285.1,404.8z M270.4,404c0,6.3,1.6,11.1,4.5,11.1c1.7,0,3.5-1.4,3.5-8.8c0-6.7-1.6-10.8-4.4-10.8
	C272.1,395.5,270.4,398.2,270.4,404z"/>
<path class="st0" d="M80.8,459.2c-1.4,0.2-5.7,0.8-9.2,1.9v-2.7l-2.5,1.7c-1.2,0.8-2,1-2.7,1c-4.1,0-9.4-3.6-9.4-11
	c0-6.8,5.4-12.5,12.6-12.5c0.5,0,1.1,0.1,1.9,0.3v-5.7c0-2.8-0.2-3-3-3.4v-1.5c3.1-0.3,7-1,9.1-1.7v28.8c0,2.6,0.3,2.8,1.8,3
	l1.3,0.2L80.8,459.2L80.8,459.2z M71.6,442.4c-0.7-1.8-1.9-2.6-3.1-2.6c-1.1,0-4.6,1.2-4.6,9c0,6.1,3.2,8.6,5.4,8.6
	c0.8,0,1.5-0.1,2.3-0.7L71.6,442.4L71.6,442.4z"/>
<path class="st0" d="M100.6,455.9c-2.7,4.1-6.3,5.2-8.4,5.2c-6.3,0-9.9-5-9.9-10.7c0-4.2,1.8-7.4,3.5-9.2c1.9-2,4.5-3.5,7.3-3.5
	c4.5,0,7.7,4,7.7,8.1c0,1.1-0.2,1.7-1.4,1.9c-0.7,0.2-6.6,0.6-11.3,0.8c0.2,5.4,3,8.2,6.3,8.2c2.1,0,3.6-0.7,5.2-2.1L100.6,455.9z
	 M88.4,446.2c2,0,3.7-0.1,5.5-0.2c0.8,0,1.1-0.3,1.1-1.2c0-2.5-1-5.2-2.8-5.2C90.5,439.6,88.7,442.3,88.4,446.2z"/>
<path class="st0" d="M136,460.5v-1.7c3.4-0.4,3.6-0.5,3.6-5v-19.7h-0.2l-9.7,25.9h-1.5l-8.9-25.2H119l-0.5,12.9
	c-0.2,4.2-0.3,6.6-0.1,8c0.2,2.3,1.1,2.9,4.3,3.1v1.7h-11.1v-1.7c2.6-0.3,3.3-1,3.7-2.7c0.3-1.6,0.6-4.4,0.9-9.1l0.7-10.7
	c0.4-5.5,0.1-6.1-3.8-6.4v-1.7h9.7l8.3,21.3l8.5-21.3h9.7v1.7c-3.8,0.4-3.9,0.7-3.8,4.6l0.5,19.4c0.1,4.4,0.3,4.6,3.8,5v1.7H136
	V460.5z"/>
<path class="st0" d="M172.7,449c0,8.1-5.2,12.2-10.7,12.2c-7.3,0-10.8-5.8-10.8-11.2c0-8.3,5.9-12.2,11-12.2
	C168.7,437.7,172.7,443,172.7,449z M158,448.2c0,6.3,1.6,11.1,4.5,11.1c1.7,0,3.5-1.4,3.5-8.8c0-6.7-1.6-10.8-4.4-10.8
	C159.6,439.6,158,442.3,158,448.2z"/>
<path class="st0" d="M187.9,460.5V459c2-0.3,2.3-0.4,2.3-3.6v-9.2c0-3.5-1.4-4.6-3.1-4.6c-1.3,0-2.2,0.5-3.4,1.5v12.5
	c0,3,0.3,3.2,2.2,3.5v1.6h-11.4V459c2.8-0.3,3.1-0.4,3.1-3.6v-10.9c0-3-0.2-3.2-2.4-3.7v-1.3c3.1-0.4,6-1.1,8.5-1.9v3.5
	c1-0.7,1.9-1.4,2.8-2.1c1.3-0.9,2.3-1.4,3.8-1.4c3.9,0,6,3.1,6,7.7v10c0,3.2,0.3,3.3,2.6,3.6v1.6H187.9z"/>
<path class="st0" d="M210.6,460.6c-0.8,0.4-1.5,0.6-2.1,0.6c-3.6,0-5.7-1.8-5.7-6.2v-14.3h-2.9l-0.3-0.6l1.4-1.8h1.8v-3.5l5.4-3.8
	l0.7,0.4v7h4.7c0.5,0.6,0.5,2-0.3,2.3h-4.4v12.6c0,3.8,1.4,4.5,2.7,4.5c1.1,0,1.8-0.3,2.5-0.6l0.5,1.7L210.6,460.6z"/>
<path class="st0" d="M233.5,455.9c-2.7,4.1-6.3,5.2-8.4,5.2c-6.3,0-9.9-5-9.9-10.7c0-4.2,1.8-7.4,3.5-9.2c1.9-2,4.5-3.5,7.3-3.5
	c4.5,0,7.7,4,7.7,8.1c0,1.1-0.2,1.7-1.4,1.9c-0.7,0.2-6.6,0.6-11.3,0.8c0.2,5.4,3,8.2,6.3,8.2c2.1,0,3.6-0.7,5.2-2.1L233.5,455.9z
	 M221.3,446.2c2,0,3.7-0.1,5.5-0.2c0.8,0,1.1-0.3,1.1-1.2c0-2.5-1-5.2-2.8-5.2C223.3,439.6,221.6,442.3,221.3,446.2z"/>
<path class="st0" d="M244.4,442.9c1.6-3.1,3.3-5.2,5.3-5.2c1.8,0,3,1.4,3,3.1c0,1.8-1.3,3.2-2.4,3.6c-0.7,0.3-1.1,0.2-1.5-0.2
	c-0.8-0.7-1.3-1-2.1-1c-0.9,0-1.7,0.3-2.5,2.2v9.9c0,3.1,0.3,3.3,3.6,3.5v1.6h-12.6V459c2.6-0.3,2.9-0.6,2.9-3.5v-11.1
	c0-2.7-0.3-2.9-2.5-3.5v-1.4c3-0.4,6-1,8.6-1.9v5.2h0.2V442.9z"/>
<path class="st0" d="M263,442.9c1.6-3.1,3.3-5.2,5.3-5.2c1.8,0,3,1.4,3,3.1c0,1.8-1.3,3.2-2.4,3.6c-0.7,0.3-1.1,0.2-1.5-0.2
	c-0.8-0.7-1.3-1-2.1-1c-0.9,0-1.7,0.3-2.5,2.2v9.9c0,3.1,0.3,3.3,3.6,3.5v1.6h-12.6V459c2.6-0.3,2.9-0.6,2.9-3.5v-11.1
	c0-2.7-0.3-2.9-2.5-3.5v-1.4c3-0.4,6-1,8.6-1.9v5.2h0.2V442.9z"/>
<path class="st0" d="M290.5,455.9c-2.7,4.1-6.3,5.2-8.4,5.2c-6.3,0-9.9-5-9.9-10.7c0-4.2,1.8-7.4,3.5-9.2c1.9-2,4.5-3.5,7.3-3.5
	c4.5,0,7.7,4,7.7,8.1c0,1.1-0.2,1.7-1.4,1.9c-0.7,0.2-6.6,0.6-11.3,0.8c0.2,5.4,3,8.2,6.3,8.2c2.1,0,3.6-0.7,5.2-2.1L290.5,455.9z
	 M278.3,446.2c2,0,3.7-0.1,5.5-0.2c0.8,0,1.1-0.3,1.1-1.2c0-2.5-1-5.2-2.8-5.2C280.3,439.6,278.6,442.3,278.3,446.2z"/>
<path class="st0" d="M314.3,439.8c-2.3,0.4-2.7,0.9-3.8,3.7c-1.2,2.9-2.6,6.6-5.2,13.7c-3,8.1-3.9,11.2-4.5,13.6
	c-0.3,1.2-1,1.5-1.9,1.5c-1.4,0-3.4-1.5-3.4-3c0-0.8,0.4-1.3,1.4-1.9c1.6-1,2.7-1.8,3.4-3.1c0.5-0.9,0.9-1.7,1-2.3
	c0.1-0.8,0-1.5-0.4-2.3c-2.5-7.6-5-14.4-6-16.8c-0.9-2.2-1.4-2.8-3.5-3.1v-1.5h11.8v1.5c-2.4,0.3-2.4,0.9-1.9,2.7l3.4,11
	c1.2-3.6,2.5-7.6,3.4-11c0.6-1.8,0.2-2.4-2.3-2.8v-1.5h8.4v1.6H314.3z"/>
<path class="st0" d="M-9.9,468.9v-7.6c-8.5-1.1-16.2-5-22.1-10.7h54.5c-5.9,5.7-13.6,9.6-22.1,10.7v7.6c23.7-2.5,42.1-22.6,42.1-47
	c0-26.1-21.2-47.2-47.2-47.2s-47.4,21.2-47.4,47.3C-52.1,446.3-33.6,466.4-9.9,468.9z M22.1,425.9l-13,13.2
	c-2.2,2.3-4.1,5.7-4.4,8.5c-4.6-4.9-1.3-12.1,2.5-15.8l14-13.5c1.6-1.6,2.2-2.2,3.1-3.6C25.4,416.4,25.7,422.2,22.1,425.9z
	 M24.5,397.8c1.7,2.7,2,8.2-1.7,11.9l-25.7,26.2c-3,3.1-3.5,8.3-3.8,11.1c-5.6-7.5-1.9-14.7,1.9-18.4l26.6-26.5
	C23.4,400.5,23.7,399.1,24.5,397.8z M14.1,393c1.7,2.7,1.9,8.1-1.7,11.9l-26.1,27c-3,3.1-4.7,9.8-3.9,14.9
	c-7.5-8.9-1.7-18.5,2.1-22.3l26.9-27.3C13,395.7,13.7,394.4,14.1,393z M8.3,381.6c4.4,5.1,2.9,10-0.8,13.7L-21.1,424
	c-3,3-3.7,8.2-4,11c-5.5-7.6-1.4-14.6,2.4-18.4l28.1-27.8C7,387.3,8.2,384.3,8.3,381.6z M-31.9,410.9l24.8-25.4
	c1.6-1.6,2.8-4.5,3-7.2c5,4.3,4.2,10.2,0.5,13.8l-23.1,23c-3,3-6.4,8.6-4.6,17C-39,426.2-37,416.2-31.9,410.9z"/>
</svg>
