<?xml version="1.0" encoding="utf-8"?>
<!-- Generator: Adobe Illustrator 19.1.1, SVG Export Plug-In . SVG Version: 6.00 Build 0)  -->
<svg version="1.1" id="Layer_1" xmlns="http://www.w3.org/2000/svg" xmlns:xlink="http://www.w3.org/1999/xlink" x="0px" y="0px"
	 viewBox="1039.1 505.5 440.4 440.6" style="enable-background:new 1039.1 505.5 440.4 440.6;" xml:space="preserve">
<style type="text/css">
	.st0{fill:url(#SVGID_1_);}
	.st1{fill:url(#SVGID_2_);}
	.st2{fill:url(#SVGID_3_);}
	.st3{fill:url(#SVGID_4_);}
	.st4{fill:url(#SVGID_5_);}
	.st5{fill:url(#SVGID_6_);}
	.st6{opacity:0.85;fill:url(#SVGID_7_);enable-background:new    ;}
	.st7{opacity:0.85;fill:url(#SVGID_8_);enable-background:new    ;}
	.st8{opacity:0.85;fill:url(#SVGID_9_);enable-background:new    ;}
	.st9{fill:url(#SVGID_10_);}
	.st10{fill:#7F7F7E;}
	.st11{fill:url(#SVGID_11_);}
	.st12{fill:url(#SVGID_12_);}
	.st13{fill:url(#SVGID_13_);}
	.st14{fill:url(#SVGID_14_);}
	.st15{fill:url(#SVGID_15_);}
	.st16{fill:url(#SVGID_16_);}
	.st17{fill:url(#SVGID_17_);}
	.st18{fill:url(#SVGID_18_);}
	.st19{fill:url(#SVGID_19_);}
	.st20{fill:url(#SVGID_20_);}
	.st21{fill:url(#SVGID_21_);}
	.st22{fill:url(#SVGID_22_);}
	.st23{fill:url(#SVGID_23_);}
	.st24{fill:url(#SVGID_24_);}
	.st25{fill:url(#SVGID_25_);}
	.st26{fill:url(#SVGID_26_);}
	.st27{fill:url(#SVGID_27_);}
	.st28{fill:#192753;}
</style>
<g>
	<g>
		<g>
			<g>
				<g>
					<g>
						<path d="M1332.6,754.7c-2.9-8.6-14.5-30.2-23.6-42.3c-2-2.6-1.2-4-0.2-4.9c1.1-0.8,4.4-3.8,8.5-8.4c4.1-4.6,5.1-9.9,2.2-17.5
							c-2.8-7.5-12.3-25.4-14.3-31.3c-2.3-6.8-2.5-9.9-1.1-13.6c1.6-4.4,4-4.6,5.7-4.5c0.9,0,1.7,1,1.7,1.5c0.1,1.9,0.2,4.3,2,9.3
							c3,8,10.7,13.1,13.2,14.2c1.7,0.7,2-0.6,1.8-1.2c-0.2-0.6-2.7-10.5-4.5-17.9c-2-7.7-3-9.4-4.7-11.1c-2.8-2.7-7-4.1-10.6-3.9
							c-8,0.3-11.6,8-12,8.8c-0.4,0.6-0.5,1.1-1.4,0.5c-2.3-1.6-9-7.2-9.6-10.7c-0.4-2.1-0.7-2.4-2.8-3.1c-8-3.1-15-5.9-22.7-7.3
							c-3.1-0.5-3.3-0.8-6.9-0.2c-6.1,1.1-9.9,2.6-14.5,5c-2.5,1.3-2.8,2.2-3.3,2.9c-0.4,0.5-0.8,1.1-1.7,1.4
							c-1.5,0.5-7.2,2.6-9.2,3.8c-1.2,0.7-1.9,1.5-1.3,2.8c1.1,2.4,4.4,7.5,5.8,8.7c0.9,0.8,3.1,1.3,3.6,1.4
							c0.5,0.1,0.9,0.3,1.1-0.1c0.2-0.4,0.3-1,1.3-1.8c1.5-1.1,4.4-1.8,5.9-1.9c1.1-0.1,1.9-0.1,2.5,0.3c0.6,0.4,2,1.9,2.5,3.4
							c0.5,1.5,0.2,2-0.6,2.4c-0.8,0.3-3.3,0.9-6.1,1.1c-2.8,0.2-3.7-0.5-3.9-0.7c-0.2-0.2-0.5-0.4-0.8,0c-0.5,0.7-1.2,1.1-2.3,1.7
							c-0.6,0.3-1,1-0.4,2c1.8,3.1,4.2,6.7,6.4,7.3c1.8,0.5,2.7,0,4.7-1.5c1.8-1.3,2.9-1.3,3.4-0.9c0.5,0.4,1.6,1.3,1.3,2.2
							c-0.5,1.6-3.7,5.3-4.3,6.1c-0.6,0.7-1.1,1.1-2.1,0.6c-1.5-0.7-24.3-12.5-27.3-13.7c-3.3-1.3-5.5-1.6-8.8-1.7
							c-2.6-0.1-6.2,0.2-8.4,0.5c-1.6,0.3-2.5,1.1-4,2.5c-2.1,1.9-4.2,4.4-4.4,6.4c-0.2,1.5,1.5,4.4,1.7,4.7s0.5,0.6,1.4,0.5
							c0.9-0.1,3.1-1.3,5.8-0.8c2.5,0.4,2.7,2.3,2.8,3.8c0,0.2,0.3,0.8,1,0.8c1,0,2.5,0,4.2,0.8c2.1,1,6.4,4.3,7.1,5.1
							c0.5,0.6,0.5,1.1-0.5,1.2c-5.4,0.5-13.7,2.1-17.5,3.4c-2.7,0.9-5.9,2.1-7,4.1c-1.3,2.2-2.9,5.8-3.4,8.3
							c-0.5,2.5,2.2,5.7,3,6.4c0.5,0.5,0.8,0.8,1.7,0.3c1.3-0.8,4.5-2.8,7.6-2.9c1.9-0.1,2.6,1.6,3.1,2.3c0.5,0.6,0.9,0.2,2.5-0.3
							c3-0.8,19.5-0.5,25.3-0.2c2.7,0.1,6.4,0.5,9.1,2c2.7,1.5,7.6,6.1,7.6,6.1s-6.5,11-10,17.5c-3.3,6-5.6,10.5-6.8,13.1
							c-1.1,2.4-2,5.8-1.8,8.4c0.3,3.9,0.4,5.9,0.3,7.7c0,1.5-1.5,1.7-3.5,2.2c-2.8,0.7-8.5,1.2-13,2.4c-4.2,1-5.7,2-6.5,5.2
							c-0.6,2.5-1.5,8.7-1.5,11.6c-0.1,1.2-0.1,1.7,1.4,1.4c0.8-0.2,3.3-0.5,6.4-0.8c3.9-0.3,8-0.2,11.3-0.2c5.9,0,23.5,1,24.7,1.1
							c1.5,0.2,1.8,0,1.7-1.1c-0.2-1.4-0.4-5.8-0.5-8.4c-0.1-2.6-0.5-5.3,1.9-7.9c2.4-2.6,20.2-22.5,21.2-23.5
							c0.9-0.9,1.5-1.8,2.8-0.6c1.3,1.2,16.1,11.9,19.1,14c3,2.2,5.8,2.9,9.2,3c2.4,0,3.1,4.3,1,4.7c-2.1,0.4-5.4,1.1-7.6,1.6
							c-3.5,0.8-4.5,2-5.6,4.3c-0.9,2-1.9,11.7-1.9,12.6c0,0.6-0.1,1.5,0.9,1.3c4.3-0.9,11.1-1.1,18.4-0.9c8.4,0.2,16.5,0.9,17.6,1
							c1.2,0.1,1.3-0.1,2-1.1c1.1-1.7,4.2-5.3,6.9-7.5C1333.1,756.8,1333.2,756.4,1332.6,754.7z M1300.5,695.8
							c-2.1,0.7-3.5,0.1-4.5-0.9c-1-1-9.5-11.1-12.2-14.2c-1.4-1.6-2.4-5.1,1.7-6.7c3.4-1.2,9.4-3.2,11.1-4.1s2.6-1.8,2.7-3.5
							c0.1-1.7,0.2-3.7,0.2-4.3s0.8-1.2,1.3-0.4c0.3,0.5,1.8,3.5,3.7,6.9c2.8,5.1,6.2,11.6,7.4,14.3c1.1,2.6,0.5,4.7-1.1,6.7
							C1308.5,692.3,1302,695.3,1300.5,695.8z"/>
					</g>
				</g>
				
					<linearGradient id="SVGID_1_" gradientUnits="userSpaceOnUse" x1="1330.0415" y1="160.4659" x2="1283.5577" y2="89.2708" gradientTransform="matrix(1 0 0 -1 0 792.2)">
					<stop  offset="0.2033" style="stop-color:#B5B3B3"/>
					<stop  offset="0.219" style="stop-color:#9A9696"/>
					<stop  offset="0.2517" style="stop-color:#6D6969"/>
					<stop  offset="0.2838" style="stop-color:#4F4C4C"/>
					<stop  offset="0.3144" style="stop-color:#3C3A3A"/>
					<stop  offset="0.3432" style="stop-color:#31302F"/>
					<stop  offset="0.3681" style="stop-color:#2E2C2C"/>
					<stop  offset="0.4428" style="stop-color:#323130"/>
					<stop  offset="0.542" style="stop-color:#3F3D3D"/>
					<stop  offset="0.6549" style="stop-color:#565453"/>
					<stop  offset="0.7772" style="stop-color:#7B7878"/>
					<stop  offset="0.8132" style="stop-color:#898686"/>
					<stop  offset="1" style="stop-color:#000000"/>
				</linearGradient>
				<path class="st0" d="M1309.1,624.7C1309.1,624.7,1309.1,624.7,1309.1,624.7c-6.7,0-13.3,7.6-12.1,19c0.8,7,1.8,10.1,3.9,14.6
					c1,2.2,12.3,23.6,12.8,25.9c0.7,3.2,0.1,5.3-2.4,7.5c-2.8,2.5-7.3,5.3-10.4,6.4c-0.7,0.2-1.4,0.4-2,0.4c-0.7,0-2.4-0.2-5.7-4.3
					l14.5,19.4c-1.8-2.5-2.8-4.4-2.5-6c0.3-1.6,3-3.4,6-5.8c3.1-2.4,6.4-5.4,8-9.4c0.5-1.1,0.6-2.4,0.6-3.6c0-3.9-1.9-8.2-4.1-13
					c-2.9-6.2-11.1-19.6-13.6-29c-0.6-2.3-0.9-4.4-0.9-6.2c0-5.3,2.3-8.7,5.1-9.9c1.3-0.5,2.5-0.7,3.5-0.7c1.5,0,2.6,0.4,3,0.7
					c0.8,0.5,0.9,1.4,0.9,2.1c0,0.1,0,0.1,0,0.2c0,0.2,0,0.6,0,1.1c0,2.2,0.3,7,2.8,11.7c3.2,6,8.7,9.3,10.8,10.2
					c0.2,0.1-5-19.1-5.9-22.7C1320.4,629,1317.5,624.7,1309.1,624.7z"/>
				
					<linearGradient id="SVGID_2_" gradientUnits="userSpaceOnUse" x1="1199.5331" y1="108.7564" x2="1207.9562" y2="128.048" gradientTransform="matrix(1 0 0 -1 0 792.2)">
					<stop  offset="3.103500e-002" style="stop-color:#8C8888"/>
					<stop  offset="0.2" style="stop-color:#8C8888"/>
					<stop  offset="0.9897" style="stop-color:#403E3D"/>
				</linearGradient>
				<path class="st1" d="M1218.7,667.2c1.3,1.3-0.9,1.2-7.6,1.8c-6.8,0.6-13.7,2-17.3,3.3c-2.6,1-4.2,1.7-5.3,4.1
					c0,0-2.2,4.7-2.5,6.6c-0.2,0.9-0.1,1.4,0.4,2.1c0.3,0.4,0.9-12.4,17.4-13.2c14.6-0.8,18.2-2.3,15.3-5.1L1218.7,667.2z"/>
				
					<linearGradient id="SVGID_3_" gradientUnits="userSpaceOnUse" x1="1314.5094" y1="155.1062" x2="1304.1337" y2="156.0878" gradientTransform="matrix(1 0 0 -1 0 792.2)">
					<stop  offset="0.1966" style="stop-color:#2E2C2C"/>
					<stop  offset="0.261" style="stop-color:#2F2E2D"/>
					<stop  offset="0.2843" style="stop-color:#343332"/>
					<stop  offset="0.3008" style="stop-color:#3E3C3B"/>
					<stop  offset="0.3142" style="stop-color:#4B4948"/>
					<stop  offset="0.3257" style="stop-color:#5E5C5B"/>
					<stop  offset="0.3358" style="stop-color:#797676"/>
					<stop  offset="0.345" style="stop-color:#9E9B9B"/>
					<stop  offset="0.3532" style="stop-color:#CDCBCB"/>
					<stop  offset="0.3586" style="stop-color:#FFFFFF"/>
					<stop  offset="0.8241" style="stop-color:#2E2C2C"/>
					<stop  offset="1" style="stop-color:#1A1A1A"/>
				</linearGradient>
				<path class="st2" d="M1302.2,641c0,0,0.3-3.3,0.9-4.9c1.5-4.3,4.2-5.1,6-5.1c1.3,0,1.8,0.3,2.4,0.9c0.4,0.5,0.7,0.9,0.7,1.5
					c0.1,1.9,0.1,4.1,2,9c0.1,0.3,0.2,0.6,0.4,0.9c-1.6-4-1.8-7.7-1.8-9.6c0-0.6,0-1.3,0-1.3c0-1.5-1.6-1.9-3-1.9
					c-0.9,0-2,0.2-3.2,0.7c-2.3,0.9-4.4,3.8-4.5,8.7L1302.2,641z"/>
				
					<linearGradient id="SVGID_4_" gradientUnits="userSpaceOnUse" x1="1221.1913" y1="98.5701" x2="1229.7278" y2="118.1213" gradientTransform="matrix(1 0 0 -1 0 792.2)">
					<stop  offset="0" style="stop-color:#B5B3B3"/>
					<stop  offset="0.1072" style="stop-color:#A29F9F"/>
					<stop  offset="0.2468" style="stop-color:#918E8E"/>
					<stop  offset="0.3681" style="stop-color:#8C8888"/>
					<stop  offset="0.9897" style="stop-color:#000000"/>
				</linearGradient>
				<path class="st3" d="M1219.3,667.8c0.5,1.4-1.5,1-8.2,1.6c-6.8,0.6-13.7,1.9-17.3,3.3c-2.6,1-4.2,1.7-5.3,4.1
					c0,0-2.2,4.7-2.5,6.6c-0.2,0.9,0.1,1.4,0.5,2.1c0.7,1.1,1.1,1.3,2.2,0.8c0.8-0.5,4.5-2.5,6.9-2.6c2.2-0.1,3.1,1.3,3.4,2.4
					c0.2,0.7,1.1,0.3,1.3,0.3c1-0.2,1.9-0.5,5.3-0.8c4.1-0.3,19.8-0.2,25.7,0c5.2,0.1,25.7,16.2,26,16.3l1-2.1
					c-7-5.8-32.9-26.3-39.2-32.5L1219.3,667.8z"/>
				
					<linearGradient id="SVGID_5_" gradientUnits="userSpaceOnUse" x1="1304.2169" y1="6.4335" x2="1151.7252" y2="161.5662" gradientTransform="matrix(1 0 0 -1 0 792.2)">
					<stop  offset="7.692300e-002" style="stop-color:#676464"/>
					<stop  offset="0.1209" style="stop-color:#73706F"/>
					<stop  offset="0.1703" style="stop-color:#53504F"/>
					<stop  offset="0.3077" style="stop-color:#676464"/>
					<stop  offset="0.4725" style="stop-color:#E6E5E5"/>
					<stop  offset="0.6978" style="stop-color:#E6E5E5"/>
					<stop  offset="0.723" style="stop-color:#CFCDCD"/>
					<stop  offset="0.7716" style="stop-color:#9C9898"/>
					<stop  offset="0.8384" style="stop-color:#595655"/>
					<stop  offset="0.8407" style="stop-color:#575453"/>
					<stop  offset="0.9615" style="stop-color:#2E2C2C"/>
				</linearGradient>
				<path class="st4" d="M1278.4,680.5c3.1,3.8,12.4,15.1,20.4,25.3c12.4,15.9,20.1,28.4,28.2,46.8c0.8,1.8,0.2,2-1.1,3.1
					c-2.5,2-2,2.8-3.8,6c-0.2,0.4-0.7,1-1.3,0.9c-1.7-0.1-14.9-1.2-23.6-0.9c-5.2,0.2-6.5,0.5-7.6,0.8c-0.9,0.2-1.2,0.1-1.2-1.1
					c0-0.5,1-5.9,1.7-7.9c0.8-2,1.9-2.8,3.6-3.2c1.7-0.5,6.6-1.4,8.6-1.9c2-0.5,2.1-2.4,1.9-3.8c-0.2-1.4-1.3-3.4-2.6-3.6
					c-1.7-0.3-2.9-0.5-4.8-1.4c-1.9-0.8-28.9-22.6-31.3-24.6c-0.6-0.5-1.1-0.9-1.3-0.7c-0.2,0.2,0.3,0.9,0.5,1.1
					c0.5,0.5,4.5,4.7,5.4,5.5c0.6,0.6,0.3,0.9,0,1.2c-0.5,0.4-13.2,13-18.5,18.5s-9.1,8.7-9,13.1s0.2,7.8,0.2,8.6
					c0,0.7-0.7,0.6-1.2,0.6c-1.6-0.2-14.3-1.4-21.4-1.5c-7.1-0.1-12.3,0.5-15.6,1.4c-0.8,0.2-1-0.3-1-0.9c0.1-1.1,0.8-5.6,1.8-8.6
					c0.7-2,2.1-2.8,3.9-3.2c2.3-0.6,11.4-2.2,15.5-2.8c2.2-0.4,2.7-1.1,2.7-3c0-1.9-0.2-6-0.4-8c-0.1-2,0.5-4.3,1.3-6.1
					c3.2-7.6,11.2-23.6,18.1-33.1c0.8-1.1,1.6-1.3,2.4-1.1c0.9,0.2,5.1,3.5,5.4,3.6c0.7,0.4,1.7,0,1.2-0.4
					c-2.4-2.4-9.7-6.8-14.2-10.4c-8.8-7-18-17.2-25.3-24c-3.8-3.5-7.9-6.1-10.9-6.7c-1.1-0.2-2.1-0.2-3-0.4
					c-0.5-0.1-0.5-0.5-0.5-0.7c0-0.5,0-1.4-0.9-2.5c-0.7-0.8-2.2-1.1-3.3-1.1c-1.5-0.1-3.9,0.3-5.3,0.7c-0.7,0.2-1,0.1-1.2-0.2
					c-0.2-0.3-0.6-1.1-0.8-2c-0.1-0.6,0.1-1.1,0.4-1.7c0.9-1.7,3.2-3.4,4.5-4.6c1.4-1.3,2.2-1.3,3.5-1.5c3.1-0.4,7.2-0.6,11.4,0.3
					c3.1,0.7,5.5,1.9,8.5,3.4s20.3,10.4,22.5,11.4L1278.4,680.5z"/>
				
					<radialGradient id="SVGID_6_" cx="1238.2164" cy="141.3124" r="34.776" gradientTransform="matrix(1 0 0 -1 0 792.2)" gradientUnits="userSpaceOnUse">
					<stop  offset="3.571400e-002" style="stop-color:#FFFFFF"/>
					<stop  offset="0.467" style="stop-color:#FFFFFF"/>
					<stop  offset="0.5207" style="stop-color:#F3F3F2"/>
					<stop  offset="0.5763" style="stop-color:#DEDDDC"/>
					<stop  offset="0.6328" style="stop-color:#C1BEBE"/>
					<stop  offset="0.69" style="stop-color:#9C9999"/>
					<stop  offset="0.7473" style="stop-color:#73706F"/>
					<stop  offset="0.8462" style="stop-color:#53504F"/>
					<stop  offset="1" style="stop-color:#2E2C2C"/>
				</radialGradient>
				<path class="st5" d="M1249.6,649c0.3,2.1-1.1,3.6-1.9,4.9c-0.8,1.3-2.5,3.3-3.4,4.3c-1.1,1.4-3.2,1-3.2,1s10,5.1,15.7,8
					c2.3,1.1,5.8,0.1,8.3-4.4c0.6-1.1,4.1-8.7,5.1-10.9c0.9-2.3,2.2-4.7,0.1-9.1c-2.1-4.3-8.4-12.3-11-15.3
					c-1.3-1.6-2.9-2.6-6.3-2.8c-3.3-0.2-7.4,0.3-12.8,1.7c-5.4,1.5-12.3,4.3-12.6,4.4c-0.2,0.1-0.1,0.2-0.1,0.4
					c0.1,0.2,0.8,1.4,0.8,1.4s0.4,0.8,1.4,1.4s2.1,0.8,2.3,0.9c0.3,0.1,0.4-0.1,0.5-0.2c0.1-0.1,1.1-2.1,4.8-3
					c2-0.5,3.3-0.6,3.9-0.6c1,0,2.5,0.5,3.3,1.3c1.4,1.4,2.6,3.6,2.8,4.7c0.2,1,0.1,2.3-1,2.9c-1,0.5-4.1,1.2-5.9,1.4
					c-2,0.2-3.9,0.1-5-0.5c-0.2-0.1-0.3-0.1-0.5,0c-0.4,0.4-0.7,0.6-1.5,1.1c-0.2,0.1-0.3,0.3-0.1,0.7c0.2,0.4,2.5,4.3,4,5.4
					c1.4,1.1,2.2,0.6,3.9-0.4c1.7-0.9,2.9-2.1,4.7-2.1C1247.8,645.6,1249.3,647.2,1249.6,649z"/>
				
					<radialGradient id="SVGID_7_" cx="1246.0209" cy="124.0814" r="12.2783" gradientTransform="matrix(1 0 0 -0.9636 0 763.434)" gradientUnits="userSpaceOnUse">
					<stop  offset="3.571400e-002" style="stop-color:#FFFFFF"/>
					<stop  offset="0.2276" style="stop-color:#FFFFFF"/>
					<stop  offset="0.2984" style="stop-color:#EAE8E8"/>
					<stop  offset="0.416" style="stop-color:#C4C2C2"/>
					<stop  offset="0.5658" style="stop-color:#918E8D"/>
					<stop  offset="0.7421" style="stop-color:#565453"/>
					<stop  offset="0.9385" style="stop-color:#1B1B1B"/>
					<stop  offset="1" style="stop-color:#000000"/>
				</radialGradient>
				<path class="st6" d="M1246.4,640.3c-1,0.5-4,1.1-5.8,1.3c-1.9,0.2-3.8,0.1-4.9-0.5c-0.2-0.1-0.3-0.1-0.5,0
					c-0.4,0.3-0.7,0.6-1.5,1.1c-0.2,0.1-0.3,0.3-0.1,0.7c0.2,0.3,2.3,3.9,3.8,5c1.5,1.1,2.2,0.6,4-0.4c1.8-0.9,2.9-2.1,4.7-2
					L1246.4,640.3z"/>
				
					<radialGradient id="SVGID_8_" cx="1238.3441" cy="167.6094" r="14.4389" gradientTransform="matrix(1 0 0 -1 0 792.2)" gradientUnits="userSpaceOnUse">
					<stop  offset="0.2308" style="stop-color:#FFFFFF"/>
					<stop  offset="0.5714" style="stop-color:#EAE9E8"/>
					<stop  offset="0.8626" style="stop-color:#000000"/>
				</radialGradient>
				<path class="st7" d="M1240,627c-5.1,1.3-11.7,3.9-11.9,4c-0.2,0.1-0.1,0.4-0.1,0.5c0.1,0.1,0.8,1.3,0.8,1.3s0.3,0.8,1.3,1.3
					c1,0.5,1.8,0.8,2.1,0.8c0.3,0.1,0.4-0.1,0.5-0.2c0.1-0.1,1.1-2.1,4.8-3c2-0.5,3.3-0.6,3.9-0.6L1240,627z"/>
				
					<radialGradient id="SVGID_9_" cx="1262.5435" cy="139.4348" r="48.6433" gradientTransform="matrix(1 0 0 -1 0 792.2)" gradientUnits="userSpaceOnUse">
					<stop  offset="3.571400e-002" style="stop-color:#FFFFFF"/>
					<stop  offset="0.2527" style="stop-color:#FFFFFF"/>
					<stop  offset="0.2718" style="stop-color:#F3F3F2"/>
					<stop  offset="0.2915" style="stop-color:#DEDDDC"/>
					<stop  offset="0.3115" style="stop-color:#C1BEBE"/>
					<stop  offset="0.3316" style="stop-color:#9C9999"/>
					<stop  offset="0.3462" style="stop-color:#7F7C7C"/>
					<stop  offset="0.4121" style="stop-color:#53504F"/>
					<stop  offset="0.4725" style="stop-color:#2E2C2C"/>
					<stop  offset="0.8571" style="stop-color:#2E2C2C"/>
				</radialGradient>
				<path class="st8" d="M1249.7,649.3c0.3,2.1-1.1,3.7-1.9,5.1c-0.8,1.3-2.5,3.3-3.4,4.4c-1.1,1.4-2.7,0.8-2.7,0.8
					s9.4,4.8,15.2,7.7c2.3,1.1,5.7,0.4,8.1-4.2c0.6-1.1,4.2-8.7,5.1-10.9L1249.7,649.3z"/>
				<g>
					
						<linearGradient id="SVGID_10_" gradientUnits="userSpaceOnUse" x1="1228.5571" y1="111.7911" x2="1204.743" y2="105.8375" gradientTransform="matrix(1 0 0 -1 0 792.2)">
						<stop  offset="0" style="stop-color:#E6E5E5"/>
						<stop  offset="6.244260e-002" style="stop-color:#D0CECE"/>
						<stop  offset="0.2582" style="stop-color:#999696"/>
						<stop  offset="0.2882" style="stop-color:#A9A6A6"/>
						<stop  offset="0.3483" style="stop-color:#C2C0C0"/>
						<stop  offset="0.4172" style="stop-color:#D6D4D4"/>
						<stop  offset="0.5019" style="stop-color:#E2E1E1"/>
						<stop  offset="0.6484" style="stop-color:#E6E5E5"/>
						<stop  offset="0.8956" style="stop-color:#FFFFFF"/>
					</linearGradient>
					<path class="st9" d="M1202.6,684.8c-0.5-0.2-0.5-0.7,0.2-1.3c0.3-0.4,3-2.5,4.5-2.9c1.6-0.4,7.3-0.9,9.7-1
						c0.7,0,9.5-0.8,10.3-0.8c0.8,0,2.8,3.2,5.2,5.7c-0.3,0-7.9-0.2-14.4-0.1c-6.1,0-11.6,0.2-13.6,0.4
						C1203.8,684.8,1203,685,1202.6,684.8z"/>
					<path class="st10" d="M1202.5,684.9l0-0.1L1202.5,684.9c-0.2-0.1-0.4-0.3-0.4-0.5l0,0c0-0.3,0.2-0.6,0.5-0.9l0,0
						c0.4-0.4,3-2.5,4.6-2.9l0,0c1.6-0.4,7.3-0.9,9.7-1l0,0c0.7,0,9.1-0.8,10.2-0.8l0,0c0,0,0.1,0,0.1,0l0,0c0.3,0,0.5,0.2,0.9,0.6
						l0,0c0.3,0.3,0.8,0.8,1.2,1.4l0,0c0.9,1.1,2,2.5,3.2,3.8l0,0l0.2,0.2l-0.2,0c0,0-0.1,0-0.1,0l0,0c-1,0-7.5-0.2-13.4-0.2l0,0
						c-0.3,0-0.6,0-0.9,0l0,0c-6.1,0-11.6,0.2-13.6,0.3l0,0c-0.4,0-0.9,0.1-1.4,0.1l0,0C1202.9,685,1202.7,685,1202.5,684.9
						L1202.5,684.9z M1203.1,684.8c0.4,0,0.9-0.1,1.3-0.1l0,0c2-0.2,7.4-0.3,13.6-0.4l0,0c0.3,0,0.6,0,0.9,0l0,0
						c5.7,0,11.9,0.1,13.3,0.1l0,0c-1.7-1.9-3.2-4-4.2-5l0,0c-0.3-0.3-0.6-0.5-0.7-0.5l0,0c0,0,0,0-0.1,0l0,0
						c-1.1,0-9.5,0.8-10.2,0.8l0,0c-2.4,0.2-8.1,0.7-9.7,1l0,0c-1.5,0.3-4.1,2.5-4.5,2.8l0,0c-0.3,0.3-0.4,0.6-0.4,0.8l0,0
						c0,0.2,0.1,0.3,0.2,0.3l0,0l0,0C1202.8,684.8,1202.9,684.8,1203.1,684.8L1203.1,684.8z"/>
				</g>
				<g>
					<g>
						
							<linearGradient id="SVGID_11_" gradientUnits="userSpaceOnUse" x1="2186.5938" y1="-538.6595" x2="2435.4536" y2="-841.8616" gradientTransform="matrix(0.4383 0 0 -0.4383 269.0304 384.4578)">
							<stop  offset="0" style="stop-color:#FFFFFF"/>
							<stop  offset="6.896600e-002" style="stop-color:#CBC9C9"/>
							<stop  offset="0.1565" style="stop-color:#FFFFFF"/>
							<stop  offset="0.2033" style="stop-color:#FFFFFF"/>
							<stop  offset="0.2737" style="stop-color:#CDCBCB"/>
							<stop  offset="0.3297" style="stop-color:#B5B3B3"/>
							<stop  offset="0.3301" style="stop-color:#B6B3B3"/>
							<stop  offset="0.3601" style="stop-color:#D1CFCF"/>
							<stop  offset="0.394" style="stop-color:#E7E6E5"/>
							<stop  offset="0.435" style="stop-color:#F7F7F7"/>
							<stop  offset="0.502" style="stop-color:#FFFFFF"/>
							<stop  offset="0.8852" style="stop-color:#FFFFFF"/>
							<stop  offset="0.9797" style="stop-color:#969393"/>
						</linearGradient>
						<path class="st11" d="M1329.2,753.3c-2.7-6.7-10.2-21.2-20.4-36.3c-10.1-14.9-27.2-35-29.6-38.3c-2.3-3.3-3.2-7,1.6-8.5
							c3.1-1,10.7-2.6,13.8-3.4c3-0.8,3.2-1.8,3.5-4.1c0.3-2.5-0.4-14.8-1.9-22.1c-0.3-1.5-1.3-2.8-2.5-3.6c-1.1-0.8-5.2-4.4-7.5-7
							c-2.6-3-3.8-5.9-4.3-8c0,0-0.1-0.5-0.6-1c-0.2-0.2-0.3-0.3-0.7-0.5c-4.5-2.8-20.6-7.2-23.8-7.4c-2.2-0.2-10.2,0.8-17.4,5.1
							c-2.1,1.3-2.2,2.9-3.7,3.7c-1.5,0.9-4.9,1.6-8.4,3.2c-2,0.9-2,1-1.5,2.1c0.2,0.5,1.5,2.8,2.1,2.8c0.6,0,1.4-0.3,2.2-0.6
							c1.1-0.4,8.1-3.1,13.7-4.3c6.2-1.3,12.9-1.5,15.3,1.1c3.6,3.8,10,12.4,11.9,16.1c1.9,3.7,1.7,5.5,0.5,9.3
							c-1.1,3.5-5.5,12.6-6.8,14.4c-1.3,1.9-2.9,2.9-6.6,1.4c-4-1.7-18.8-9.3-22.1-10.9c-2.2-1.1-11.3-5.7-18.3-9.2
							c-2.6-1.3-4.7-2.2-7-2.8c-5.1-1.3-10.6-0.7-13.1-0.3c-1.1,0.2-1.9,2.1-1.8,2.8c0.1,0.9,2.8,0.3,5,0.4c1.8,0.1,8,0.8,11.6,2.2
							c3.8,1.5,22.6,11.7,27.4,14.2c36.3,19.8,51.8,32.5,79.9,79.6c1.2,2.1,1.8,4.7-0.1,5.3c-2.9,0.8-14.8,3.1-18.5,4.3
							c-3.1,1-3.4,1.2-3.9,2.8c-0.5,1.7-1.3,5.1-1.1,5.8c0.1,0.3-0.2,0.6,0.5,0.6c3.4,0,15.4,0,24.7,0.9c1.1,0.1,1.2,0.1,1.9-1
							c0.8-1.2,4-4.9,6.1-6.5C1329.9,754.9,1329.3,753.7,1329.2,753.3z"/>
					</g>
				</g>
				
					<linearGradient id="SVGID_12_" gradientUnits="userSpaceOnUse" x1="1199.7225" y1="145.8478" x2="1311.2007" y2="39.9669" gradientTransform="matrix(1 0 0 -1 0 792.2)">
					<stop  offset="0" style="stop-color:#C5C2C2"/>
					<stop  offset="1.103883e-002" style="stop-color:#BEBBBB"/>
					<stop  offset="0.133" style="stop-color:#807D7D"/>
					<stop  offset="0.2476" style="stop-color:#595655"/>
					<stop  offset="0.3516" style="stop-color:#403E3E"/>
					<stop  offset="0.4414" style="stop-color:#323130"/>
					<stop  offset="0.5069" style="stop-color:#2E2C2C"/>
					<stop  offset="0.5767" style="stop-color:#31302F"/>
					<stop  offset="0.6595" style="stop-color:#3D3B3A"/>
					<stop  offset="0.7489" style="stop-color:#504E4D"/>
					<stop  offset="0.8431" style="stop-color:#6F6C6C"/>
					<stop  offset="0.94" style="stop-color:#9E9B9B"/>
					<stop  offset="1" style="stop-color:#C5C2C2"/>
				</linearGradient>
				<path class="st12" d="M1320.6,746.3c-0.2-1.9-1.9-4.7-5.1-9.6c-3.1-4.9-7.1-11.6-12.3-19.1c-9.3-13.2-18.5-23.5-29.9-32.5
					c-8.4-6.7-17.3-12-23.7-15.8c-6.5-3.8-33.8-18.8-38.1-20.1c-3.9-1.2-6.9-1.6-9.7-1.9c-1.9-0.2-3.4-0.1-5.1-0.1
					c-1.6,0-1-1.3-0.8-1.8c-0.2,0.4-1.1,2.1,0.5,2.1c1.1,0,3.8-0.1,5.5,0.1c3.4,0.4,7.7,1.3,10.3,2.3c3.8,1.5,21.7,12.1,26.3,14.7
					c13.9,7.9,24.5,15.1,34.4,23.1c15.2,12.2,28.3,26.4,44.7,55.2c0.6,1.1,1,2,1,3c0.1,1.6-1.3,2.2-1.8,2.3
					c-2.8,0.8-14.4,3.4-17.8,4.6c-2.9,1-3.4,1.7-3.9,3c-0.2,0.6-0.6,3.3-1.2,4c-0.6,0.8-1.9,0.9-3.3,0.9c-0.9,0-1.3,0.1-1.2-0.9
					c0.1-1,0.7-3.6,1-5.1s1-2.7,2.3-3.5c1.4-0.8,6.2-1.6,8.9-2.3c2.7-0.7,2.8-1.9,2.8-4c0,2.2-0.8,2.7-3.5,3.3
					c-2.8,0.6-7.4,1.2-8.9,2.2c-1.5,1-2.1,2.4-2.3,3.5c-0.9,3.8-1.5,6.7-1.5,7.6c0.1,0.8,0.4,1,1.4,0.8c0.9-0.1,3.3-0.4,6.8-0.6
					c1,0,1-1.2,0.9-2.6c0-0.5,0-2,0.3-2.7c0.2-0.7,0.8-1.4,1.7-1.7c1.9-0.6,12.7-3.5,18.2-5.1
					C1319.8,749.3,1320.8,748.5,1320.6,746.3z"/>
				
					<linearGradient id="SVGID_13_" gradientUnits="userSpaceOnUse" x1="1253.434" y1="94.5985" x2="1209.9949" y2="29.6572" gradientTransform="matrix(1 0 0 -1 0 792.2)">
					<stop  offset="0" style="stop-color:#A7A4A4"/>
					<stop  offset="0.1" style="stop-color:#FFFFFF"/>
					<stop  offset="0.3492" style="stop-color:#DFDDDD"/>
					<stop  offset="0.4136" style="stop-color:#EAE9E8"/>
					<stop  offset="0.5385" style="stop-color:#FFFFFF"/>
					<stop  offset="0.5709" style="stop-color:#AAA7A7"/>
					<stop  offset="0.6069" style="stop-color:#6E6A6A"/>
					<stop  offset="0.6405" style="stop-color:#474545"/>
					<stop  offset="0.6706" style="stop-color:#2F2E2D"/>
					<stop  offset="0.6962" style="stop-color:#201F1F"/>
					<stop  offset="0.7143" style="stop-color:#1A1A1A"/>
					<stop  offset="0.7166" style="stop-color:#202020"/>
					<stop  offset="0.7344" style="stop-color:#4B4848"/>
					<stop  offset="0.7525" style="stop-color:#747171"/>
					<stop  offset="0.7705" style="stop-color:#9D9A9A"/>
					<stop  offset="0.7885" style="stop-color:#C2BFBF"/>
					<stop  offset="0.8063" style="stop-color:#DFDDDD"/>
					<stop  offset="0.824" style="stop-color:#F4F3F3"/>
					<stop  offset="0.8414" style="stop-color:#FFFFFF"/>
					<stop  offset="0.8505" style="stop-color:#F2F2F1"/>
					<stop  offset="0.8608" style="stop-color:#DCDADA"/>
					<stop  offset="0.8717" style="stop-color:#BCBABA"/>
					<stop  offset="0.8829" style="stop-color:#959292"/>
					<stop  offset="0.8944" style="stop-color:#6A6666"/>
					<stop  offset="0.9061" style="stop-color:#3F3D3C"/>
					<stop  offset="0.9103" style="stop-color:#2F2E2D"/>
					<stop  offset="0.9451" style="stop-color:#2F2E2D"/>
					<stop  offset="1" style="stop-color:#5D5A59"/>
				</linearGradient>
				<path class="st13" d="M1248.7,695.8c0.8,0.2,2.1,1.2,3.2,2c0.8,0.6,1.5,1.1,1.5,1.1c-7.3,9.1-18,24.7-21.5,31.3
					c-1.8,3.4-1.8,4.9-1.7,8c0.1,3.1,0.4,6.8,0.2,8.5c-0.2,1.8-1.3,2.5-3.1,3c-1.8,0.5-12.2,2.2-14.5,2.8c-2.3,0.7-2.8,2-3.2,3.6
					c-0.4,1.7-0.5,2.8-0.7,3.4c-0.2,0.7-0.1,1.2-0.8,1.3c-0.7,0-2.3,0.2-3,0.3c-0.8,0.1-0.9-0.1-0.8-0.9s0.8-4.4,1.3-6.4
					s1.3-3.2,3.9-3.9c2.6-0.6,13.2-2.4,15.2-2.8c2.4-0.4,2.9-1.4,2.8-3.7c-0.1-2.4-0.5-5.7-0.5-7.7c-0.1-2,0.1-3.7,0.7-5.5
					c0.7-2,4.5-10.2,7.7-15.9c4.4-8,9.7-16.5,10.8-17.8C1247.1,695.9,1247.7,695.5,1248.7,695.8z"/>
				
					<linearGradient id="SVGID_14_" gradientUnits="userSpaceOnUse" x1="1248.5786" y1="60.758" x2="1260.045" y2="54.0038" gradientTransform="matrix(1 0 0 -1 0 792.2)">
					<stop  offset="0.2" style="stop-color:#FFFFFF"/>
					<stop  offset="0.3237" style="stop-color:#F7F7F7"/>
					<stop  offset="0.3966" style="stop-color:#E7E6E6"/>
					<stop  offset="0.4564" style="stop-color:#D2D0D0"/>
					<stop  offset="0.5088" style="stop-color:#B7B4B4"/>
					<stop  offset="0.5207" style="stop-color:#AFADAD"/>
					<stop  offset="0.8352" style="stop-color:#2E2C2C"/>
					<stop  offset="0.9482" style="stop-color:#212121"/>
					<stop  offset="1" style="stop-color:#1A1A1A"/>
				</linearGradient>
				<path class="st14" d="M1242.6,754.1c-0.1-1.9,0.6-3.6,1.8-5.3c1.6-2.3,4.1-4.7,7.1-7.8c5.3-5.5,18.3-18.2,18.8-18.7
					c0.3-0.3,0.6-0.7-0.1-1.4c-1.3-1.2-2-2-4-4.1c-1.2-1.2-2.1-2-2.1-2.4c0-0.1-14.5,16.2-19.3,28.3c-2,4.3-2.5,6.7-2.5,8.9
					C1242.4,753.5,1242.6,754.1,1242.6,754.1z"/>
				
					<linearGradient id="SVGID_15_" gradientUnits="userSpaceOnUse" x1="1255.0121" y1="91.8292" x2="1267.0726" y2="106.2685" gradientTransform="matrix(1 0 0 -1 0 792.2)">
					<stop  offset="2.197800e-002" style="stop-color:#FFFFFF"/>
					<stop  offset="0.1828" style="stop-color:#FFFFFF"/>
					<stop  offset="0.2088" style="stop-color:#FFFFFF"/>
					<stop  offset="0.3109" style="stop-color:#ECEBEB"/>
					<stop  offset="0.4672" style="stop-color:#CCCACA"/>
					<stop  offset="0.5" style="stop-color:#C5C2C2"/>
					<stop  offset="0.5655" style="stop-color:#B5B2B2"/>
					<stop  offset="0.8161" style="stop-color:#848080"/>
					<stop  offset="0.9451" style="stop-color:#73706F"/>
					<stop  offset="1" style="stop-color:#6C6969"/>
				</linearGradient>
				<path class="st15" d="M1196.6,647.6c2,0,3.9-0.1,5.7,0.2c3.4,0.4,7.7,1.3,10.3,2.5c1.4,0.6,4.7,2.4,8.5,4.5
					c6.6,3.8,14.9,8.6,17.8,10.3c10.3,5.8,18.7,11.3,26.4,17c2.8,2.1,5.4,4.2,8.1,6.3c15.2,12.3,27.7,25.9,44.4,55.1
					c0.6,1.1,0.8,2,0.8,3c-0.1,0.9-0.8,1.8-2,2L1196.6,647.6z"/>
				
					<linearGradient id="SVGID_16_" gradientUnits="userSpaceOnUse" x1="1281.6486" y1="172.4165" x2="1297.3591" y2="156.3448" gradientTransform="matrix(1 0 0 -1 0 792.2)">
					<stop  offset="0" style="stop-color:#000000"/>
					<stop  offset="4.490004e-002" style="stop-color:#030303"/>
					<stop  offset="7.061952e-002" style="stop-color:#0E0E0D"/>
					<stop  offset="9.150311e-002" style="stop-color:#1C1B1B"/>
					<stop  offset="0.1098" style="stop-color:#2C2B2B"/>
					<stop  offset="0.1264" style="stop-color:#413E3E"/>
					<stop  offset="0.1417" style="stop-color:#5B5858"/>
					<stop  offset="0.1562" style="stop-color:#817D7D"/>
					<stop  offset="0.1695" style="stop-color:#B3B0B0"/>
					<stop  offset="0.1793" style="stop-color:#E6E5E5"/>
					<stop  offset="0.2297" style="stop-color:#A8A6A5"/>
					<stop  offset="0.2857" style="stop-color:#787575"/>
					<stop  offset="0.3428" style="stop-color:#565453"/>
					<stop  offset="0.4004" style="stop-color:#403E3D"/>
					<stop  offset="0.4586" style="stop-color:#312F2F"/>
					<stop  offset="0.5177" style="stop-color:#272626"/>
					<stop  offset="0.5793" style="stop-color:#242323"/>
					<stop  offset="0.7233" style="stop-color:#1E1D1D"/>
					<stop  offset="0.9352" style="stop-color:#0A0A09"/>
					<stop  offset="1" style="stop-color:#000000"/>
				</linearGradient>
				<path class="st16" d="M1296,633.9L1296,633.9L1296,633.9c-0.6,0-1.1-0.2-1.4-0.5c-2.4-1.8-9.1-7-10.1-11.5
					c-0.6-2.1,0.2-1.1-2-2.2c-0.6-0.2-1.2-0.5-1.8-0.7c0.2,0.1,0.4,0.2,0.6,0.3c0.3,0.2,0.6,0.4,0.8,0.6c0.8,0.8,1,1.5,1,1.7
					c0.4,2,1.5,4.6,4,7.5c2.1,2.5,6.6,6.2,7.5,6.8c0.6,0.4,1.2,0.8,1.7,1.4c0.3-1.5,0.8-3.1,1.4-4.7c-0.1,0.2-0.2,0.4-0.4,0.7
					C1297.1,633.5,1296.7,633.9,1296,633.9z"/>
				
					<linearGradient id="SVGID_17_" gradientUnits="userSpaceOnUse" x1="1283.5159" y1="105.6385" x2="1301.3942" y2="117.3767" gradientTransform="matrix(1 0 0 -1 0 792.2)">
					<stop  offset="0" style="stop-color:#000000"/>
					<stop  offset="4.490004e-002" style="stop-color:#030303"/>
					<stop  offset="7.061952e-002" style="stop-color:#0E0E0D"/>
					<stop  offset="9.150311e-002" style="stop-color:#1C1B1B"/>
					<stop  offset="0.1098" style="stop-color:#2C2B2B"/>
					<stop  offset="0.1264" style="stop-color:#413E3E"/>
					<stop  offset="0.1417" style="stop-color:#5B5858"/>
					<stop  offset="0.1562" style="stop-color:#817D7D"/>
					<stop  offset="0.1695" style="stop-color:#B3B0B0"/>
					<stop  offset="0.1793" style="stop-color:#E6E5E5"/>
					<stop  offset="0.2297" style="stop-color:#A8A6A5"/>
					<stop  offset="0.2857" style="stop-color:#787575"/>
					<stop  offset="0.3428" style="stop-color:#565453"/>
					<stop  offset="0.4004" style="stop-color:#403E3D"/>
					<stop  offset="0.4586" style="stop-color:#312F2F"/>
					<stop  offset="0.5177" style="stop-color:#272626"/>
					<stop  offset="0.5793" style="stop-color:#242323"/>
					<stop  offset="0.7233" style="stop-color:#1E1D1D"/>
					<stop  offset="0.9352" style="stop-color:#0A0A09"/>
					<stop  offset="1" style="stop-color:#000000"/>
				</linearGradient>
				<path class="st17" d="M1281.3,671.4c-2.2,0.8-2.5,1.5-2.6,2.6l0,0c0,1,0.5,2.7,1.5,4.1c1.2,1.7,6.8,8.1,13.1,16
					c0.7,0.9,1,1.2,1.6,1.8c-0.2-0.3-9.1-11.6-11.9-14.7c-0.8-0.9-1.7-2.1-1.7-3.8c0-1.6,1.2-3.9,3.8-4.7c3.4-1.2,9.6-3.2,10.9-4
					c1.4-0.8,1.8-1.1,2-2.1c-0.7,0.6-1.6,0.9-2.8,1.3C1292.1,668.9,1284.3,670.5,1281.3,671.4z"/>
				<g>
					
						<linearGradient id="SVGID_18_" gradientUnits="userSpaceOnUse" x1="1297.8835" y1="162.695" x2="1321.3564" y2="162.695" gradientTransform="matrix(1 0 0 -1 0 792.2)">
						<stop  offset="0" style="stop-color:#403E3D"/>
						<stop  offset="0.2857" style="stop-color:#B5B3B3"/>
						<stop  offset="0.3396" style="stop-color:#858181"/>
						<stop  offset="0.3928" style="stop-color:#636160"/>
						<stop  offset="0.4437" style="stop-color:#4F4C4C"/>
						<stop  offset="0.4915" style="stop-color:#434141"/>
						<stop  offset="0.533" style="stop-color:#403E3D"/>
						<stop  offset="0.7582" style="stop-color:#1A1A1A"/>
						<stop  offset="1" style="stop-color:#000000"/>
					</linearGradient>
					<path class="st18" d="M1297.9,634.5c1.2-4.3,5.1-9.3,11.3-9.3c7.8,0,11.1,3,12.2,7.4c-1.4-6.3-6.9-8.2-12.2-8.1
						C1303.1,624.6,1299.1,629.7,1297.9,634.5z"/>
				</g>
				
					<linearGradient id="SVGID_19_" gradientUnits="userSpaceOnUse" x1="1202.0863" y1="40.6078" x2="1256.2009" y2="40.6078" gradientTransform="matrix(1 0 0 -1 0 792.2)">
					<stop  offset="0" style="stop-color:#000000"/>
					<stop  offset="5.284238e-002" style="stop-color:#030303"/>
					<stop  offset="8.310874e-002" style="stop-color:#0E0E0D"/>
					<stop  offset="0.1077" style="stop-color:#1C1B1B"/>
					<stop  offset="0.1292" style="stop-color:#2C2B2B"/>
					<stop  offset="0.1487" style="stop-color:#413E3E"/>
					<stop  offset="0.1665" style="stop-color:#5B5857"/>
					<stop  offset="0.1793" style="stop-color:#757272"/>
					<stop  offset="0.2534" style="stop-color:#565353"/>
					<stop  offset="0.3324" style="stop-color:#403E3D"/>
					<stop  offset="0.4126" style="stop-color:#312F2F"/>
					<stop  offset="0.4943" style="stop-color:#272626"/>
					<stop  offset="0.5793" style="stop-color:#242323"/>
					<stop  offset="0.7233" style="stop-color:#1E1D1D"/>
					<stop  offset="0.9352" style="stop-color:#0A0A09"/>
					<stop  offset="1" style="stop-color:#000000"/>
				</linearGradient>
				<path class="st19" d="M1246.8,748.3c1-1.1,5.1-5.6,9.4-10.4c-1.4,1.4-2.7,2.7-3.7,3.8c-6.1,6.2-8.8,8.1-8.7,12
					c0.1,2.3,0.2,7.9,0.3,8.7c0,0.6,0.1,1.1-0.9,1.6c-0.5,0.2-1.3,0.2-1.7,0.2c-1.7,0-17.7-1.6-23.3-1.6c-5.6,0-10.4,0.6-13.3,1.4
					c-0.5,0.1-1.7,0-2.2-0.7c-0.2-0.4-0.3-0.8-0.4-1.1c-0.1,1.1-0.2,2.4-0.2,2.9c1-0.2,3.4-0.5,6.5-0.8c3.9-0.3,8.4-0.2,11.3-0.2
					s25,1.1,25.1,1.1c-0.2-1.7-0.4-5.7-0.4-8.3c0-0.6,0-0.6-0.1-2.5C1244.5,752.6,1244.9,750.3,1246.8,748.3z"/>
				
					<linearGradient id="SVGID_20_" gradientUnits="userSpaceOnUse" x1="1270.9321" y1="61.4037" x2="1295.131" y2="61.4037" gradientTransform="matrix(1 0 0 -1 0 792.2)">
					<stop  offset="0" style="stop-color:#000000"/>
					<stop  offset="5.284238e-002" style="stop-color:#030303"/>
					<stop  offset="8.310874e-002" style="stop-color:#0E0E0D"/>
					<stop  offset="0.1077" style="stop-color:#1C1B1B"/>
					<stop  offset="0.1292" style="stop-color:#2C2B2B"/>
					<stop  offset="0.1487" style="stop-color:#413E3E"/>
					<stop  offset="0.1665" style="stop-color:#5B5857"/>
					<stop  offset="0.1793" style="stop-color:#757272"/>
					<stop  offset="0.2534" style="stop-color:#565353"/>
					<stop  offset="0.3324" style="stop-color:#403E3D"/>
					<stop  offset="0.4126" style="stop-color:#312F2F"/>
					<stop  offset="0.4943" style="stop-color:#272626"/>
					<stop  offset="0.5793" style="stop-color:#242323"/>
					<stop  offset="0.7233" style="stop-color:#1E1D1D"/>
					<stop  offset="0.9352" style="stop-color:#0A0A09"/>
					<stop  offset="1" style="stop-color:#000000"/>
				</linearGradient>
				<path class="st20" d="M1291.5,738c1.2,0.9,2.4,1.5,3.6,1.9c-1-0.7-2.5-1.8-4.4-3.3c-2.8-2.2-6.5-5.1-10.1-8
					c-3.1-2.5-6.2-4.9-8.8-7c-0.1,0.9-0.6,1.4-0.8,1.6c0.6,0.1,1.1,0.5,1.6,0.9C1273.7,725.1,1288.6,735.9,1291.5,738z"/>
				
					<linearGradient id="SVGID_21_" gradientUnits="userSpaceOnUse" x1="1287.1453" y1="58.1217" x2="1331.6106" y2="58.1217" gradientTransform="matrix(1 0 0 -1 0 792.2)">
					<stop  offset="0" style="stop-color:#000000"/>
					<stop  offset="5.284238e-002" style="stop-color:#030303"/>
					<stop  offset="8.310874e-002" style="stop-color:#0E0E0D"/>
					<stop  offset="0.1077" style="stop-color:#1C1B1B"/>
					<stop  offset="0.1292" style="stop-color:#2C2B2B"/>
					<stop  offset="0.1487" style="stop-color:#413E3E"/>
					<stop  offset="0.1665" style="stop-color:#5B5857"/>
					<stop  offset="0.1793" style="stop-color:#757272"/>
					<stop  offset="0.2534" style="stop-color:#565353"/>
					<stop  offset="0.3324" style="stop-color:#403E3D"/>
					<stop  offset="0.4126" style="stop-color:#312F2F"/>
					<stop  offset="0.4943" style="stop-color:#272626"/>
					<stop  offset="0.5793" style="stop-color:#242323"/>
					<stop  offset="0.7233" style="stop-color:#1E1D1D"/>
					<stop  offset="0.9352" style="stop-color:#0A0A09"/>
					<stop  offset="1" style="stop-color:#000000"/>
				</linearGradient>
				<path class="st21" d="M1330.9,757c0.5-0.4,0.7-0.4,0.7-0.8c0-0.3-0.2-0.8-0.4-1.5c-3-8.6-14.4-29.8-23.3-41.6
					c-0.8-1.1-1.4-2.6-1.4-3.7c0-1.4,0.7-2.4,1.5-2.9c0.6-0.5,2.1-1.8,4.1-3.8c-3.1,2.3-5.2,4.1-5.5,5c-0.2,0.4-0.4,0.9-0.4,1.7
					c0,0.9,0.3,2.2,1.5,3.9c0.7,1,1.4,2,2.1,2.9c10.3,15.2,17.5,29.9,20.2,36.8c0.6,1.7,0.5,2.5-0.1,3.2c0,0-5.4,5.5-6,6.5
					c-0.3,0.4-0.5,0.8-0.8,1.1c-0.4,0.3-1.3,0.5-2.2,0.5c-7.9-0.8-16.5-1.1-20.9-1.1c-5.6,0-8.9,0.5-10.8,0.6c-1,0-1.7-0.2-1.8-0.4
					c0,0,0-0.1-0.1-0.1c-0.1,0.8-0.1,1.4-0.2,1.6c3.4-0.6,8-0.9,13.1-0.9c1.6,0,3.3,0,5,0.1c8.4,0.3,18.1,1,18.1,1
					C1323.4,765.3,1328,759.4,1330.9,757z"/>
				
					<linearGradient id="SVGID_22_" gradientUnits="userSpaceOnUse" x1="1199.6967" y1="101.5827" x2="1246.0375" y2="101.5827" gradientTransform="matrix(1 0 0 -1 0 792.2)">
					<stop  offset="0" style="stop-color:#53504F"/>
					<stop  offset="5.861221e-002" style="stop-color:#555251"/>
					<stop  offset="9.217577e-002" style="stop-color:#5C5959"/>
					<stop  offset="0.1194" style="stop-color:#696666"/>
					<stop  offset="0.1433" style="stop-color:#7D7A7A"/>
					<stop  offset="0.1647" style="stop-color:#9A9797"/>
					<stop  offset="0.1793" style="stop-color:#B5B3B3"/>
					<stop  offset="0.2826" style="stop-color:#807D7D"/>
					<stop  offset="0.3976" style="stop-color:#575454"/>
					<stop  offset="0.5148" style="stop-color:#3A3838"/>
					<stop  offset="0.633" style="stop-color:#242423"/>
					<stop  offset="0.7524" style="stop-color:#131312"/>
					<stop  offset="0.8737" style="stop-color:#050505"/>
					<stop  offset="1" style="stop-color:#000000"/>
				</linearGradient>
				<path class="st22" d="M1246,694.9c-2.5-1.8-5.2-3.6-7.6-5.1c-3.2-2-6.2-3.4-7.1-3.4c-9.7-0.2-9.7-0.2-15.4-0.2
					c-4.4,0-8.7,0.2-10.3,0.3c-3.4,0.2-5,0.7-5.4,0.7c-0.3,0.1-0.5,0.1-0.5,0.1c0.1,0.1,0.2,0.4,0.3,0.5c0.1,0,0.2-0.1,0.5-0.2
					c2-0.6,6.6-0.8,12.2-0.9c5.4,0,11.3,0,14.3,0.2c2.7,0.2,6.6,0.5,9.7,2.2C1239.5,690.9,1245.7,695.2,1246,694.9z"/>
				
					<linearGradient id="SVGID_23_" gradientUnits="userSpaceOnUse" x1="1200.6948" y1="129.7685" x2="1217.1986" y2="129.7685" gradientTransform="matrix(1 0 0 -1 0 792.2)">
					<stop  offset="0" style="stop-color:#242323"/>
					<stop  offset="5.047214e-002" style="stop-color:#262525"/>
					<stop  offset="7.938398e-002" style="stop-color:#2D2C2B"/>
					<stop  offset="0.1029" style="stop-color:#383635"/>
					<stop  offset="0.1234" style="stop-color:#484545"/>
					<stop  offset="0.142" style="stop-color:#5E5B5A"/>
					<stop  offset="0.1593" style="stop-color:#7D7A7A"/>
					<stop  offset="0.1752" style="stop-color:#A8A5A5"/>
					<stop  offset="0.1793" style="stop-color:#B5B3B3"/>
					<stop  offset="0.2826" style="stop-color:#807D7D"/>
					<stop  offset="0.3976" style="stop-color:#575454"/>
					<stop  offset="0.5148" style="stop-color:#3A3838"/>
					<stop  offset="0.633" style="stop-color:#242423"/>
					<stop  offset="0.7524" style="stop-color:#131312"/>
					<stop  offset="0.8737" style="stop-color:#050505"/>
					<stop  offset="1" style="stop-color:#000000"/>
				</linearGradient>
				<path class="st23" d="M1216.8,666.8c-3.7-3.4-9.2-7.4-11.9-7.9c-0.9-0.2-2.2-0.3-3.3-0.4c-0.8-0.1-0.8-1-1-1.1
					c0,0.2,0.1,1.6,0.6,1.6c0.7,0.1,2.7-0.2,4.5,0.6c2.5,1.2,8.7,5.8,9.7,6.9C1216.7,667.8,1217.8,667.7,1216.8,666.8z"/>
				
					<linearGradient id="SVGID_24_" gradientUnits="userSpaceOnUse" x1="1186.61" y1="105.7184" x2="1197.4673" y2="105.7184" gradientTransform="matrix(1 0 0 -1 0 792.2)">
					<stop  offset="0" style="stop-color:#53504F"/>
					<stop  offset="6.404780e-002" style="stop-color:#555251"/>
					<stop  offset="0.1007" style="stop-color:#5C5959"/>
					<stop  offset="0.1305" style="stop-color:#696666"/>
					<stop  offset="0.1564" style="stop-color:#7D7A7A"/>
					<stop  offset="0.1793" style="stop-color:#999696"/>
					<stop  offset="0.2797" style="stop-color:#787474"/>
					<stop  offset="0.4188" style="stop-color:#565453"/>
					<stop  offset="0.5603" style="stop-color:#403E3D"/>
					<stop  offset="0.7032" style="stop-color:#312F2F"/>
					<stop  offset="0.8486" style="stop-color:#272626"/>
					<stop  offset="1" style="stop-color:#242323"/>
				</linearGradient>
				<path class="st24" d="M1195.9,685.3c0.8,0,1,0,1.6,0.3c-0.4-0.6-0.8-0.9-2-0.9c-1.7,0-6.1,2.2-6.8,2.7c-1,0.6-1.5,0.6-2.1-0.1
					c0.3,0.7,0.8,1.1,1.2,1C1188.3,688.1,1193.6,685.3,1195.9,685.3z"/>
				
					<linearGradient id="SVGID_25_" gradientUnits="userSpaceOnUse" x1="1243.7042" y1="173.0274" x2="1244.8964" y2="170.4047" gradientTransform="matrix(1 0 0 -1 0 792.2)">
					<stop  offset="0" style="stop-color:#FFFFFF"/>
					<stop  offset="0.1154" style="stop-color:#DCDADA"/>
					<stop  offset="0.9066" style="stop-color:#373534"/>
				</linearGradient>
				<path class="st25" d="M1246.9,618.6c0.8-0.1,1.5-0.3,1.6,0.4c0,0.3,0,0.7-0.1,1c-0.1,0.2-0.2,0.4-0.6,0.5
					c-0.8,0.3-5.6,2-6.4,2.3c-0.6,0.2-1,0-1.1-0.4c-0.1-0.4,0-1.3,0.3-1.8c0.3-0.4,0.5-0.6,0.9-0.7
					C1241.9,619.8,1245.7,618.8,1246.9,618.6z"/>
				<path d="M1246.8,619c0.5-0.1,0.8-0.1,0.8,0.2c0,0.3,0,0.5,0,0.6c0,0.2-0.1,0.2-0.4,0.3c-0.5,0.2-4,1.4-4.8,1.8
					c-0.8,0.3-1.1,0.2-1.2-0.2c-0.1-0.3,0.1-0.8,0.2-1.1c0.1-0.2,0.3-0.4,0.6-0.5C1242.6,620,1245.8,619.2,1246.8,619z"/>
				
					<linearGradient id="SVGID_26_" gradientUnits="userSpaceOnUse" x1="1228.7655" y1="146.0127" x2="1272.6563" y2="146.0127" gradientTransform="matrix(1 0 0 -1 0 792.2)">
					<stop  offset="0.6868" style="stop-color:#FFFFFF"/>
					<stop  offset="0.7177" style="stop-color:#F1F0F0"/>
					<stop  offset="0.7562" style="stop-color:#D8D6D6"/>
					<stop  offset="0.7989" style="stop-color:#B5B2B2"/>
					<stop  offset="0.8445" style="stop-color:#8A8787"/>
					<stop  offset="0.8926" style="stop-color:#5C5958"/>
					<stop  offset="0.9418" style="stop-color:#2F2D2D"/>
					<stop  offset="0.9797" style="stop-color:#000000"/>
				</linearGradient>
				<path class="st26" d="M1266.1,664.1c0.6-1.1,4.4-9.1,5.3-11.5c0.6-1.5,1.3-2.9,1.3-4.8c0-1.2-0.3-3.1-1.2-4.8
					c-2.1-4.4-8.8-12.9-11.4-16.1c-2.3-2.7-4.3-3.1-8.1-3c-9.8,0.3-18.3,4.4-23.1,6.4c3.4-1.2,11.7-4.6,21-5.1
					c5.1-0.3,7.1,0.1,9,2.2c2.7,3,9,11.4,11.3,15.7c0.9,1.7,1.3,3.2,1.1,4.5c-0.2,2-0.9,3.4-1.5,4.7c-1,2.2-4.6,9.6-5.2,10.6
					c-2.6,4.5-5.1,4.4-7.8,3.8c0.2,0.1,1.4,0.7,2.5,1.1C1262.3,669.2,1264.3,667.5,1266.1,664.1z"/>
				
					<linearGradient id="SVGID_27_" gradientUnits="userSpaceOnUse" x1="1225.8599" y1="37.4507" x2="1242.1202" y2="94.9571" gradientTransform="matrix(1 0 0 -1 0 792.2)">
					<stop  offset="0" style="stop-color:#D5D3D3"/>
					<stop  offset="6.593400e-002" style="stop-color:#373534"/>
					<stop  offset="0.2502" style="stop-color:#585554"/>
					<stop  offset="0.3517" style="stop-color:#676464"/>
					<stop  offset="0.4798" style="stop-color:#7E7B7B"/>
					<stop  offset="0.6044" style="stop-color:#918E8E"/>
					<stop  offset="0.7098" style="stop-color:#757171"/>
					<stop  offset="0.8713" style="stop-color:#545151"/>
					<stop  offset="0.9586" style="stop-color:#494646"/>
					<stop  offset="1" style="stop-color:#8C8888"/>
				</linearGradient>
				<path class="st27" d="M1254.2,699.5c-0.1-0.1-0.6-0.4-1.2-0.8c-1.5,1.7-8.1,9.9-12.7,17.3c-3.5,5.5-8.5,13.8-9.3,15.6
					c-0.7,1.7-1,3.2-1,5.1c0,0,0.3,8.9,0.3,9c0,1.1-0.2,2-0.8,2.7c-0.6,0.7-1.5,1-2.8,1.2c-2.1,0.3-11.8,1.8-14.5,2.4
					c-2.6,0.6-3.7,1.8-4.3,3.5c-0.4,1.2-0.9,3.4-0.9,4.3c0,0,0,0.5,0,0.5c-0.1,1,0.3,0.9,0.3,0.9s11.3-0.9,18-0.5
					c6.7,0.4,16,1.3,16,1.3s-9.7-1.8-16.4-2.2c-6.6-0.4-15.4,0.3-15.5-0.1c-0.1-0.3-0.2-0.7-0.2-1.5c0.1-0.5,0.2-1.1,0.4-1.8
					c0.4-1.6,1.2-3.1,3.8-3.7c2.5-0.6,11.9-2.2,13.7-2.6s2.9-1.1,3.2-2.5c0.1-0.5,0.1-1.5,0.1-2.4c0-1.9-0.3-7-0.3-7.3
					c0.1-3.1,0.2-4.7,2.2-8.1c3.1-5.2,15-23.2,20.9-29.5c0.4-0.4,0.5-0.7,1.2-0.6C1254.5,699.6,1254.4,699.6,1254.2,699.5z"/>
			</g>
		</g>
		<g>
			<path class="st28" d="M1112.7,802.6v26.3h7.2v-8.1h6.5c13.9,0,21-4.4,21-9.4c0-5.3-7.6-8.8-20.4-8.8H1112.7z M1120,817.9v-12.4
				h5.7c5.9,0,13.6,1,13.6,5.9c0,3.3-2.5,6.5-14.6,6.5H1120z"/>
			<path class="st28" d="M1188.6,828.9v-3.3h-17.8c-3.8,0-4.9-1.7-4.9-4.7v-3.8h20.9v-3.3h-20.9v-7.8h21.9v-3.3h-29.1v18.5
				c0,4.9,2.1,7.8,8.7,7.8L1188.6,828.9L1188.6,828.9z"/>
			<path class="st28" d="M1234.9,802.6h-7.2v22.2c-2,0.7-4.7,1.3-8.5,1.3c-5.6,0-11.1-1.4-11.1-6.3v-17.2h-7.2v17.7
				c0,7.2,7.2,9.4,15.2,9.4c7.6,0,13.8-1.6,18.9-3.7V802.6z"/>
			<path class="st28" d="M1255,815.8c0-7.3,6.2-10.7,13.7-10.7c6.2,0,10.9,1.8,15.5,3.3V804c-4.8-1.4-9.3-2.2-15.5-2.2
				c-12.1,0-22,5.6-22,14c0,8.9,9.9,13.9,22,13.9c6,0,12.4-1.2,16.3-2.2V817h-7.1v7.8c-2.6,0.9-4.5,1.6-8.6,1.6
				C1261,826.4,1255,822.3,1255,815.8"/>
			<path class="st28" d="M1328.2,828.9v-3.3h-17.8c-3.8,0-4.9-1.7-4.9-4.7v-3.8h20.9v-3.3h-20.9v-7.8h21.9v-3.3h-29.1v18.5
				c0,4.9,2,7.8,8.7,7.8L1328.2,828.9L1328.2,828.9z"/>
			<path class="st28" d="M1359.6,801.8c-12.1,0-22,5.7-22,14.1c0,8.9,9.9,13.8,22,13.8c12.1,0,22-4.9,22-13.8
				C1381.5,807.5,1371.7,801.8,1359.6,801.8 M1359.6,826.8c-8.2,0-13.8-4.2-13.8-10.8c0-7.2,6.2-10.8,13.8-10.8
				c7.6,0,13.7,3.6,13.7,10.8C1373.3,822.5,1367.7,826.8,1359.6,826.8"/>
			<polygon class="st28" points="1387.4,806.4 1401.9,806.4 1401.9,828.9 1409.1,828.9 1409.1,806.4 1423.5,806.4 1423.5,802.6 
				1387.4,802.6 			"/>
		</g>
	</g>
</g>
</svg>
