<?xml version="1.0" encoding="utf-8"?>
<!-- Generator: Adobe Illustrator 19.1.1, SVG Export Plug-In . SVG Version: 6.00 Build 0)  -->
<svg version="1.1" id="Layer_1" xmlns="http://www.w3.org/2000/svg" xmlns:xlink="http://www.w3.org/1999/xlink" x="0px" y="0px"
	 viewBox="0 0 192.8 192.8" style="enable-background:new 0 0 192.8 192.8;" xml:space="preserve">
<style type="text/css">
	.st0{fill-rule:evenodd;clip-rule:evenodd;fill:#12472F;}
	.st1{fill-rule:evenodd;clip-rule:evenodd;fill:#FFFFFF;}
	.st2{fill-rule:evenodd;clip-rule:evenodd;fill:#FDE631;}
</style>
<g>
	<path class="st0" d="M48.1,78.7c12,0,22.7,0,34.8,0c5,0,6.5,0.9,7.5,1.7c0.4,0.3,0.4,0.5,0.5-0.1c0-0.4,0.1-0.7,0.1-1.1
		c0-0.4,0.1-0.5,0.5-0.5c21.3,0,42.2,0,63.5,0c0.6,0,0.6,0,0.7,0.6c0.3,1.9,0.5,3.8,0.8,5.7c0.1,0.7,0,0.8,0.5,0.3
		c3.7-4.4,8.7-7,13.1-6.6c0.6,0.1,0.5,0.1,0.7-0.5c0.7-2.1,1.3-4.1,2-6.2c0.3-0.8,0.3-0.8,0.7-0.1c3.3,5.4,6.6,10.8,10,16.2
		c0.9,1.5,1.2,1.3-0.5,2c-5.7,2.3-10.9,4.5-16.6,6.9c-1.3,0.6-1.6,0.7-1.2-0.7c0.1-0.5,0.4-1,0.3-1.1c-0.1,0-0.2,0.1-0.6,0.6
		c-3.5,3.9-5.8,7.8-7.3,11.7c-0.3,0.8-0.4,0.7,0.5,0.7c1.1,0,2.3,0,3.4,0c1.4,0,1.9,0.8,1.9,2c0,1.2,0,2.4,0,3.6
		c0,1.9-0.9,2.5-2.4,2.5c-10.7,0-21.4,0-32,0c-1.1,0-1.1,0.1-1-1c0.2-1.2,0.4-2.3,0.6-3.5c0.1-0.4,0.2-0.5-0.2-0.5
		c-0.1,0-0.2,0-0.3,0c-0.3,0-0.4,0.3-0.5,0.5c-0.6,1.1-1.2,2.2-1.8,3.3c-0.6,1.1-0.5,1.1-1.8,1.1c-12.1,0-24,0-36,0
		c-1.3,0-1.2,0-1.1-1.3c0.1-0.7,0.1-1.2,0.2-1.9c0.1-1.1,0-0.9-0.6-0.3c-3.4,2.8-7.9,3.5-12.8,3.5c-4.6,0-8.8,0-13.4,0
		c-1.2,0-1.2,0-0.9-1.1c0.2-0.5,0.3-1,0.5-1.4c-3.3,2.3-7.1,3.4-10.7,3.4c-4.2,0-8-1.8-9.5-5c-5.8,5.4-15,5.6-17.7,4.3
		c-0.7,2.1-1.5,4.2-2.2,6.3c-0.2,0.4-0.3,0.4-0.6,0c-3.5-5.8-7-11.5-10.5-17.3c-0.5-0.8-0.3-0.8,0.6-1.2c4.6-2,9.3-3.9,13.9-5.9
		c0.7-0.3,0.7-0.2,0.5-0.9c-2-8.4,2-14.3,7.3-17c5.1-2.6,11.5-2.3,15.4,0.2c0.5,0.3,0.5,0.5,0.7-0.2c0.1-0.4,0.2-0.7,0.4-1.1
		C47.7,78.7,47.6,78.7,48.1,78.7L48.1,78.7z"/>
	<path class="st1" d="M155.8,110.9h2.1v0.3h-0.8v2h-0.4v-2h-0.8V110.9L155.8,110.9z M158.2,110.9h0.6l0.6,1.9l0.6-1.9h0.6v2.3h-0.4
		v-1.9l-0.7,1.9h-0.4l-0.6-1.9v1.9h-0.4V110.9L158.2,110.9z"/>
	<path class="st1" d="M49.5,81.7c2.8,0,5.6,0,8.4,0c-2.3,7.1-4.9,15-7.3,22.1c-1,3.2,3.2,3.2,4.3-0.1c2.3-7.1,4.9-14.9,7.3-22.1
		c2.9,0,5.8,0,8.7,0c-2.4,7.3-4.7,14.4-7.1,21.7c-2.1,6.3-7.5,10.7-14.2,10.7c-6.8,0-9.1-4.5-7.1-10.7C44.8,96.1,47.1,89,49.5,81.7
		L49.5,81.7z M12.6,105.9c3.8-1.6,7.6-3.2,11.4-4.8c-0.4,1.4-0.9,2.7-1.3,4.1c1.8,1.2,7,1.9,7.9-0.8c0.7-1.5-0.7-3.1-2.1-5.1
		c-1.6-2.4-3.2-5.3-1.9-9.2c1.8-5.5,6.6-8.7,11.6-8.8c2.6-0.1,5.5,0.7,7.8,2.3c-1,2.1-2.1,4.4-3.2,6.5c-1.9-1.3-5.9-2.4-7.3,0.2
		c-1.5,2.9,1.8,6,3.2,8.2c2,3.1,2.1,6,1,8.4c-1.9,4.1-7.2,6.9-12.3,6.9c-2.7,0.1-4.9-0.4-7.4-0.8c-0.4,1.2-0.8,2.4-1.2,3.6
		C16.8,113,14.7,109.5,12.6,105.9L12.6,105.9z M73.4,81.7c3.8,0,8,0,11.8,0c8.7,0,7,12.2-0.1,15.3c8.7,6.4,0.7,16.4-8.9,16.4
		c-4.1,0-9,0-13.2,0C66.5,102.8,70,92.3,73.4,81.7L73.4,81.7z M79.2,88.6h2.3c1.5,0,2.3,1.2,1.7,2.6l-0.1,0.3
		c-0.5,1.5-2.2,2.6-3.6,2.6h-2L79.2,88.6L79.2,88.6z M75.7,100.9H78c1.5,0,2.5,1.1,2.3,2.6l-0.1,0.3c-0.2,1.4-1.6,2.6-3.1,2.6h-3
		L75.7,100.9L75.7,100.9z"/>
	<path class="st2" d="M145.3,81.7c2.6,0,5.1,0,7.7,0c0.6,3.9,1.1,7.8,1.7,11.7c5.5-8.1,10.2-12.6,18.5-11.7c0.4-1.2,0.8-2.3,1.2-3.5
		c2,3.2,4,6.5,6,9.7c-3.5,1.5-7.1,3-10.6,4.5c0.4-1.3,0.8-2.6,1.3-3.8c-2-1.6-12.9,5.5-18.6,24.9c-3,0-5.9,0-8.9,0
		c1.5-4.7,3.1-9.3,4.6-14C147.1,93.5,146.2,87.6,145.3,81.7L145.3,81.7z M132.7,81.7h11.2l-3.7,31.7h-8.3l0.9-5.3h-6.7l-2.8,5.3
		h-7.6L132.7,81.7L132.7,81.7z M135.8,90.1l-2,11.9h-4.4L135.8,90.1L135.8,90.1z M93.8,81.7l-3.7,31.7h8l9.4-20.1l-3.3,20.1h7.8
		l17-31.7h-8.1l-9.2,19.7l3.3-19.7h-7l-9.5,19.9l3.3-19.9H93.8L93.8,81.7z"/>
</g>
</svg>
