<?xml version="1.0" encoding="utf-8"?>
<!-- Generator: Adobe Illustrator 19.1.1, SVG Export Plug-In . SVG Version: 6.00 Build 0)  -->
<svg version="1.1" id="Layer_1" xmlns="http://www.w3.org/2000/svg" xmlns:xlink="http://www.w3.org/1999/xlink" x="0px" y="0px"
	 viewBox="-436 31.7 440 476.3" style="enable-background:new -436 31.7 440 476.3;" xml:space="preserve">
<style type="text/css">
	.st0{fill:#12472F;}
	.st1{fill:#FFFFFF;}
	.st2{fill:#FDE631;}
</style>
<g>
	<path class="st0" d="M-313,240.8c24.7,0,46.7,0,71.6,0c10.3,0,13.4,1.9,15.4,3.5c0.8,0.6,0.8,1,1-0.2c0-0.8,0.2-1.4,0.2-2.3
		c0-0.8,0.2-1,1-1c43.8,0,86.9,0,130.7,0c1.2,0,1.2,0,1.4,1.2c0.6,3.9,1,7.8,1.6,11.7c0.2,1.4,0,1.6,1,0.6
		c7.6-9.1,17.9-14.4,27-13.6c1.2,0.2,1,0.2,1.4-1c1.4-4.3,2.7-8.4,4.1-12.8c0.6-1.6,0.6-1.6,1.4-0.2c6.8,11.1,13.6,22.2,20.6,33.3
		c1.9,3.1,2.5,2.7-1,4.1c-11.7,4.7-22.4,9.3-34.2,14.2c-2.7,1.2-3.3,1.4-2.5-1.4c0.2-1,0.8-2.1,0.6-2.3c-0.2,0-0.4,0.2-1.2,1.2
		c-7.2,8-11.9,16.1-15,24.1c-0.6,1.6-0.8,1.4,1,1.4c2.3,0,4.7,0,7,0c2.9,0,3.9,1.6,3.9,4.1c0,2.5,0,4.9,0,7.4c0,3.9-1.9,5.1-4.9,5.1
		c-22,0-44.1,0-65.9,0c-2.3,0-2.3,0.2-2.1-2.1c0.4-2.5,0.8-4.7,1.2-7.2c0.2-0.8,0.4-1-0.4-1c-0.2,0-0.4,0-0.6,0c-0.6,0-0.8,0.6-1,1
		c-1.2,2.3-2.5,4.5-3.7,6.8c-1.2,2.3-1,2.3-3.7,2.3c-24.9,0-49.4,0-74.1,0c-2.7,0-2.5,0-2.3-2.7c0.2-1.4,0.2-2.5,0.4-3.9
		c0.2-2.3,0-1.9-1.2-0.6c-7,5.8-16.3,7.2-26.4,7.2c-9.5,0-18.1,0-27.6,0c-2.5,0-2.5,0-1.9-2.3c0.4-1,0.6-2.1,1-2.9
		c-6.8,4.7-14.6,7-22,7c-8.6,0-16.5-3.7-19.6-10.3c-11.9,11.1-30.9,11.5-36.4,8.9c-1.4,4.3-3.1,8.6-4.5,13c-0.4,0.8-0.6,0.8-1.2,0
		c-7.2-11.9-14.4-23.7-21.6-35.6c-1-1.6-0.6-1.6,1.2-2.5c9.5-4.1,19.1-8,28.6-12.1c1.4-0.6,1.4-0.4,1-1.9c-4.1-17.3,4.1-29.4,15-35
		c10.5-5.4,23.7-4.7,31.7,0.4c1,0.6,1,1,1.4-0.4c0.2-0.8,0.4-1.4,0.8-2.3C-313.8,240.8-314,240.8-313,240.8L-313,240.8z"/>
	<path class="st1" d="M-91.2,307.1h4.3v0.6h-1.6v4.1h-0.8v-4.1H-91v-0.6H-91.2z M-86.3,307.1h1.2l1.2,3.9l1.2-3.9h1.2v4.7h-0.8v-3.9
		l-1.4,3.9h-0.8l-1.2-3.9v3.9h-0.8v-4.7H-86.3z"/>
	<path class="st1" d="M-310.1,247c5.8,0,11.5,0,17.3,0c-4.7,14.6-10.1,30.9-15,45.5c-2.1,6.6,6.6,6.6,8.9-0.2
		c4.7-14.6,10.1-30.7,15-45.5c6,0,11.9,0,17.9,0c-4.9,15-9.7,29.6-14.6,44.7c-4.3,13-15.4,22-29.2,22c-14,0-18.7-9.3-14.6-22
		C-319.7,276.6-315,262-310.1,247L-310.1,247z M-386,296.8c7.8-3.3,15.6-6.6,23.5-9.9c-0.8,2.9-1.9,5.6-2.7,8.4
		c3.7,2.5,14.4,3.9,16.3-1.6c1.4-3.1-1.4-6.4-4.3-10.5c-3.3-4.9-6.6-10.9-3.9-18.9c3.7-11.3,13.6-17.9,23.9-18.1
		c5.4-0.2,11.3,1.4,16.1,4.7c-2.1,4.3-4.3,9.1-6.6,13.4c-3.9-2.7-12.1-4.9-15,0.4c-3.1,6,3.7,12.4,6.6,16.9
		c4.1,6.4,4.3,12.4,2.1,17.3c-3.9,8.4-14.8,14.2-25.3,14.2c-5.6,0.2-10.1-0.8-15.2-1.6c-0.8,2.5-1.6,4.9-2.5,7.4
		C-377.4,311.4-381.7,304.2-386,296.8L-386,296.8z M-260.9,247c7.8,0,16.5,0,24.3,0c17.9,0,14.4,25.1-0.2,31.5
		c17.9,13.2,1.4,33.8-18.3,33.8c-8.4,0-18.5,0-27.2,0C-275.1,290.4-267.9,268.8-260.9,247L-260.9,247z M-248.9,261.4h4.7
		c3.1,0,4.7,2.5,3.5,5.4l-0.2,0.6c-1,3.1-4.5,5.4-7.4,5.4h-4.1L-248.9,261.4L-248.9,261.4z M-256.1,286.5h4.7c3.1,0,5.1,2.3,4.7,5.4
		l-0.2,0.6c-0.4,2.9-3.3,5.4-6.4,5.4h-6.2L-256.1,286.5L-256.1,286.5z"/>
	<path class="st2" d="M-112.9,247c5.4,0,10.5,0,15.9,0c1.2,8,2.3,16.1,3.5,24.1c11.3-16.7,21-25.9,38.1-24.1
		c0.8-2.5,1.6-4.7,2.5-7.2c4.1,6.6,8.2,13.4,12.4,20c-7.2,3.1-14.6,6.2-21.8,9.3c0.8-2.7,1.6-5.4,2.7-7.8
		c-4.1-3.3-26.6,11.3-38.3,51.3c-6.2,0-12.1,0-18.3,0c3.1-9.7,6.4-19.1,9.5-28.8C-109.1,271.3-111,259.1-112.9,247L-112.9,247z
		 M-138.8,247h23.1l-7.6,65.3h-17.1l1.9-10.9h-13.8l-5.8,10.9h-15.6L-138.8,247L-138.8,247z M-132.4,264.3l-4.1,24.5h-9.1
		L-132.4,264.3L-132.4,264.3z M-218.9,247l-7.6,65.3h16.5l19.4-41.4l-6.8,41.4h16.1l35-65.3h-16.7l-18.9,40.6l6.8-40.6h-14.4
		l-19.6,41l6.8-41L-218.9,247L-218.9,247z"/>
</g>
</svg>
