<?xml version="1.0" encoding="UTF-8" standalone="no"?>
<svg
   xmlns:dc="http://purl.org/dc/elements/1.1/"
   xmlns:cc="http://creativecommons.org/ns#"
   xmlns:rdf="http://www.w3.org/1999/02/22-rdf-syntax-ns#"
   xmlns:svg="http://www.w3.org/2000/svg"
   xmlns="http://www.w3.org/2000/svg"
   viewBox="0 0 2721.375 2125.9875"
   height="2125.9875"
   width="2721.375"
   xml:space="preserve"
   version="1.1"
   id="svg3473"><metadata
     id="metadata3479"><rdf:RDF><cc:Work
         rdf:about=""><dc:format>image/svg+xml</dc:format><dc:type
           rdf:resource="http://purl.org/dc/dcmitype/StillImage" /><dc:title></dc:title></cc:Work></rdf:RDF></metadata><defs
     id="defs3477"><clipPath
       id="clipPath3489"
       clipPathUnits="userSpaceOnUse"><path
         id="path3491"
         d="m 0,1700.79 2177.1,0 L 2177.1,0 0,0 0,1700.79 Z" /></clipPath></defs><g
     transform="matrix(1.25,0,0,-1.25,0,2125.9875)"
     id="g3481"><path
       id="path3483"
       style="fill:#00a8e2;fill-opacity:1;fill-rule:nonzero;stroke:none"
       d="m 646.732,307.507 -466.24,0 0,710.262 466.24,0 0,-710.262 z" /><g
       id="g3485"><g
         clip-path="url(#clipPath3489)"
         id="g3487"><g
           transform="translate(905.2743,511.6289)"
           id="g3493"><path
             id="path3495"
             style="fill:#1e130f;fill-opacity:1;fill-rule:nonzero;stroke:none"
             d="m 0,0 14.668,0 0,-6.716 c 2.509,2.758 5.296,4.818 8.361,6.179 3.064,1.361 6.407,2.042 10.028,2.042 3.655,0 6.953,-0.896 9.893,-2.687 2.939,-1.792 5.305,-4.406 7.097,-7.844 2.329,3.438 5.188,6.052 8.576,7.844 3.387,1.791 7.088,2.687 11.103,2.687 4.157,0 7.814,-0.968 10.968,-2.901 3.155,-1.935 5.422,-4.46 6.802,-7.577 1.38,-3.116 2.07,-8.185 2.07,-15.205 l 0,-34.279 -14.775,0 0,29.658 c 0,6.627 -0.824,11.113 -2.472,13.459 -1.648,2.346 -4.119,3.52 -7.414,3.52 -2.508,0 -4.755,-0.717 -6.743,-2.15 -1.988,-1.432 -3.466,-3.411 -4.433,-5.936 -0.967,-2.526 -1.451,-6.582 -1.451,-12.17 l 0,-26.381 -14.775,0 0,28.315 c 0,5.23 -0.386,9.017 -1.158,11.364 -0.772,2.345 -1.93,4.091 -3.473,5.239 -1.544,1.145 -3.412,1.719 -5.602,1.719 -2.441,0 -4.658,-0.726 -6.651,-2.176 -1.994,-1.451 -3.483,-3.484 -4.47,-6.099 -0.987,-2.615 -1.481,-6.734 -1.481,-12.357 l 0,-26.005 L 0,-58.457 0,0 Z" /></g><g
           transform="translate(1053.8075,489.708)"
           id="g3497"><path
             id="path3499"
             style="fill:#1e130f;fill-opacity:1;fill-rule:nonzero;stroke:none"
             d="m 0,0 c -0.969,3.259 -2.88,5.91 -5.732,7.951 -2.853,2.042 -6.163,3.063 -9.93,3.063 -4.09,0 -7.678,-1.147 -10.764,-3.439 C -28.363,6.143 -30.157,3.617 -31.808,0 L 0,0 Z m 14.668,-11.552 -47.121,0 c 0.681,-4.156 2.499,-7.46 5.454,-9.913 2.955,-2.454 6.725,-3.681 11.31,-3.681 5.481,0 10.19,1.917 14.131,5.75 l 12.357,-5.803 c -3.081,-4.37 -6.77,-7.603 -11.068,-9.698 -4.298,-2.096 -9.402,-3.144 -15.313,-3.144 -9.169,0 -16.638,2.893 -22.405,8.678 -5.767,5.784 -8.65,13.029 -8.65,21.733 0,8.919 2.874,16.324 8.623,22.217 5.749,5.892 12.957,8.839 21.626,8.839 9.206,0 16.692,-2.947 22.459,-8.839 5.767,-5.893 8.651,-13.674 8.651,-23.345 l -0.054,-2.794 z" /></g><g
           transform="translate(1109.1752,499.5937)"
           id="g3501"><path
             id="path3503"
             style="fill:#1e130f;fill-opacity:1;fill-rule:nonzero;stroke:none"
             d="m 0,0 c -4.534,0 -8.3,-1.604 -11.299,-4.809 -2.999,-3.206 -4.498,-7.316 -4.498,-12.331 0,-5.05 1.526,-9.206 4.577,-12.464 3.053,-3.26 6.81,-4.89 11.273,-4.89 4.605,0 8.426,1.602 11.46,4.808 3.033,3.207 4.551,7.406 4.551,12.6 0,5.086 -1.518,9.205 -4.551,12.357 C 8.479,-1.576 4.641,0 0,0 m 15.42,34.602 14.668,0 0,-81.024 -14.668,0 0,6.179 c -2.863,-2.723 -5.734,-4.684 -8.614,-5.883 -2.88,-1.2 -6.001,-1.801 -9.365,-1.801 -7.548,0 -14.079,2.929 -19.588,8.785 -5.51,5.857 -8.265,13.137 -8.265,21.841 0,9.027 2.666,16.423 7.997,22.191 5.331,5.766 11.806,8.65 19.427,8.65 3.506,0 6.797,-0.663 9.874,-1.988 3.077,-1.325 5.921,-3.314 8.534,-5.964 l 0,29.014 z" /></g><path
           id="path3505"
           style="fill:#1e130f;fill-opacity:1;fill-rule:nonzero;stroke:none"
           d="m 1153.58,511.629 14.668,0 0,-58.457 -14.668,0 0,58.457 z m 7.334,24.071 c 2.572,0 4.778,-0.932 6.617,-2.794 1.839,-1.863 2.759,-4.12 2.759,-6.77 0,-2.616 -0.911,-4.845 -2.732,-6.69 -1.822,-1.844 -4.001,-2.766 -6.536,-2.766 -2.608,0 -4.831,0.94 -6.671,2.821 -1.839,1.88 -2.759,4.163 -2.759,6.85 0,2.579 0.91,4.782 2.733,6.609 1.821,1.826 4.017,2.74 6.589,2.74" /><g
           transform="translate(1210.3715,499.3252)"
           id="g3507"><path
             id="path3509"
             style="fill:#1e130f;fill-opacity:1;fill-rule:nonzero;stroke:none"
             d="m 0,0 c -4.558,0 -8.352,-1.585 -11.384,-4.755 -3.032,-3.17 -4.547,-7.226 -4.547,-12.17 0,-5.087 1.497,-9.206 4.493,-12.357 2.997,-3.153 6.791,-4.729 11.384,-4.729 4.592,0 8.413,1.594 11.463,4.782 3.05,3.188 4.575,7.289 4.575,12.304 0,5.015 -1.499,9.089 -4.494,12.224 C 8.494,-1.567 4.664,0 0,0 m -0.242,13.809 c 5.515,0 10.7,-1.38 15.555,-4.138 4.853,-2.758 8.641,-6.501 11.363,-11.23 2.721,-4.727 4.084,-9.832 4.084,-15.312 0,-5.517 -1.37,-10.674 -4.111,-15.474 -2.74,-4.801 -6.474,-8.552 -11.202,-11.257 -4.728,-2.704 -9.94,-4.056 -15.635,-4.056 -8.382,0 -15.538,2.982 -21.465,8.946 -5.929,5.964 -8.892,13.208 -8.892,21.733 0,9.134 3.349,16.746 10.047,22.835 5.874,5.301 12.626,7.953 20.256,7.953" /></g><g
           transform="translate(1289.9965,503.4619)"
           id="g3511"><path
             id="path3513"
             style="fill:#1e130f;fill-opacity:1;fill-rule:nonzero;stroke:none"
             d="m 0,0 -9.08,-9.08 c -3.69,3.654 -7.039,5.48 -10.048,5.48 -1.647,0 -2.937,-0.348 -3.868,-1.047 -0.932,-0.699 -1.397,-1.568 -1.397,-2.606 0,-0.788 0.295,-1.514 0.886,-2.176 0.592,-0.663 2.051,-1.567 4.379,-2.714 l 5.373,-2.686 c 5.659,-2.794 9.546,-5.642 11.659,-8.543 2.114,-2.901 3.17,-6.305 3.17,-10.208 0,-5.194 -1.907,-9.528 -5.721,-13.003 -3.815,-3.475 -8.929,-5.212 -15.34,-5.212 -8.526,0 -15.331,3.332 -20.417,9.994 l 9.026,9.832 c 1.72,-2.006 3.734,-3.626 6.045,-4.862 2.31,-1.235 4.36,-1.854 6.151,-1.854 1.935,0 3.494,0.465 4.675,1.398 1.182,0.931 1.774,2.005 1.774,3.224 0,2.255 -2.132,4.459 -6.395,6.608 l -4.942,2.472 c -9.457,4.763 -14.185,10.727 -14.185,17.891 0,4.621 1.781,8.57 5.346,11.848 3.563,3.277 8.121,4.916 13.674,4.916 3.797,0 7.369,-0.833 10.719,-2.499 C -5.167,5.508 -2.329,3.117 0,0" /></g><g
           transform="translate(1365.5912,499.5937)"
           id="g3515"><path
             id="path3517"
             style="fill:#1e130f;fill-opacity:1;fill-rule:nonzero;stroke:none"
             d="m 0,0 c -4.621,0 -8.454,-1.576 -11.498,-4.729 -3.045,-3.152 -4.567,-7.271 -4.567,-12.357 0,-5.194 1.522,-9.393 4.567,-12.6 3.044,-3.206 6.877,-4.808 11.498,-4.808 4.478,0 8.247,1.63 11.31,4.89 3.062,3.258 4.593,7.414 4.593,12.464 0,5.015 -1.504,9.125 -4.512,12.331 C 8.382,-1.604 4.585,0 0,0 m -15.42,12.035 0,-6.447 c 2.65,2.65 5.516,4.639 8.597,5.964 3.08,1.325 6.375,1.988 9.886,1.988 7.629,0 14.112,-2.884 19.45,-8.65 5.337,-5.768 8.006,-13.164 8.006,-22.191 0,-8.704 -2.759,-15.984 -8.275,-21.841 -5.516,-5.856 -12.054,-8.785 -19.611,-8.785 -3.367,0 -6.501,0.601 -9.403,1.801 -2.901,1.199 -5.785,3.16 -8.65,5.883 l 0,-27.563 -14.56,0 0,79.841 14.56,0 z" /></g><g
           transform="translate(1409.2992,511.6289)"
           id="g3519"><path
             id="path3521"
             style="fill:#1e130f;fill-opacity:1;fill-rule:nonzero;stroke:none"
             d="m 0,0 14.829,0 0,-28.153 c 0,-5.481 0.377,-9.287 1.131,-11.418 0.754,-2.132 1.966,-3.788 3.636,-4.97 1.669,-1.183 3.724,-1.773 6.167,-1.773 2.441,0 4.514,0.582 6.22,1.746 1.706,1.164 2.971,2.875 3.797,5.131 0.611,1.683 0.916,5.283 0.916,10.799 l 0,28.638 14.668,0 0,-24.769 c 0,-10.209 -0.805,-17.193 -2.417,-20.955 -1.97,-4.585 -4.872,-8.104 -8.704,-10.557 -3.834,-2.453 -8.705,-3.681 -14.615,-3.681 -6.412,0 -11.597,1.434 -15.554,4.299 -3.959,2.865 -6.743,6.858 -8.355,11.981 C 0.572,-40.136 0,-33.688 0,-24.339 L 0,0 Z" /></g><g
           transform="translate(1506.4672,499.5937)"
           id="g3523"><path
             id="path3525"
             style="fill:#1e130f;fill-opacity:1;fill-rule:nonzero;stroke:none"
             d="m 0,0 c -4.621,0 -8.454,-1.576 -11.498,-4.729 -3.045,-3.152 -4.567,-7.271 -4.567,-12.357 0,-5.194 1.522,-9.393 4.567,-12.6 3.044,-3.206 6.877,-4.808 11.498,-4.808 4.478,0 8.247,1.63 11.31,4.89 3.062,3.258 4.593,7.414 4.593,12.464 0,5.015 -1.504,9.125 -4.512,12.331 C 8.382,-1.604 4.585,0 0,0 m -15.42,34.602 0,-29.014 c 2.65,2.65 5.516,4.639 8.597,5.964 3.08,1.325 6.375,1.988 9.886,1.988 7.629,0 14.112,-2.884 19.45,-8.65 5.337,-5.768 8.006,-13.164 8.006,-22.191 0,-8.704 -2.759,-15.984 -8.275,-21.841 -5.516,-5.856 -12.054,-8.785 -19.611,-8.785 -3.367,0 -6.501,0.601 -9.403,1.801 -2.901,1.199 -5.785,3.16 -8.65,5.883 l 0,-6.179 -14.56,0 0,81.024 14.56,0 z" /></g><path
           id="path3527"
           style="fill:#1e130f;fill-opacity:1;fill-rule:nonzero;stroke:none"
           d="m 1548.617,534.195 14.668,0 0,-81.023 -14.668,0 0,81.023 z" /><path
           id="path3529"
           style="fill:#1e130f;fill-opacity:1;fill-rule:nonzero;stroke:none"
           d="m 1576.098,511.629 14.668,0 0,-58.457 -14.668,0 0,58.457 z m 7.334,24.071 c 2.571,0 4.777,-0.932 6.616,-2.794 1.84,-1.863 2.76,-4.12 2.76,-6.77 0,-2.616 -0.911,-4.845 -2.732,-6.69 -1.823,-1.844 -4.001,-2.766 -6.537,-2.766 -2.607,0 -4.831,0.94 -6.67,2.821 -1.839,1.88 -2.759,4.163 -2.759,6.85 0,2.579 0.91,4.782 2.732,6.609 1.821,1.826 4.018,2.74 6.59,2.74" /><g
           transform="translate(1662.4115,499.8086)"
           id="g3531"><path
             id="path3533"
             style="fill:#1e130f;fill-opacity:1;fill-rule:nonzero;stroke:none"
             d="m 0,0 -12.21,-6.716 c -2.296,2.4 -4.564,4.065 -6.806,4.997 -2.241,0.931 -4.868,1.397 -7.88,1.397 -5.487,0 -9.925,-1.636 -13.314,-4.908 -3.389,-3.273 -5.083,-7.466 -5.083,-12.581 0,-4.971 1.631,-9.031 4.895,-12.177 3.263,-3.148 7.549,-4.721 12.856,-4.721 6.563,0 11.674,2.238 15.332,6.716 l 11.565,-7.919 c -6.268,-8.153 -15.116,-12.23 -26.542,-12.23 -10.28,0 -18.331,3.045 -24.151,9.135 -5.821,6.089 -8.73,13.217 -8.73,21.384 0,5.659 1.414,10.871 4.244,15.635 2.829,4.763 6.778,8.507 11.847,11.229 5.068,2.722 10.737,4.084 17.005,4.084 5.803,0 11.015,-1.155 15.635,-3.466 C -6.716,7.549 -2.938,4.263 0,0" /></g><path
           id="path3535"
           style="fill:#1e130f;fill-opacity:1;fill-rule:nonzero;stroke:none"
           d="m 1675.119,511.629 14.668,0 0,-58.457 -14.668,0 0,58.457 z m 7.334,24.071 c 2.571,0 4.777,-0.932 6.616,-2.794 1.84,-1.863 2.759,-4.12 2.759,-6.77 0,-2.616 -0.911,-4.845 -2.732,-6.69 -1.822,-1.844 -4.001,-2.766 -6.536,-2.766 -2.607,0 -4.831,0.94 -6.671,2.821 -1.839,1.88 -2.759,4.163 -2.759,6.85 0,2.579 0.91,4.782 2.733,6.609 1.821,1.826 4.017,2.74 6.59,2.74" /><g
           transform="translate(1705.9847,533.1747)"
           id="g3537"><path
             id="path3539"
             style="fill:#1e130f;fill-opacity:1;fill-rule:nonzero;stroke:none"
             d="m 0,0 14.668,0 0,-21.546 8.704,0 0,-12.626 -8.704,0 0,-45.831 -14.668,0 0,45.831 -7.521,0 0,12.626 7.521,0 L 0,0 Z" /></g><g
           transform="translate(1766.0267,499.5937)"
           id="g3541"><path
             id="path3543"
             style="fill:#1e130f;fill-opacity:1;fill-rule:nonzero;stroke:none"
             d="m 0,0 c -4.534,0 -8.3,-1.604 -11.299,-4.809 -2.999,-3.206 -4.498,-7.316 -4.498,-12.331 0,-5.05 1.526,-9.206 4.577,-12.464 3.053,-3.26 6.81,-4.89 11.273,-4.89 4.605,0 8.426,1.602 11.46,4.808 3.033,3.207 4.551,7.406 4.551,12.6 0,5.086 -1.518,9.205 -4.551,12.357 C 8.479,-1.576 4.641,0 0,0 m 15.42,12.035 14.668,0 0,-58.457 -14.668,0 0,6.179 c -2.863,-2.723 -5.734,-4.684 -8.614,-5.883 -2.88,-1.2 -6.001,-1.801 -9.365,-1.801 -7.548,0 -14.079,2.929 -19.588,8.785 -5.51,5.857 -8.264,13.137 -8.264,21.841 0,9.027 2.665,16.423 7.996,22.191 5.331,5.766 11.806,8.65 19.427,8.65 3.506,0 6.797,-0.663 9.874,-1.988 3.077,-1.325 5.921,-3.314 8.534,-5.964 l 0,6.447 z" /></g><g
           transform="translate(1808.6049,511.6289)"
           id="g3545"><path
             id="path3547"
             style="fill:#1e130f;fill-opacity:1;fill-rule:nonzero;stroke:none"
             d="m 0,0 12.573,0 0,-7.36 c 1.361,2.901 3.17,5.103 5.427,6.608 2.256,1.505 4.728,2.257 7.414,2.257 1.898,0 3.887,-0.502 5.964,-1.505 l -4.566,-12.626 c -1.72,0.859 -3.135,1.289 -4.246,1.289 -2.256,0 -4.164,-1.396 -5.721,-4.19 -1.559,-2.794 -2.338,-8.275 -2.338,-16.442 l 0.054,-2.847 0,-23.641 L 0,-58.457 0,0 Z" /></g><path
           id="path3549"
           style="fill:#1e130f;fill-opacity:1;fill-rule:nonzero;stroke:none"
           d="m 1846.725,511.629 14.668,0 0,-58.457 -14.668,0 0,58.457 z m 7.334,24.071 c 2.571,0 4.777,-0.932 6.616,-2.794 1.84,-1.863 2.76,-4.12 2.76,-6.77 0,-2.616 -0.911,-4.845 -2.732,-6.69 -1.823,-1.844 -4.001,-2.766 -6.537,-2.766 -2.607,0 -4.831,0.94 -6.671,2.821 -1.838,1.88 -2.758,4.163 -2.758,6.85 0,2.579 0.91,4.782 2.732,6.609 1.821,1.826 4.018,2.74 6.59,2.74" /><g
           transform="translate(1903.516,499.3252)"
           id="g3551"><path
             id="path3553"
             style="fill:#1e130f;fill-opacity:1;fill-rule:nonzero;stroke:none"
             d="m 0,0 c -4.558,0 -8.352,-1.585 -11.384,-4.755 -3.032,-3.17 -4.547,-7.226 -4.547,-12.17 0,-5.087 1.497,-9.206 4.493,-12.357 2.997,-3.153 6.791,-4.729 11.384,-4.729 4.592,0 8.413,1.594 11.463,4.782 3.05,3.188 4.575,7.289 4.575,12.304 0,5.015 -1.499,9.089 -4.494,12.224 C 8.494,-1.567 4.664,0 0,0 m -0.242,13.809 c 5.515,0 10.7,-1.38 15.555,-4.138 4.853,-2.758 8.641,-6.501 11.363,-11.23 2.721,-4.727 4.084,-9.832 4.084,-15.312 0,-5.517 -1.37,-10.674 -4.111,-15.474 -2.74,-4.801 -6.474,-8.552 -11.202,-11.257 -4.728,-2.704 -9.94,-4.056 -15.635,-4.056 -8.382,0 -15.538,2.982 -21.465,8.946 -5.929,5.964 -8.892,13.208 -8.892,21.733 0,9.134 3.349,16.746 10.047,22.835 5.874,5.301 12.626,7.953 20.256,7.953" /></g><g
           transform="translate(1983.141,503.4619)"
           id="g3555"><path
             id="path3557"
             style="fill:#1e130f;fill-opacity:1;fill-rule:nonzero;stroke:none"
             d="m 0,0 -9.08,-9.08 c -3.69,3.654 -7.039,5.48 -10.048,5.48 -1.647,0 -2.937,-0.348 -3.868,-1.047 -0.932,-0.699 -1.397,-1.568 -1.397,-2.606 0,-0.788 0.295,-1.514 0.886,-2.176 0.592,-0.663 2.051,-1.567 4.379,-2.714 l 5.373,-2.686 c 5.659,-2.794 9.546,-5.642 11.659,-8.543 2.114,-2.901 3.17,-6.305 3.17,-10.208 0,-5.194 -1.907,-9.528 -5.721,-13.003 -3.815,-3.475 -8.929,-5.212 -15.34,-5.212 -8.526,0 -15.331,3.332 -20.417,9.994 l 9.026,9.832 c 1.72,-2.006 3.734,-3.626 6.045,-4.862 2.31,-1.235 4.36,-1.854 6.151,-1.854 1.935,0 3.494,0.465 4.675,1.398 1.182,0.931 1.774,2.005 1.774,3.224 0,2.255 -2.132,4.459 -6.395,6.608 l -4.942,2.472 c -9.457,4.763 -14.185,10.727 -14.185,17.891 0,4.621 1.781,8.57 5.346,11.848 3.563,3.277 8.121,4.916 13.674,4.916 3.797,0 7.369,-0.833 10.719,-2.499 C -5.167,5.508 -2.329,3.117 0,0" /></g><path
           id="path3559"
           style="fill:#ea002a;fill-opacity:1;fill-rule:nonzero;stroke:none"
           d="m 871.523,683.448 -466.24,0 0,710.262 466.24,0 0,-710.262 z" /><g
           transform="translate(833.3416,1074.895)"
           id="g3561"><path
             id="path3563"
             style="fill:#1e130f;fill-opacity:1;fill-rule:nonzero;stroke:none"
             d="m 0,0 -72.298,-71.501 c -45.758,48.399 -99.091,72.603 -160.009,72.603 -53.102,0 -97.566,-17.604 -133.411,-52.802 -35.84,-35.202 -53.76,-77.984 -53.76,-128.338 0,-52.07 18.595,-96.197 55.792,-132.371 37.194,-36.181 83.082,-54.268 137.651,-54.268 35.482,0 65.4,7.454 89.751,22.367 24.349,14.908 43.985,38.254 58.913,70.034 l -156.204,0 0,96.437 271.342,0 0.731,-22.733 c 0,-47.18 -12.225,-91.917 -36.665,-134.203 -24.448,-42.295 -56.101,-74.562 -94.969,-96.803 -38.869,-22.244 -84.463,-33.369 -136.773,-33.369 -55.979,0 -105.911,12.165 -149.786,36.487 -43.88,24.317 -78.594,58.97 -104.135,103.952 -25.549,44.973 -38.32,93.502 -38.32,145.571 0,71.376 23.586,133.468 70.77,186.269 55.976,62.824 128.823,94.238 218.541,94.238 46.932,0 90.807,-8.681 131.635,-26.032 C -66.738,60.869 -33.003,35.69 0,0" /></g><g
           transform="translate(1110.9254,940.3257)"
           id="g3565"><path
             id="path3567"
             style="fill:#1e130f;fill-opacity:1;fill-rule:nonzero;stroke:none"
             d="m 0,0 c -30.947,0 -56.646,-10.946 -77.11,-32.82 -20.469,-21.879 -30.699,-49.932 -30.699,-84.15 0,-34.471 10.409,-62.828 31.239,-85.069 20.834,-22.249 46.473,-33.369 76.932,-33.369 31.43,0 57.499,10.937 78.204,32.816 20.704,21.875 31.064,50.542 31.064,85.987 0,34.711 -10.36,62.824 -31.064,84.337 C 57.861,-10.763 31.67,0 0,0 m 105.228,82.134 100.103,0 0,-398.944 -100.103,0 0,42.168 c -19.534,-18.583 -39.128,-31.963 -58.78,-40.152 -19.659,-8.186 -40.961,-12.283 -63.913,-12.283 -51.517,0 -96.079,19.985 -133.683,59.95 -37.6,39.97 -56.398,89.653 -56.398,149.055 0,61.601 18.192,112.077 54.573,151.437 36.381,39.356 80.569,59.036 132.582,59.036 23.923,0 46.383,-4.524 67.384,-13.567 20.997,-9.048 40.409,-22.615 58.235,-40.701 l 0,44.001 z" /></g><g
           transform="translate(1356.4457,1022.4598)"
           id="g3569"><path
             id="path3571"
             style="fill:#1e130f;fill-opacity:1;fill-rule:nonzero;stroke:none"
             d="m 0,0 85.804,0 0,-50.232 c 9.287,19.798 21.631,34.832 37.031,45.099 15.4,10.266 32.268,15.4 50.602,15.4 12.954,0 26.521,-3.426 40.702,-10.267 l -31.166,-86.17 c -11.734,5.869 -21.395,8.804 -28.968,8.804 -15.4,0 -28.418,-9.536 -39.051,-28.602 -10.636,-19.07 -15.953,-56.471 -15.953,-112.203 l 0.37,-19.436 0,-161.337 -99.371,0 L 0,0 Z" /></g><g
           transform="translate(1771.5585,938.4927)"
           id="g3573"><path
             id="path3575"
             style="fill:#1e130f;fill-opacity:1;fill-rule:nonzero;stroke:none"
             d="m 0,0 c -31.097,0 -56.996,-10.82 -77.683,-32.45 -20.692,-21.635 -31.036,-49.322 -31.036,-83.053 0,-34.714 10.222,-62.828 30.67,-84.337 20.44,-21.513 46.338,-32.268 77.683,-32.268 31.341,0 57.418,10.873 78.232,32.634 20.81,21.753 31.223,49.74 31.223,83.971 0,34.218 -10.23,62.023 -30.67,83.418 C 57.971,-10.698 31.833,0 0,0 m -1.65,94.234 c 37.645,0 73.025,-9.413 106.155,-28.232 33.121,-18.826 58.971,-44.371 77.553,-76.639 18.575,-32.267 27.866,-67.099 27.866,-104.5 0,-37.649 -9.352,-72.851 -28.053,-105.602 -18.7,-32.764 -44.184,-58.366 -76.452,-76.822 -32.267,-18.453 -67.835,-27.683 -106.703,-27.683 -57.199,0 -106.029,20.351 -146.487,61.052 -40.461,40.701 -60.686,90.141 -60.686,148.319 0,62.336 22.855,114.28 68.571,155.839 40.088,36.177 86.17,54.268 138.236,54.268" /></g></g></g></g></svg>