<?xml version="1.0" encoding="utf-8"?>
<!-- Generator: Adobe Illustrator 19.1.1, SVG Export Plug-In . SVG Version: 6.00 Build 0)  -->
<svg version="1.1" id="Layer_1" xmlns="http://www.w3.org/2000/svg" xmlns:xlink="http://www.w3.org/1999/xlink" x="0px" y="0px"
	 viewBox="65 266.7 440 440.3" style="enable-background:new 65 266.7 440 440.3;" xml:space="preserve">
<style type="text/css">
	.st0{fill:#C4014B;}
	.st1{fill:#FFFFFF;}
	.st2{fill:#004289;}
</style>
<g>
	<polygon class="st0" points="285.1,358.6 489,418.6 489,557.9 285.1,617.8 81.1,557.9 81.1,418.6 	"/>
	<path d="M474.6,586.2v-12.7h3.7l2.5,9l2.5-9h3.7v12.7h-2.4v-10.3l-2.5,10.3h-2.5l-2.5-10.3v10.3H474.6L474.6,586.2z M466.7,586.2
		v-10.5H463v-2.1h10v2.1h-3.7v10.5H466.7z"/>
	<polygon class="st1" points="479.2,425.8 285.1,368.7 90.9,425.8 90.9,550.5 285.1,607.6 479.2,550.5 	"/>
	<polygon class="st2" points="475.7,428.5 285.1,372.5 94.5,428.5 94.5,547.9 285.1,603.9 475.7,547.9 	"/>
	<path class="st1" d="M362.6,506c-0.8-0.5-1.6-0.7-2.2-0.4c-1.4,0.6-1.1,2.6-0.6,5.3l0.1,0.4c0.4,2.3-0.3,16.9-13.2,25.8
		c-0.5,0.2-0.9,0.5-1.4,0.7c-2.6,1.4-6,3.2-9.5,3c-2.2-0.1-3.9-0.7-5-2c-1.2-1.4-1.6-3.5-1.3-6.2c0.9-6.5,5.4-18,7.1-21.9
		c1.2-2.8,2.2-7,1-9.7c-0.5-1.1-1.2-1.8-2.2-2.1c-3-1-8.6,1-13.8,5.9l1.8-5.1h-9.6l-7.2,22c-3.6,5.6-6.8,8-9.5,7.1
		c-1-0.3-0.4-2.2,0.2-4.1l0.2-0.6c1.7-5.4,3.9-10.9,4.9-13.3c1.2-2.8,2.1-7,0.9-9.7c-0.4-1.1-1.2-1.8-2.2-2.1
		c-3.3-1.2-9,1.5-13.8,6.1l1.8-5.3h-9.6l-11.8,35.6h9.6l6.4-19.3c1.3-4.3,5.2-8.4,8.1-10.3c0.8-0.6,1.5-0.7,1.8-0.5
		c0.5,0.3,0.5,1.8-0.2,3.5c-1.2,2.6-4.5,10.7-5.8,15.8c-0.8,2.5-1.8,7.2-0.1,9.9c0.7,1.2,1.8,1.8,3.3,2.1c3.7,0.7,9-3,12.3-6.1
		l-1.6,4.9h9.6l6.4-19.3c1.4-4.3,5.2-8.4,8.1-10.3c0.8-0.6,1.6-0.7,1.8-0.5c0.5,0.3,0.5,1.8-0.2,3.5l-0.9,2.1c-1.6,3.7-4,9.3-5,13.3
		c-0.8,3.7-1.7,10.6,2,15.3c2.5,3,6.4,4.7,11.8,4.9c7.7,0.3,14-4,17.8-7.7c7.1-6.5,12.3-16.5,12.3-23.2
		C365.9,508.5,363.4,506.5,362.6,506L362.6,506z M273.5,494.5c-1.1,1.9-2.4,5.5-3.9,10.1c-2.1,6.2-4.9,14.1-8.6,21.9
		c-4.2,8.8-14.3,16.7-24.4,19.2c-8.1,2-16,0.5-22.4-4.3c-6-4.4-9.3-10-9.8-16.8c-0.6-8.6,3.9-17.3,7.1-20.4l0.1-0.1
		c4.4-2.5,6.1-0.7,6.5-0.2c0.9,1.2,0.7,3-0.5,3.9c-5.8,5-8.1,10.5-7.7,18.5c0.4,7.7,7.5,15.8,18.7,16.2c11.3,0.4,18-9,20.4-13
		c2.1-3.5,8.9-20.2,11.8-27.3l1.1-2.5c1.5-3.6,5.7-9.1,8.8-12.7c-17.7,3.5-24.3,13.1-25.2,16.3c-0.7,2.2,0,5.8,2.5,8.6
		c1.6,1.8,0.9,3,0.5,3.5c-1,1.2-2.9,1.5-4.4,0.7c-2-1-5.3-3.5-5.2-9.6c3-22.9,41.8-25.2,42.2-25.2c0.7,0,2.3,0.1,2.6,1.2
		c0.3,1-1,1.8-1.4,2.1C279.5,486,276.5,489.4,273.5,494.5z"/>
	<path class="st1" d="M206.3,461.7l3.5-9.6h3.5l1.6-4.8h-3.5c1.1-2.9,4.1-11.5,4.1-11.5c1.6-4.6,5.9-14.1,11.1-17.4
		c1.2-0.3,1.2-1,1.2-1.3c-0.1-1.5-2-1-2-1c-5.4,1.2-15.5,3.1-23.8,29.3l-0.7,2l-14.1,0.1c2.5-7.6,6.7-16.7,7.3-18.1
		c1.2-2.7,2.5-5.5,3.8-6.5c1.6-1,1.9-2.2,1.5-3c-0.3-0.5-1.2-1-2.2-0.4c-0.7,0.5-3,1.6-6.7,2c-6.9,0.8-16.6,2.4-21.5,5.5
		c-2.5,1.6-2.5,3.5-2.5,4.3c0.2,1.2,1,2.1,2,2.5c1.1,0.3,2.2-0.1,3.2-1.2c3.4-4.2,11.7-6.7,16.7-7.2c-4.4,4.2-8.4,12.6-9.6,15.5
		c-0.5,1.2-1.4,3.8-2.3,6.6H170l-1.6,4.8h7.2l-3,9.4c-1.2,3.7-2.2,6.9-2.6,8.4c-4.1,12.3-9.9,18.3-17.3,18
		c-11-0.4-17.7-10.8-17.8-20.6c-0.1-8.4,2-13.6,7.5-18.5c1.2-1,1.5-2.8,0.5-3.9c-1-1.2-3.6-2.5-6.3,0.2c-2.6,2.6-6.5,11-6.3,20.6
		c0.2,8,3.2,15,8.8,20.1c5.7,5.2,12.3,7.1,19.3,5.2c9.6-2.5,18.6-11.8,22.3-23.2l5.1-15.8h14c-0.5,1.6-2.1,6-2.1,6
		c-2.5,7.5-7.3,21.5,4.9,34l1.2-0.7C202.7,488.3,200.8,479.2,206.3,461.7L206.3,461.7z M216.9,453.8c5.4-13.7,14.6-16.8,17.7-16.8
		c2.2,0,3.9,0.7,5.2,2.2l0.3-1.2h9.2l-7.8,24.4c-0.5,1.6-1.2,3.7-0.7,4.5c0.1,0.1,0.3,0.3,0.7,0.4c2.5,0.3,5.8-2.4,9.2-7.3l7.1-22.1
		h9.2l-1.9,5.9c2.9-3,7.2-6.7,10.8-6.7c1.5,0,2.7,0.6,3.7,1.8c1.2,1.4,1.8,3.5,1.8,5.8c2.8-3.2,7.7-7.6,11.6-7.6c2,0,3.5,0.7,4.4,2
		c1.2,1.6,1.5,4.1,0.7,6.9c-0.5,2-2.6,6.9-4.4,10.9c-0.9,2.1-1.6,3.9-2,4.6c-1.2,3-1.4,5.8-0.7,6.2c1.8,0.7,5.7-2.1,10-7.3l7.2-22.5
		h9.2l-0.5,1.6c2.1-1.4,5.1-2.6,8.1-2.4c1.7,0.1,3.2,1,4.2,2.5c2.3,3.5,2.2,9.9-0.3,18.3c-3.9,13.2-14.6,16.2-17.4,16
		c-1.9-0.1-3.1-0.7-4.2-2.4v-0.1c0,0-0.2-0.4-0.3-0.5c-0.1,0.1-5.7,17.4-5.7,17.4h-9.1l6.7-21.1c-3.4,3.3-8.5,7.3-11.9,7.2
		c-1.6-0.1-2.9-0.7-3.8-2c-2-2.8-1.5-7.6-0.7-10.2c1.2-3.9,4.4-11.4,6.2-15c0.7-1.7,1-2.5,0.5-2.6c0,0-0.5-0.3-2.2,0.7
		c-3.9,2.5-8.3,9.6-9.6,13.6l-4.5,14.5h-9.4l8.1-24.5c0.7-1.6,0.8-3.7,0.3-4.1c-0.2-0.2-0.9-0.2-2,0.5c-4.1,2.5-8.1,9.6-9.5,13.6
		l-4.8,14.5h-9.2l1.7-5.4c-3,3-7.6,6.3-11,6.2c-1.6-0.1-3-0.7-3.9-2c-1.2-1.5-1.7-3.5-1.8-5.4c-3.9,4.1-9.2,7.7-12.7,7.3
		c-1.7-0.2-3-1.1-3.9-2.5C212.8,468.7,213.5,462.4,216.9,453.8L216.9,453.8z M312.2,453.9c0-0.1-3.4,10.4-3.7,11.7
		c-0.2,2.2,0.8,2.7,1.5,3c0.1,0.1-0.1-0.1,0,0c3.4,0.5,8.1-7.9,10.3-13.8c1.2-3.1,2.3-9.9,1-11.3c-0.2-0.2,0.1,0,0,0
		C318.6,442.7,315.5,446,312.2,453.9L312.2,453.9z M235.3,442.2c0.6-0.2,1.1-0.2,1.6-0.1c0.6,0.2,1.2,1.4,1.2,2.5
		c-0.3,1.2-3,9.6-3,9.6c-1.3,4-6.3,13-10.3,12.3c-0.4-0.1-0.7-0.3-0.9-0.7c-1.2-2.1,0.7-7.9,2-11.1
		C226.5,453.1,231.5,443.8,235.3,442.2L235.3,442.2z M436.9,444.4c-0.8-0.5-1.6-0.7-2.2-0.4c-1.4,0.6-1,2.9-0.6,5.5
		c0.4,2.3-0.6,27.8-23.3,29.7c-2.2,0.2-3.9-0.7-4.9-2c-1.2-1.4-1.6-3.5-1.2-6.2c0.8-6.6,5.2-18,6.8-21.9c1.2-2.8,2.1-7,1-9.7
		c-0.5-1.1-1.2-1.8-2.1-2.1c-3-1.1-8.1,0.3-12.9,5l1.3-4.2h-9.3l-0.2,0.4c-2.5,6.2-5.7,9.9-9.3,10.8c0.2-5.8-1.6-10-5.1-11.7
		c-2.3-1.2-5.4-1-8.7,0.3c-5.4,2.2-10,7.1-12.3,12.8c-1.4,3.5-2.2,6.7-2.5,9.5c-4.5,5.8-8.5,8.6-10.4,7.5c-0.5-0.9-0.3-2.5,0.7-4.9
		c0.2-0.5,6.8-21.4,6.8-21.4h6.4l1-3.3h-6.3l4.2-13.4l-9.9,2.3l-3.5,11.1h-6.2l-1.2,3.3h6.4c-1.2,3.7-5.8,18.2-5.8,18.1
		c-0.1,0.3-2.9,8.7-0.1,12.8c1,1.4,2.5,2.1,4.4,2.2c6.7,0.3,11-5.9,13.6-10.1c0.5,4.9,3,8.1,7.6,9.4c6.3,2,15.1-4.9,18.8-14.5
		c0.7-1.8,1.2-3.6,1.6-5.4c2-0.5,4.3-1.6,5.8-2.9l-7.1,22.5h9.3l6.2-19.2c1.4-4.3,5-8.3,7.9-10.3c0.7-0.6,1.4-0.7,1.7-0.5
		c0.5,0.3,0.5,1.8-0.1,3.5l-0.9,2.1c-1.6,3.7-3.9,9.3-4.9,13.3c-0.8,3.7-1.6,10.5,2,15.3c2.4,3,6.2,4.7,11.4,4.9
		c5.8,0.2,11.8-2.5,17.1-7.6c7.6-7.3,12.1-17.7,12.1-23.5C439.9,446.8,437.6,444.9,436.9,444.4L436.9,444.4z M364.4,469
		c-0.8,0.3-1.6,0.2-2.4-0.2c-1-0.7-1.6-2-1.7-3.8c-0.4-5.3,3.3-13.7,5.7-16.9c1.2,4.2,4,6.2,6.4,6.6
		C371.4,458.6,368.1,467.5,364.4,469L364.4,469z M373.6,449.6c-0.9-0.1-1.6-0.3-2.1-0.9c-1-1.1-1.4-3-1.2-5.8
		c1.2-1.2,2.1-1.6,2.6-1.4C373.4,441.8,374.5,442.9,373.6,449.6z"/>
	<path class="st1" d="M351.6,562h31.9v2.6h-31.9V562L351.6,562z M186.6,562h31.9v2.6h-31.9V562L186.6,562z M256.5,552.4h9.9v1.2
		h-2.6v7.7h6.7v-7.7h-2.6v-1.2h9.9v1.2h-2.6v17.4h2.6v1.7h-9.9v-1.7h2.6v-8.4h-6.7v8.4h2.6v1.7h-9.9v-1.7h2.6v-17.4h-2.6V552.4
		L256.5,552.4z M332.9,559.9c1.1-1.3,2.9-2.3,4.8-2.3c3,0,5.3,2,5.3,4.4v9h2.2v1.7h-8.8v-1.7h1.7v-10.4c-1-2.5-3.9-1.8-5.3,2.8v7.6
		h2v1.7h-8.9v-1.7h2.3v-11.6h-2.3v-1.6h6.9L332.9,559.9L332.9,559.9z M308.7,565c0-10.2,16.4-10.2,16.4,0
		C325,575.2,308.7,575.2,308.7,565L308.7,565z M316.8,571.7c1.7,0,3.1-1.4,3.1-3.1v-7c0-1.7-1.4-3.1-3.1-3.1s-3.1,1.4-3.1,3.1v7
		C313.7,570.3,315.1,571.7,316.8,571.7L316.8,571.7z M298.5,557.8h2.5v-5.4h4.2v5.4h3.1v1.6h-3.1v10.4c0,0.5,0.2,1.2,1.2,1.2h2.2
		v1.7h-4.4c-2.5,0-3.1-2-3.1-3.2v-10.1h-2.5L298.5,557.8L298.5,557.8z M288.8,549.6h6.8v21.4h2.2v1.7h-9.1v-1.7h2.2V551h-2.1
		L288.8,549.6L288.8,549.6z M281.4,552.4h4.6v2.5h-4.6V552.4L281.4,552.4z M286.1,557.9v13h1.8v1.7h-9v-1.7h2.5V559h-2.2v-1.1H286.1
		L286.1,557.9z M232.5,571.3c-1,0-1.8-0.7-1.8-1.7v-3.2c0-1,0.8-1.8,1.8-1.8c1,0,1.8,0.7,1.8,1.8v3.2
		C234.3,570.4,233.6,571.3,232.5,571.3L232.5,571.3z M230.8,571c0.7,1,1.6,1.6,3,1.6c1.6,0,3.7-1.6,3.7-3.4v-2.9
		c0-1.8-2-3.3-3.7-3.3c-1.4,0-2.4,0.7-3,1.7v-7.6h-4.4v1h1.2v13.3h-1.2v0.7h4.4V571L230.8,571z M238.5,563.7h5.3v1.2h-1.4l2.6,4.1
		l1.8-4.1h-1.8v-1.2h4.7v1.2h-1.2l-5.2,11.5c-0.2,0.5-0.5,1.1-1,1.5c-0.4,0.5-1,0.7-1.6,0.7c-1,0-1.8-0.9-1.8-1.9c0-1.1,0.8-2,1.8-2
		c0.6,0,1.2,0.3,1.5,0.7l1.2-3l-4.1-7.7h-0.9V563.7z"/>
</g>
</svg>
