<?xml version="1.0" encoding="utf-8"?>
<!-- Generator: Adobe Illustrator 19.1.1, SVG Export Plug-In . SVG Version: 6.00 Build 0)  -->
<svg version="1.1" id="Layer_1" xmlns="http://www.w3.org/2000/svg" xmlns:xlink="http://www.w3.org/1999/xlink" x="0px" y="0px"
	 viewBox="0 0 71.9 73.5" style="enable-background:new 0 0 71.9 73.5;" xml:space="preserve">
<style type="text/css">
	.st0{fill:#15A8D4;}
</style>
<g id="XMLID_13_">
	<g id="XMLID_17_">
		<path id="XMLID_3_" class="st0" d="M53.7,22.5c-0.5,1.6-1.5,3-3,4.1c0.7-0.1,1.3-0.2,2-0.4c0.6-0.2,1.3-0.4,2-0.7
			c-0.9,1.4-1.9,2.6-3.2,3.6c-0.4,0.3-0.6,0.7-0.6,1.2c-0.1,6.7-2.3,12.6-7.1,17.4c-4.1,4.1-9.2,6.1-15.1,6c-4.2,0-7.9-1.3-11.4-3.6
			c4.1,0.3,7.8-0.8,11.1-3.4c-3.7-0.4-5.9-2.4-7.1-5.7c1.1,0,2.1,0,3.1,0c0-0.1,0.1-0.1,0.1-0.2c-3.8-1.4-5.7-4.1-5.9-8.1
			c1.1,0.3,2.1,0.7,3.1,1c0-0.1,0.1-0.1,0.1-0.2c-1.6-1.4-2.6-3-3-5c-0.4-2-0.1-4,0.9-5.9c4.1,5.2,9.3,8.2,15.9,8.8
			c-0.3-1.9-0.2-3.7,0.6-5.4c2.2-4.9,8.3-6.1,12.2-2.3c0.3,0.3,0.6,0.4,1,0.3C50.9,23.4,52.3,22.9,53.7,22.5z"/>
	</g>
	<path id="XMLID_14_" class="st0" d="M61.4,12.3C54.6,5.4,45.7,1.7,36.1,1.6c0,0-0.1,0-0.1,0c-9.6,0-18.6,3.7-25.4,10.5
		C3.8,18.9,0,27.9,0,37.6c0,9.6,3.7,18.6,10.5,25.4c6.8,6.8,15.8,10.6,25.4,10.6c0,0,0,0,0.1,0c19.8,0,35.9-16.1,35.9-35.9
		C71.9,28.1,68.2,19.1,61.4,12.3z M35.9,6.4L35.9,6.4c17.1,0,31.1,14,31.1,31.1c0,8.2-3.2,16-9.1,21.9c-5.9,5.9-13.6,9.2-21.9,9.2
		c0,0-0.1,0-0.1,0c-8.3,0-16.2-3.2-22.1-9.1c-5.9-5.9-9.1-13.7-9.2-22c0-8.3,3.2-16.2,9.1-22.1C19.8,9.7,27.6,6.4,35.9,6.4z"/>
</g>
</svg>
