<?xml version="1.0" encoding="utf-8"?>
<!-- Generator: Adobe Illustrator 19.1.1, SVG Export Plug-In . SVG Version: 6.00 Build 0)  -->
<svg version="1.1"
	 id="svg3473" xmlns:dc="http://purl.org/dc/elements/1.1/" xmlns:rdf="http://www.w3.org/1999/02/22-rdf-syntax-ns#" xmlns:svg="http://www.w3.org/2000/svg" xmlns:cc="http://creativecommons.org/ns#"
	 xmlns="http://www.w3.org/2000/svg" xmlns:xlink="http://www.w3.org/1999/xlink" x="0px" y="0px" viewBox="1055 -667 2721.4 2126"
	 style="enable-background:new 1055 -667 2721.4 2126;" xml:space="preserve">
<style type="text/css">
	.st0{fill:#00A8E2;}
	.st1{clip-path:url(#SVGID_2_);}
	.st2{fill:#EA002A;stroke:#FFFFFF;stroke-miterlimit:10;}
	.st3{fill:#FFFFFF;stroke:#FFFFFF;stroke-miterlimit:10;}
</style>
<g id="g3481" transform="matrix(1.25,0,0,-1.25,0,2125.9875)">
	<path id="path3483" class="st0" d="M1490.7,841.1h-466.2v710.3h466.2V841.1L1490.7,841.1z"/>
	<g id="g3485">
		<g>
			<defs>
				<rect id="SVGID_1_" x="571.9" y="321" width="2721.4" height="2126"/>
			</defs>
			<clipPath id="SVGID_2_">
				<use xlink:href="#SVGID_1_"  style="overflow:visible;"/>
			</clipPath>
			<g id="g3487" class="st1">
				<path id="path3559" class="st2" d="M1715.5,1217h-466.2v710.3h466.2V1217L1715.5,1217z"/>
				<g id="g3561" transform="translate(833.3416,1074.895)">
					<path id="path3563" class="st3" d="M844,533.6l-72.3-71.5c-45.8,48.4-99.1,72.6-160,72.6c-53.1,0-97.6-17.6-133.4-52.8
						c-35.8-35.2-53.8-78-53.8-128.3c0-52.1,18.6-96.2,55.8-132.4c37.2-36.2,83.1-54.3,137.7-54.3c35.5,0,65.4,7.5,89.8,22.4
						c24.3,14.9,44,38.3,58.9,70H610.4v96.4h271.3l0.7-22.7c0-47.2-12.2-91.9-36.7-134.2c-24.4-42.3-56.1-74.6-95-96.8
						C712,79.8,666.4,68.6,614.1,68.6c-56,0-105.9,12.2-149.8,36.5c-43.9,24.3-78.6,59-104.1,104c-25.5,45-38.3,93.5-38.3,145.6
						c0,71.4,23.6,133.5,70.8,186.3c56,62.8,128.8,94.2,218.5,94.2c46.9,0,90.8-8.7,131.6-26C777.3,594.5,811,569.3,844,533.6"/>
				</g>
				<g id="g3565" transform="translate(1110.9254,940.3257)">
					<path id="path3567" class="st3" d="M844,533.6c-30.9,0-56.6-10.9-77.1-32.8c-20.5-21.9-30.7-49.9-30.7-84.2
						c0-34.5,10.4-62.8,31.2-85.1c20.8-22.2,46.5-33.4,76.9-33.4c31.4,0,57.5,10.9,78.2,32.8c20.7,21.9,31.1,50.5,31.1,86
						c0,34.7-10.4,62.8-31.1,84.3C901.9,522.8,875.7,533.6,844,533.6 M949.2,615.7h100.1V216.8H949.2v42.2
						c-19.5-18.6-39.1-32-58.8-40.2c-19.7-8.2-41-12.3-63.9-12.3c-51.5,0-96.1,20-133.7,59.9c-37.6,40-56.4,89.7-56.4,149.1
						c0,61.6,18.2,112.1,54.6,151.4c36.4,39.4,80.6,59,132.6,59c23.9,0,46.4-4.5,67.4-13.6c21-9,40.4-22.6,58.2-40.7V615.7
						L949.2,615.7z"/>
				</g>
				<g id="g3569" transform="translate(1356.4457,1022.4598)">
					<path id="path3571" class="st3" d="M844,533.6h85.8v-50.2c9.3,19.8,21.6,34.8,37,45.1c15.4,10.3,32.3,15.4,50.6,15.4
						c13,0,26.5-3.4,40.7-10.3l-31.2-86.2c-11.7,5.9-21.4,8.8-29,8.8c-15.4,0-28.4-9.5-39.1-28.6c-10.6-19.1-16-56.5-16-112.2
						l0.4-19.4V134.6H844V533.6z"/>
				</g>
				<g id="g3573" transform="translate(1771.5585,938.4927)">
					<path id="path3575" class="st3" d="M844,533.6c-31.1,0-57-10.8-77.7-32.4c-20.7-21.6-31-49.3-31-83.1
						c0-34.7,10.2-62.8,30.7-84.3c20.4-21.5,46.3-32.3,77.7-32.3c31.3,0,57.4,10.9,78.2,32.6c20.8,21.8,31.2,49.7,31.2,84
						c0,34.2-10.2,62-30.7,83.4C902,522.9,875.8,533.6,844,533.6 M842.3,627.8c37.6,0,73-9.4,106.2-28.2
						c33.1-18.8,59-44.4,77.6-76.6c18.6-32.3,27.9-67.1,27.9-104.5c0-37.6-9.4-72.9-28.1-105.6c-18.7-32.8-44.2-58.4-76.5-76.8
						c-32.3-18.5-67.8-27.7-106.7-27.7c-57.2,0-106,20.4-146.5,61.1c-40.5,40.7-60.7,90.1-60.7,148.3c0,62.3,22.9,114.3,68.6,155.8
						C744.2,609.7,790.3,627.8,842.3,627.8"/>
				</g>
			</g>
		</g>
	</g>
</g>
</svg>
